<?xml version="1.0" encoding="UTF-8"?>
<svg id="Layer_1" data-name="Layer 1" xmlns="http://www.w3.org/2000/svg" width="1080" height="1080" viewBox="0 0 1080 1080">
  <defs>
    <style>
      .cls-1 {
        fill: #fff;
        font-family: Times-Roman, Times;
        font-size: 200px;
      }

      .cls-2 {
        fill: none;
        stroke: #fff;
        stroke-miterlimit: 10;
        stroke-width: 15px;
      }
    </style>
  </defs>
  <g>
    <g>
      <path class="cls-2" d="M775.17,609.64c0,124.18-100.66,224.84-224.84,224.84s-224.84-100.66-224.84-224.84c0-73.78,38.55-144.86,98.45-185.98,13.06-8.97,61.28-41.11,126.39-38.86,100.52,3.47,224.84,88.34,224.84,224.84Z"/>
      <path class="cls-2" d="M763.65,542.04l3.95.04c2.91-.36,9.64-1.77,13.31-8.56,2.4-4.44,2.51-9.38,2.59-13.16.05-2.31-.07-4.84-2.29-17.44-2.02-11.41-2.89-14.8-2.98-17.88-.02-.54,0-1.22.05-2.07.55-9.88,6.7-13.13,5.63-14.81-1.07-1.69-6.52,2.72-15.27-1.09-.64-.28-1.06-.5-1.86-.91-4.99-2.6-7.33-4.97-14.47-10.91-5.64-4.68-9.05-7.26-13.34-9.54-.26-.14-.6-.32-1.06-.55-2.09-1.04-7.51-3.76-12.87-3.78-8.12-.04-12.5,6.11-13.74,7.85-1.52,2.13-2.41,4.26-2.92,5.76"/>
      <path class="cls-2" d="M769.95,655.64l3.25,2.61c2.67,1.22,9.13,3.57,15.82-.26,4.39-2.51,7.08-6.65,9.14-9.82,1.26-1.93,2.5-4.15,7.24-16.03,4.3-10.76,5.34-14.1,6.88-16.77.27-.46.65-1.04,1.13-1.73,5.67-8.11,12.61-7.63,12.59-9.62-.02-2-6.98-1.12-12.41-8.97-.4-.57-.64-.98-1.1-1.76-2.87-4.84-3.61-8.09-6.55-16.9-2.32-6.95-3.87-10.94-6.31-15.14-.15-.26-.34-.59-.61-1.03-1.22-1.99-4.4-7.15-8.94-10-6.88-4.31-13.84-1.4-15.82-.57-2.42,1.01-4.29,2.35-5.52,3.36"/>
      <path class="cls-2" d="M717.51,760.28l3.76,6.58c1.79,2.33,6.4,7.43,14.11,7.16,5.05-.17,9.36-2.57,12.67-4.42,2.01-1.12,4.15-2.51,13.89-10.79,8.83-7.51,11.31-9.97,13.92-11.61.45-.28,1.06-.62,1.81-1,8.81-4.52,14.72-.86,15.63-2.63.92-1.78-5.65-4.25-6.78-13.73-.08-.69-.11-1.16-.15-2.07-.28-5.62.58-8.84,2.1-18,1.19-7.23,1.69-11.48,1.49-16.33-.01-.3-.03-.68-.06-1.2-.15-2.33-.55-8.38-3.24-13.02-4.07-7.03-11.58-7.7-13.72-7.89-2.61-.23-4.89.08-6.45.39"/>
      <path class="cls-2" d="M615.84,824.22l-.29,5.13c.24,2.92,1.35,9.71,7.96,13.68,4.33,2.6,9.26,2.92,13.03,3.17,2.3.15,4.84.15,17.52-1.52,11.49-1.51,14.91-2.23,17.99-2.19.54,0,1.22.06,2.07.14,9.85.99,12.82,7.27,14.55,6.28,1.74-1-2.43-6.63,1.76-15.21.31-.62.54-1.03.99-1.82,2.82-4.87,5.29-7.11,11.54-13.98,4.93-5.42,7.65-8.72,10.12-12.91.15-.26.35-.59.6-1.04,1.14-2.04,4.09-7.34,4.35-12.69.4-8.11-5.55-12.76-7.24-14.07-2.07-1.61-4.15-2.59-5.63-3.17"/>
      <path class="cls-2" d="M499.84,828.56l-3.58,5.38c-1.28,2.64-3.76,9.06-.06,15.83,2.42,4.44,6.5,7.21,9.63,9.33,1.91,1.3,4.1,2.58,15.88,7.56,10.67,4.52,13.99,5.63,16.62,7.22.46.28,1.03.67,1.71,1.17,7.99,5.84,7.37,12.76,9.36,12.78,2,.02,1.26-6.95,9.23-12.22.58-.38.99-.62,1.78-1.06,4.9-2.77,8.16-3.45,17.03-6.21,7-2.18,11.01-3.65,15.27-6,.26-.14.6-.33,1.04-.59,2.01-1.18,7.24-4.26,10.18-8.74,4.45-6.79,1.68-13.81.89-15.8-.96-2.44-4.14-6.91-5.12-8.16"/>
      <path class="cls-2" d="M597.53,391.98l5.22-8.34c1.21-2.67,3.52-9.15-.36-15.82-2.54-4.37-6.69-7.03-9.88-9.07-1.94-1.24-4.17-2.47-16.08-7.14-10.79-4.23-14.13-5.25-16.81-6.78-.47-.27-1.04-.64-1.74-1.12-8.15-5.62-7.71-12.56-9.7-12.53-2,.03-1.08,6.98-8.9,12.47-.57.4-.98.64-1.75,1.11-4.82,2.9-8.07,3.66-16.86,6.66-6.94,2.37-10.91,3.94-15.1,6.41-.26.15-.59.35-1.03.62-1.98,1.24-7.12,4.45-9.94,9.01-4.27,6.91-1.31,13.85-.47,15.82,1.03,2.41,3.55,5.54,4.56,6.76"/>
      <path class="cls-2" d="M698.69,445.8l6.99-4.57c2.32-1.79,7.41-6.42,7.13-14.13-.18-5.05-2.59-9.36-4.44-12.66-1.13-2.01-2.51-4.14-10.82-13.87-7.53-8.81-10-11.29-11.64-13.89-.29-.45-.62-1.06-1.01-1.81-4.54-8.8-.89-14.71-2.66-15.62-1.78-.91-4.24,5.65-13.72,6.81-.69.08-1.16.11-2.06.16-5.62.29-8.84-.57-18.01-2.06-7.23-1.18-11.48-1.66-16.34-1.46-.3.01-.68.03-1.2.06-2.33.16-8.38.57-13.01,3.27-7.02,4.08-7.67,11.6-7.86,13.74-.23,2.61.09,4.89.41,6.45"/>
      <path class="cls-2" d="M335.04,676.22l-7.55-.22c-2.92.31-9.67,1.6-13.46,8.32-2.48,4.4-2.68,9.33-2.82,13.11-.09,2.3-.02,4.84,1.99,17.48,1.82,11.45,2.63,14.85,2.67,17.93,0,.54-.02,1.22-.09,2.07-.72,9.87-6.93,13.01-5.89,14.71,1.04,1.71,6.57-2.61,15.25,1.36.63.29,1.05.52,1.84.95,4.95,2.69,7.24,5.1,14.28,11.16,5.55,4.78,8.92,7.42,13.17,9.78.26.14.6.33,1.05.57,2.07,1.08,7.44,3.89,12.8,4.01,8.12.18,12.6-5.88,13.88-7.61,1.56-2.11,3.05-5.52,3.59-7.01"/>
      <path class="cls-2" d="M332.11,558.84l-3.24-2.14c-2.64-1.27-9.07-3.73-15.83-.02-4.43,2.43-7.19,6.52-9.31,9.66-1.29,1.91-2.57,4.11-7.52,15.9-4.49,10.69-5.59,14-7.18,16.64-.28.46-.66,1.03-1.16,1.71-5.82,8.01-12.74,7.41-12.76,9.4-.02,2,6.96,1.24,12.25,9.19.39.58.62.99,1.07,1.77,2.79,4.89,3.47,8.15,6.26,17.01,2.2,6.99,3.68,11,6.04,15.25.14.26.33.6.6,1.04,1.19,2.01,4.28,7.23,8.77,10.15,6.8,4.43,13.81,1.64,15.8.85,2.43-.97,4.33-2.28,5.58-3.26"/>
      <path class="cls-2" d="M385.8,456.3l-3.1-7.28c-1.75-2.36-6.27-7.54-13.98-7.41-5.05.08-9.41,2.41-12.74,4.19-2.03,1.09-4.19,2.43-14.08,10.55-8.96,7.35-11.48,9.77-14.12,11.36-.46.28-1.07.6-1.83.97-8.88,4.37-14.73.6-15.67,2.35-.95,1.76,5.57,4.35,6.54,13.85.07.69.09,1.17.11,2.07.18,5.63-.74,8.83-2.41,17.96-1.32,7.21-1.89,11.45-1.78,16.31,0,.3.02.68.04,1.2.11,2.33.41,8.39,3.01,13.07,3.94,7.1,11.45,7.9,13.58,8.13,2.61.28,4.89,0,6.45-.28"/>
      <path class="cls-2" d="M486.76,393.76l.25-3.36c-.18-2.93-1.17-9.74-7.72-13.82-4.29-2.67-9.21-3.08-12.97-3.4-2.3-.19-4.84-.23-17.55,1.21-11.51,1.31-14.95,1.97-18.03,1.87-.54-.02-1.22-.08-2.06-.18-9.83-1.16-12.69-7.49-14.43-6.54-1.75.96,2.32,6.67-2.03,15.18-.32.62-.56,1.03-1.03,1.8-2.9,4.82-5.42,7.01-11.78,13.77-5.02,5.34-7.8,8.59-10.35,12.73-.16.25-.36.58-.62,1.03-1.17,2.02-4.21,7.26-4.57,12.61-.54,8.1,5.32,12.85,6.99,14.2,2.04,1.65,5.69,3.06,7.16,3.67"/>
      <path class="cls-2" d="M398.22,773.74l-5.66,3.11c-2.35,1.75-7.52,6.29-7.38,14,.09,5.05,2.43,9.4,4.22,12.73,1.09,2.03,2.44,4.18,10.58,14.05,7.37,8.94,9.8,11.46,11.39,14.1.28.46.6,1.07.98,1.83,4.38,8.87.63,14.73,2.38,15.66,1.76.94,4.33-5.58,13.83-6.57.69-.07,1.17-.09,2.07-.12,5.63-.19,8.83.72,17.97,2.37,7.21,1.3,11.45,1.86,16.31,1.74.3,0,.68-.02,1.2-.04,2.33-.12,8.39-.42,13.06-3.04,7.09-3.96,7.88-11.46,8.1-13.6.27-2.61-.14-3.02-.43-4.58"/>
      <polygon class="cls-2" points="361.23 499.64 735.68 502.05 549.45 828.56 361.23 499.64"/>
      <polygon class="cls-2" points="557.76 389.12 736.11 723.57 357.26 714.34 557.76 389.12"/>
    </g>
    <circle class="cls-2" cx="550.73" cy="612.8" r="345.18"/>
  </g>
  <text class="cls-1" transform="translate(191.35 207.28)"><tspan x="0" y="0">Courage</tspan></text>
</svg>