<?xml version="1.0" encoding="UTF-8"?>
<svg id="Layer_1" data-name="Layer 1" xmlns="http://www.w3.org/2000/svg" width="1080" height="1080" viewBox="0 0 1080 1080">
  <defs>
    <style>
      .cls-1 {
        fill: none;
        stroke: #000;
        stroke-linecap: round;
        stroke-linejoin: round;
        stroke-width: 10px;
      }
    </style>
  </defs>
  <ellipse class="cls-1" cx="712.86" cy="355.89" rx="213.89" ry="37.05"/>
  <ellipse class="cls-1" cx="396.74" cy="551.35" rx="219.62" ry="37.05"/>
  <path class="cls-1" d="M177.12,546.78l2.57,450.01c47.75,19.16,126.06,43.67,225.04,44.23,83.36.47,151.2-12.69,196.42-27.7l12.38-4.27"/>
  <line class="cls-1" x1="498.98" y1="355.89" x2="498.98" y2="516.44"/>
  <line class="cls-1" x1="396.74" y1="425.8" x2="396.74" y2="551.35"/>
  <line class="cls-1" x1="712.86" y1="242.93" x2="712.86" y2="370.45"/>
  <path class="cls-1" d="M385.46,217.75c-6.3,1.92-.25,18.94-11.3,55.67-9,29.94-17.3,32.9-25.82,58.09-3.22,9.51-14.84,46.97-4.03,89.56.86,3.37,18.07,68.91,46.8,70.2,26.42,1.18,53.2-52.39,60.52-96.02,15.65-93.37-51.02-182.13-66.16-177.51Z"/>
  <path class="cls-1" d="M726.77,39.14c6.39,1.92.26,18.94,11.46,55.67,9.13,29.94,17.55,32.9,26.18,58.09,3.26,9.51,15.05,46.97,4.09,89.56-.87,3.37-18.32,68.91-47.46,70.2-26.8,1.18-53.96-52.39-61.37-96.02-15.87-93.37,51.74-182.13,67.1-177.51Z"/>
  <path class="cls-1" d="M616.36,551.35l.78,458.45c26.53-.2,140.16,10.9,221.54-5.32,33.25-6.63,59.98-14.19,85.35-23.54l2.72-1.29V355.89"/>
</svg>