<?xml version="1.0" encoding="UTF-8"?>
<svg id="Layer_1" xmlns="http://www.w3.org/2000/svg" width="1021.9" height="1062.82" viewBox="0 0 1021.9 1062.82">
  <defs>
    <style>
      .cls-1 {
        fill: none;
        stroke: #000;
        stroke-linecap: round;
        stroke-miterlimit: 10;
        stroke-width: 20px;
      }
    </style>
  </defs>
  <ellipse class="cls-1" cx="510.95" cy="531.41" rx="500.95" ry="521.41"/>
  <g>
    <path d="M777.65,523.62c0,43.44.04,86.87-.01,130.31-.1,86.09-69.55,156.32-155.52,156.64-88.29.33-176.58.35-264.86,0-85.35-.33-155.13-70.63-155.28-156.06-.16-87.44-.17-174.89,0-262.33.17-87,69.84-156.89,156.87-157.16,87.14-.28,174.29-.31,261.44,0,88.32.32,157.29,69.94,157.37,158.28.04,43.44,0,86.87,0,130.31h0ZM489.19,784.29v.59c43.15,0,86.3.17,129.45-.04,74.16-.36,132.52-57.14,133.08-130.74.67-87.45.64-174.92.02-262.37-.53-73.71-59.17-130.59-133.02-130.55-86.87.05-173.75-.07-260.62.02-70.87.08-129.78,58.52-129.94,129.15-.2,88.31-.21,176.63.01,264.94.17,67.32,53.97,125.51,121.32,128.58,46.48,2.12,93.13.41,139.7.41h0Z"/>
    <path d="M632.17,523.34c.02,77.82-64.03,141.74-142.13,141.84-78.38.1-142.49-63.87-142.66-142.33-.16-77.57,64.11-142.11,141.88-142.46,78.56-.36,142.88,63.99,142.91,142.95ZM606.17,523.62c.44-63.21-51.71-116.44-114.74-117.12-63.75-.7-117.31,51.42-117.98,114.8-.68,63.71,51.52,117.29,114.83,117.89,64.3.61,117.44-51.5,117.89-115.57h0Z"/>
    <path d="M619.61,362.18c-.05-17.51,13.33-31.33,30.56-31.56,17.43-.24,31.81,13.95,31.81,31.38s-13.77,31.48-31.61,31.28c-17.75-.2-30.7-13.3-30.75-31.09h-.01Z"/>
  </g>
</svg>