<?xml version="1.0" encoding="UTF-8"?>
<svg id="Layer_1" data-name="Layer 1" xmlns="http://www.w3.org/2000/svg" width="1080" height="1080" viewBox="0 0 1080 1080">
  <defs>
    <style>
      .cls-1 {
        fill: none;
      }

      .cls-1, .cls-2 {
        stroke-width: 0px;
      }

      .cls-2 {
        fill: #1a6f65;
      }
    </style>
  </defs>
  <path class="cls-2" d="M545.54,936.1c-38.27-38.29-75.86-75.97-113.59-113.51-3.17-3.15-3.48-5.76-1.62-9.69,25.65-54.23,51.13-108.54,76.73-162.79,7.58-16.06,20.09-26.21,38.03-26.58,18.24-.37,31.6,9.11,39.44,25.52,16.45,34.42,32.62,68.97,48.85,103.5,9.51,20.24,19.06,40.47,28.16,60.9,1.01,2.26.22,6.82-1.5,8.57-37.08,37.45-74.4,74.65-111.69,111.89-.73.72-1.62,1.28-2.8,2.19Z"/>
  <path class="cls-2" d="M973.89,568.17c-2.32,119.1-44.05,220.95-128.33,304.7-13.22,13.14-28.07,24.64-42.23,36.84-4.35,3.75-9.55,6.34-13.65.56-3.88-5.48-.16-9.72,4.46-13.22,46.9-35.46,84.51-79.02,113-130.42,23.44-42.3,39.03-87.37,46.14-135.23,12.36-83.25,1.31-163.21-35.09-239.27-41.5-86.74-105.66-151.36-191.78-194.04-48.73-24.15-100.3-37.96-154.69-40.79-124.35-6.47-230.7,34.51-318.68,122.29-55.44,55.3-91.43,121.72-108.64,198.19-20.87,92.74-10.62,182.18,29.9,267.91,28.42,60.12,69.87,110.05,122.61,150.59,1.46,1.12,3.74,2.01,4.18,3.46,1.03,3.35,2.57,7.6,1.35,10.35-2.08,4.7-6.9,4.38-10.78,1.58-5.98-4.32-11.79-8.88-17.44-13.61-65.59-54.83-112.24-122.68-136.81-204.6-27.89-92.97-25.29-185.59,9.09-276.68,34.63-91.76,94.79-162.79,177.97-214.11,58.89-36.33,123.37-56.22,192.46-60.71,97.71-6.35,187.7,17.35,268.7,72.19,72.36,48.98,125,114.55,157.66,195.84,16.63,41.39,26.04,84.41,29.04,128.86.67,9.97,1.06,19.96,1.55,29.32Z"/>
  <path class="cls-2" d="M636.95,490.72c2.54,46.14-35.95,91.98-90.76,92.51-50.21.48-91.36-41.02-91.46-91.45-.11-50.47,40.87-91.65,91.23-91.68,50.55-.03,90.66,39.92,90.99,90.63Z"/>
  <path class="cls-2" d="M806.03,762.7c-9.45,28.49-18.5,56.19-27.85,83.78-6.83,20.15-12.56,40.86-21.42,60.11-19.23,41.75-52.98,65.05-98.45,70.75-36.69,4.6-69.88-4.3-98.59-28.21-.57-.47-1-1.11-2.57-2.91,10.98-10.58,22.08-20.99,32.85-31.71,34.71-34.56,69.09-69.45,104.01-103.79,28.19-27.72,62.65-42.84,101.6-48.18,2.08-.28,4.2-.3,6.31-.33,1.03-.01,2.06.23,4.1.48Z"/>
  <path class="cls-2" d="M534.44,947.37c-12.49,11.77-26.64,19.24-41.89,24.46-54.46,18.65-114.33-.04-146.85-47.33-9.2-13.37-14.94-29.48-20.42-44.98-13.05-36.93-25.01-74.25-37.39-111.42-.49-1.48-.71-3.04-1.38-5.99,5.41.4,10.24.42,14.95,1.15,43.01,6.66,78.15,27.33,108.32,58.46,39.76,41.04,80.69,80.93,121.11,121.34,1.09,1.09,1.98,2.39,3.55,4.31Z"/>
  <path class="cls-2" d="M546.61,1069c-91.89.61-177.63-22.25-256.57-69.36-73.58-43.91-132.25-102.96-176.05-176.68-31.55-53.1-52.76-110.1-62.02-171.12-3.98-26.19-4.89-52.85-7.05-79.31-.45-5.47-.06-11.07,7.18-11.84,5.61-.6,8.69,3.94,8.79,12.27.9,72.13,16.16,141.07,47.59,206.02,39.2,80.99,96.71,146.34,171.76,196.05,57.7,38.22,120.93,62.72,189.24,73.4,98.4,15.4,193.09,2.16,283.28-40.18,70.86-33.27,129.95-81.5,177.87-143.47,45.4-58.71,76.03-124.37,90.32-197.04,5.76-29.29,6.88-59.5,10.04-89.3.3-2.87-.12-5.81.1-8.69.43-5.51,3.61-9.13,9.04-8.97,5.24.15,7.8,4.04,7.62,9.24-.48,13.4-.52,26.86-1.81,40.19-3.2,33.04-8.64,65.7-17.94,97.66-21.24,73.02-57.25,137.85-107.88,194.52-55.07,61.64-121.37,107.12-198.76,136.07-49.91,18.67-101.6,29.22-155.01,30.53-6.58.16-13.16.02-19.74.02Z"/>
  <path class="cls-2" d="M430.15,691.56c-18.25.14-30.19-5.74-39.48-16.87-56.88-68.14-113.73-136.3-170.45-204.58-3.09-3.72-6.06-8.28-7.02-12.88-2.07-9.95,2-18.08,9.62-22.35,7.73-4.33,17.29-3.3,24.96,3.09,69.4,57.84,138.82,115.66,208.09,173.65,15.26,12.77,19.76,32.72,12.58,51.68-6.35,16.76-23.42,28.28-38.3,28.25Z"/>
  <path class="cls-2" d="M620.91,648.45c-.36-16.88,5.4-28.55,16.32-37.67,65.04-54.33,130.12-108.59,195.19-162.88,4.04-3.37,8-6.83,12.12-10.1,9.16-7.29,21.16-7.24,28.81.02,8.4,7.97,9.38,19.23,1.33,29.16-17.4,21.46-35.31,42.51-53.01,63.73-40.13,48.1-80.22,96.22-120.41,144.27-12.49,14.94-32.82,20.64-49.9,14.31-19.66-7.28-30.41-22.56-30.45-40.84Z"/>
  <path class="cls-2" d="M851.28,391.43c-2.09,2.24-3.93,5.93-6.08,6.11-3.02.25-7.45-1.19-9.19-3.49-8.74-11.54-16.14-24.11-25.19-35.37-53.81-66.99-122.88-109.25-207.79-123.2-108.14-17.77-203.4,11.24-285.19,83.86-23.13,20.54-42.79,44.35-58.87,70.93-.68,1.13-1.43,2.21-2.11,3.34-2.72,4.54-6.73,6.35-11.34,3.65-4.81-2.82-4.69-7.5-1.85-11.69,8.42-12.42,16.4-25.22,25.77-36.89,54.56-67.95,124.53-111.69,210.29-127.18,115.69-20.9,218.12,8.81,305.97,87.07,23.7,21.11,43.59,45.75,60.35,72.79,1.77,2.86,3.12,5.99,5.21,10.08Z"/>
  <path class="cls-2" d="M335.78,93.92c6.98-2.79,13.04-5.25,19.12-7.64,8.91-3.5,17.67-3.89,25.03,3.15,7.81,7.46,8.4,16.49,3.42,26.92,5.98,5.2,12.1,10.53,18.72,16.29-6.95,5.53-11.43,6.82-17.17.44-9.84-10.94-10.24-10.57-22.76-3.97,1.95,5.69,3.94,11.51,6.18,18.06-3.66,1.35-6.7,2.47-10.31,3.8-7.46-19.15-14.68-37.66-22.23-57.05ZM350.55,99.29c1.37,4.09,2.29,7.09,3.38,10.04,3.99,10.77,6.37,11.37,16.24,4.84,5.17-3.41,6.43-8.63,3.51-12.9-2.15-3.15-7.29-5.31-11.35-5.77-3.49-.4-7.32,2.23-11.79,3.79Z"/>
  <path class="cls-2" d="M136.3,361.35c-17.78-10.22-35.04-20.14-53.76-30.9,5.41-7.94,9.59-16.58,16.02-22.96,10.75-10.68,24.79-10.79,37.56-2.24,11.9,7.97,16.29,21.42,11.46,35.4-.86,2.48-1.87,4.94-3.16,7.22-2.42,4.31-5.09,8.48-8.13,13.49ZM132.6,346.01c6.03-8.58,8.64-16.37,2.94-24.93-4.93-7.4-11.89-11.19-20.77-9.9-8.32,1.21-13.07,6.8-15.99,15.25,11.26,6.52,22.27,12.89,33.82,19.58Z"/>
  <path class="cls-2" d="M663.85,125.69c-8.94,1.32-11.86-2.55-12.85-9.74-1.82-13.23-2.09-13.19-16.73-14.51-1.53,5.88-3.09,11.86-4.77,18.34-3.6-.95-6.59-1.74-10.49-2.77,4.14-19.77,8.2-39.15,12.6-60.12,9.93,2.62,19.94,3.98,28.81,7.91,12.7,5.61,15.29,23.44,4.87,32.39-5,4.29-5.4,7.95-3.93,13.46,1.26,4.73,1.64,9.69,2.49,15.04ZM636.4,90.83c3.44.8,6.43,1.71,9.49,2.15,7.78,1.13,12.88-2.42,13.75-9.33.82-6.55-3.36-10.17-12.35-12.46-8.96-2.29-7.54,4.79-8.96,9.13-1.04,3.16-1.24,6.59-1.92,10.52Z"/>
  <path class="cls-2" d="M829.57,210.85c12.75-14.63,24.8-28.51,36.93-42.31,4.04-4.6,9.69-2.48,11.73,4.84,1.61,5.8,2.33,11.85,3.33,17.81.46,2.76.64,5.56,1.18,10.36,4.78-5.82,8.49-10.33,12.51-15.22,3.97,3.61,6.41,5.83,9.26,8.42-13.57,15.45-26.72,30.42-40.43,46.03-2.88-2.39-5.38-4.48-7.57-6.3,5.68-8.9,12.89-16.68,15.75-25.83,2.19-6.99-1.1-15.71-1.96-23.66-.71-.15-1.41-.31-2.12-.46-9.88,11.09-19.76,22.18-29.96,33.63-2.94-2.49-5.5-4.66-8.65-7.32Z"/>
  <path class="cls-2" d="M73.64,391.69c14.1,5.76,27.7,11.31,42.06,17.18-1.28,3.31-2.53,6.55-4.09,10.59-19.12-7.72-37.57-15.16-56.68-22.88,3.18-16.07,19.45-16.1,28.97-24.72-5.39-2.5-10.56-4.9-16.28-7.56,1.32-3.44,2.51-6.52,3.95-10.25,19.24,7.78,37.89,15.32,56.92,23.01-1.35,3.69-2.41,6.6-4.07,11.16-17.45-11.33-34.39-12.29-50.78,3.48Z"/>
  <path class="cls-2" d="M258.13,135.94c12.33,17.03,24.01,33.17,36.11,49.88-3.25,2.41-5.91,4.39-7.97,5.92-7.24-7.42-13.03-16.14-21.15-20.8-6.54-3.75-15.89-2.6-24-3.63-.3.71-.6,1.41-.9,2.12,8.68,12.05,17.37,24.09,26.37,36.58-3.12,2.28-5.79,4.24-9.16,6.71-12.22-16.78-24.06-33.04-36.25-49.78,11.83-9.75,24.92-3.21,38.15-5.07-3.38-5.04-6.48-9.68-10.13-15.12,2.76-2.1,5.57-4.24,8.94-6.81Z"/>
  <path class="cls-2" d="M54.32,515.74c-5.72-4.9-11.26-10.04-17.21-14.65-6.45-5-7.48-10.84-3.19-19.69,4.61,5.13,9,9.62,12.93,14.48,3.27,4.05,6.49,3.91,10.98,2.03,8.72-3.66,17.69-6.72,26.64-9.8,2.58-.89,5.43-.99,8.59-1.53.55,7.23-.11,11.78-7.96,13.43-7.84,1.65-15.27,5.21-23.39,8.12,5.9,11.47,15.19,15.45,27.31,15.59-.61,3.89-1.12,7.09-1.76,11.18-20.05-2.47-39.54-4.86-60.07-7.39.32-3.8.61-7.26.95-11.24,8.34.98,16.04,1.89,23.74,2.8.82-1.11,1.63-2.23,2.45-3.34Z"/>
  <path class="cls-2" d="M773.12,137.01c-6.47-3.29-12.46-6.33-19.38-9.85-4.87,9.37-9.53,18.34-14.52,27.96-3.25-1.64-6.17-3.1-9.98-5.02,9.28-18.55,18.26-36.51,27.48-54.93,3.61,1.85,6.55,3.36,9.9,5.08-2.86,6.06-5.5,11.66-8.49,18.02,6.49,3.29,12.49,6.34,19.33,9.82,3.16-5.89,6.08-11.34,9.45-17.62,3.04,1.35,6.01,2.68,10.14,4.52-9.23,18.53-18.27,36.67-27.59,55.38-3.5-1.79-6.21-3.17-9.89-5.05,4.52-9.44,8.87-18.52,13.55-28.29Z"/>
  <path class="cls-2" d="M164.89,312.41c-12.16-16.66-23.9-32.44-35.15-48.57-1.12-1.61.03-5.67,1.33-7.89,1.64-2.8,3.06-6.72,8.32-4.67,18.3,7.12,36.75,13.85,55.73,20.95-3.09,5.66-4.95,11.15-12.89,7.34-1.66-.8-5.26.73-7.02,2.27-2.71,2.38-5,5.47-6.69,8.68-1,1.89-1.55,5.61-.47,6.74,6.05,6.27,1.63,10.08-3.16,15.15ZM168.89,274.22c-8.45-3.26-15.63-6.02-22.81-8.79-.3.57-.6,1.14-.9,1.71,4.63,6.11,9.25,12.22,14.34,18.94,3.41-4.31,5.96-7.54,9.37-11.86Z"/>
  <path class="cls-2" d="M1042.12,417.52c-14.29,5-27.52,10.08-41.04,14.21-11.9,3.64-21.87-1.88-25.03-12.75-3.56-12.26,1.54-21.83,13.69-26,12.65-4.34,25.24-8.81,38.48-13.43,1.38,3.55,2.58,6.65,4.09,10.52-12.48,4.43-24.55,8.71-36.61,13.01-1.73.62-4.33.84-4.98,2.07-1.78,3.36-4.25,7.42-3.68,10.73.87,5.12,5.75,6.61,10.63,5.02,10.49-3.42,20.87-7.18,31.29-10.8,2.71-.94,5.43-1.87,9-3.1,1.31,3.31,2.52,6.35,4.17,10.51Z"/>
  <path class="cls-2" d="M606.63,114.76h-10.62c-4.15-11.41-8.35-13.97-20.71-12.4-1.52.19-3.9,1.44-4.16,2.59-1.79,7.89-6.92,8.03-14.16,5.92,2.46-6.76,4.83-13.52,7.38-20.21,4.2-11.02,8.84-21.89,12.65-33.05,1.93-5.66,5.4-5.67,10.26-5.61,5.27.07,6.49,2.65,7.39,7.04,3.79,18.42,7.87,36.79,11.96,55.71ZM575.85,92.12c4.99.51,9.38.96,14.81,1.52-1.71-9.06-3.17-16.81-4.64-24.56-.57-.04-1.15-.09-1.72-.13-2.65,7.26-5.3,14.52-8.45,23.17Z"/>
  <path class="cls-2" d="M36.84,458.22c1.27-4.08,2.24-7.2,3.41-10.96,12.87,3.39,25.04,6.56,37.18,9.82,8.02,2.15,13.21.29,14.92-5.51,1.59-5.39-2.49-9.95-10.67-12.02-11.97-3.02-23.92-6.07-36.82-9.35.92-3.76,1.73-7.11,2.71-11.11,14.49,3.81,28.3,7.04,41.85,11.13,10.89,3.28,16.04,12.86,13.63,23.34-2.55,11.1-10.63,17.68-21.97,15.57-14.65-2.73-29.01-7.07-44.24-10.9Z"/>
  <path class="cls-2" d="M523.01,101.54h22.67v9.72c-10.35.57-20.29,1.29-30.23,1.46-1.5.03-4.36-2.49-4.38-3.86-.29-18.63-.2-37.26-.2-57.11h32.17v8.88c-7.32.38-14.08.74-20.71,1.09q-2.34,8.53,14.74,9.8v7.94q-16.85,2.94-14.06,22.09Z"/>
  <path class="cls-2" d="M399.62,70.77c11.25-2.82,21.84-5.48,33.13-8.32.98,3.24,1.79,5.89,2.94,9.71-5.13,1.49-9.95,3.46-14.95,4.22-7.24,1.1-8.12,4.34-4.31,10.7,4.73-.93,9.56-1.89,15.11-2.98.78,2.63,1.54,5.24,2.5,8.48-5.36,1.76-10.23,3.36-15.71,5.16,1.76,6.7,3.38,12.91,5.1,19.44,7.68-1.88,14.5-3.56,22.3-5.47.86,3.42,1.59,6.3,2.56,10.15-11.28,2.87-22.04,5.6-33.41,8.49-5.15-20.1-10.08-39.34-15.26-59.56Z"/>
  <path class="cls-2" d="M1059.24,495.25c1.2,11.7,2.3,22.35,3.37,32.81-9.71,4.31-10.4,3.89-11.21-6.07-.19-2.35-.5-4.7-.86-7.04q-1.2-7.94-9.84-5.2c.24,4.75.48,9.62.74,14.93-3.01.52-5.5.96-8.8,1.53-.87-5.36-1.65-10.17-2.6-15.99-6.7.68-13.06,1.32-20.13,2.04.65,7.94,1.23,15.12,1.86,22.95-3.45.25-6.22.46-9.84.72-1.39-11.29-2.72-22.09-4.16-33.74,20.43-2.31,40.35-4.56,61.47-6.95Z"/>
  <path class="cls-2" d="M888.49,244.06c1.19,4.6,1.21,8.8,3.24,11.46,2.22,2.91,6.31,4.41,9.58,6.52,1.79-3.75,4.83-7.41,5.07-11.26.35-5.63-1.45-11.37-2.05-17.1-.76-7.35,2.13-12.94,9.06-15.86,7.2-3.04,14.05-1.06,18.6,4.53,4.05,4.98,6.24,11.47,10.05,18.83h-11.42c-1.67-3.48-2.75-7.13-4.96-9.86-1.36-1.67-5.1-3.24-6.61-2.49-2.02,1-4.03,4.27-4.04,6.58-.02,4.39,1.36,8.8,2.18,13.19,1.56,8.34.17,15.91-6.89,21.26-6.43,4.86-13.51,4.26-19.98.09-7.64-4.92-11.32-12.44-11.06-21.44.2-7.05,5.47-4.32,9.23-4.46Z"/>
  <path class="cls-2" d="M488.53,60.63c-1.64,2.25-3.28,4.51-4.8,6.6-3.56-.87-6.69-2.47-9.58-2.11-2.65.33-6.48,2.35-7.11,4.43-.59,1.97,1.8,5.58,3.84,7.36,2.04,1.78,5.35,2.01,7.98,3.21,8.55,3.92,16.68,8.04,16.97,19.46.2,7.86-3.07,13.19-9.88,16.45-8.91,4.26-19.58,2.04-27.98-5.9,1.45-2.22,2.97-4.55,4.71-7.23,3.52,1.48,6.85,4.06,10.11,3.96,3.96-.13,7.84-2.51,11.75-3.92-1.96-3.6-3.12-8.25-6.09-10.56-4.24-3.31-9.95-4.66-14.79-7.3-7.54-4.11-10.51-10.47-8.69-18.43,1.71-7.5,7.51-11.05,14.4-11.43,6.17-.35,12.45,1.24,18.68,1.97.16,1.14.32,2.28.48,3.43Z"/>
  <path class="cls-2" d="M736.49,88.68c-1.93,2.69-3.59,4.98-5.17,7.18-21.84-8.65-32.31-5.91-36.95,9.39-4.36,14.39,3.15,23.8,23.65,28.74-.3,2.84-.62,5.81-.93,8.67-13.89,1.86-28.15-6.6-33.14-19.3-5.35-13.6-.34-30.62,11.4-38.66,12.48-8.56,28.53-7.21,41.14,3.98Z"/>
  <path class="cls-2" d="M1021.01,361.07c-3.59,1.67-6.36,2.96-9.38,4.37-2.3-4.17-4.29-7.79-6.74-12.25-15.18,7.31-29.96,14.43-45.5,21.91-1.69-3.41-3.13-6.32-4.96-10.01,15.27-7.56,30-14.84,45.25-22.4-1.84-4.35-3.44-8.12-5.38-12.7,2.82-1.36,5.54-2.66,9.21-4.42,5.8,11.77,11.43,23.2,17.49,35.51Z"/>
  <path class="cls-2" d="M953.96,268.29c-2.6-4.16-4.8-7.67-7.28-11.63,2.5-1.88,4.77-3.59,8.13-6.11,7.65,10.53,15.14,20.84,23.17,31.89-2.75,2.03-5.37,3.95-8.43,6.21-2.86-3.62-5.42-6.88-8.62-10.93-13.5,9.64-26.88,19.2-40.99,29.28-2.16-2.84-4.14-5.45-6.8-8.96,13.76-10.02,27.21-19.82,40.82-29.74Z"/>
  <path class="cls-2" d="M1039.43,452.88c-.72-4.53-1.33-8.36-2.08-13.13,3.16-.84,6.28-1.68,9.9-2.65,2.94,12.85,5.73,25.07,8.68,37.97-3.36.94-6.28,1.75-10.07,2.81-1.16-4.49-2.17-8.44-3.5-13.59-16.5,3.5-32.73,6.95-49.74,10.56-.72-3.9-1.26-6.88-1.97-10.74,16.2-3.73,31.96-7.36,48.78-11.23Z"/>
  <path class="cls-2" d="M205.38,248.52c3.73-5.03,7.15-9.65,10.71-14.44,3.83,3.22,6.19,5.19,9.1,7.64-7.04,7.38-13.85,14.54-20.91,21.94-14.79-14.16-29.32-28.07-44.65-42.74,3.17-2.24,5.9-4.16,9.44-6.66,10.88,10.27,22.83,21.55,36.31,34.27Z"/>
  <path class="cls-2" d="M244.07,224.33c-3.1,2.96-5.5,5.24-8.36,7.97-13.85-15.53-27.21-30.51-40.93-45.89,2.73-2.89,5.02-5.3,7.9-8.35,14,15.66,27.37,30.6,41.39,46.27Z"/>
  <path class="cls-2" d="M319.4,171.05c-3.41,2.09-6.24,3.82-9.74,5.96-10.35-17.73-20.49-35.1-30.99-53.07,3.35-2.05,6.16-3.76,9.79-5.98,10.37,17.79,20.46,35.12,30.94,53.09Z"/>
  <path class="cls-2" d="M841.54,143.75c3.34,2.25,5.91,3.98,9.51,6.41-11.91,16.71-23.55,33.03-35.64,50-3.26-2.08-6.02-3.85-9.64-6.17,11.95-16.78,23.59-33.13,35.77-50.24Z"/>
  <path class="cls-2" d="M988.02,299.25c2.31,3.59,4.11,6.41,6.18,9.63-17.73,10.58-35.07,20.92-53.13,31.69-2.03-3.51-3.68-6.34-5.74-9.92,17.72-10.56,34.97-20.85,52.69-31.41Z"/>
  <path class="cls-1" d="M350.55,99.29c4.47-1.57,8.31-4.19,11.79-3.79,4.05.46,9.2,2.62,11.35,5.77,2.91,4.27,1.65,9.49-3.51,12.9-9.88,6.53-12.25,5.93-16.24-4.84-1.09-2.95-2.01-5.95-3.38-10.04Z"/>
  <path class="cls-1" d="M132.6,346.01c-11.55-6.68-22.56-13.06-33.82-19.58,2.92-8.45,7.67-14.04,15.99-15.25,8.88-1.29,15.84,2.5,20.77,9.9,5.7,8.56,3.09,16.35-2.94,24.93Z"/>
  <path class="cls-1" d="M636.4,90.83c.68-3.92.89-7.36,1.92-10.52,1.42-4.34,0-11.41,8.96-9.13,8.99,2.29,13.18,5.91,12.35,12.46-.87,6.91-5.96,10.46-13.75,9.33-3.06-.44-6.05-1.36-9.49-2.15Z"/>
  <path class="cls-1" d="M168.89,274.22c-3.41,4.32-5.96,7.55-9.37,11.86-5.08-6.71-9.71-12.83-14.34-18.94.3-.57.6-1.14.9-1.71,7.18,2.77,14.36,5.53,22.81,8.79Z"/>
  <path class="cls-1" d="M575.85,92.12c3.16-8.65,5.8-15.91,8.45-23.17.57.04,1.15.09,1.72.13,1.46,7.75,2.93,15.51,4.64,24.56-5.43-.56-9.82-1.01-14.81-1.52Z"/>
</svg>