<?xml version="1.0" encoding="UTF-8"?>
<svg id="Layer_1" data-name="Layer 1" xmlns="http://www.w3.org/2000/svg" width="1080" height="1080" viewBox="0 0 1080 1080">
  <defs>
    <style>
      .cls-1 {
        fill: #000;
      }

      .cls-1, .cls-2, .cls-3 {
        stroke: #000;
        stroke-miterlimit: 10;
      }

      .cls-1, .cls-3 {
        stroke-width: 3px;
      }

      .cls-2 {
        stroke-width: 5px;
      }

      .cls-2, .cls-3 {
        fill: none;
      }
    </style>
  </defs>
  <circle class="cls-1" cx="510.87" cy="966.31" r="49.75"/>
  <circle class="cls-1" cx="511.83" cy="856.83" r="49.75"/>
  <circle class="cls-1" cx="511.83" cy="517.43" r="49.75"/>
  <circle class="cls-1" cx="511.83" cy="73.01" r="49.75"/>
  <circle class="cls-1" cx="511.83" cy="195.01" r="49.75"/>
  <circle class="cls-1" cx="511.83" cy="353.45" r="49.75"/>
  <circle class="cls-1" cx="510.87" cy="687.74" r="49.75"/>
  <path class="cls-2" d="M521.53,1036.97c-2.38-1.12-6.66-2.01-17.02-1.74-5.45.14-9.26,1.32-12.72,2.69-3.3,1.3-3.75,2.01-3.82,2.54-.28,2.22,5.69,4.59,7.63,5.37,16.53,6.61,59.58,6.11,60.78-3.68.34-2.76-2.54-5.56-5.8-7.49-7.32-4.36-23.33-7.79-49.99-6.47-35.1,1.73-41.41,4.27-47.12,7.88-2.47,1.56-3.97,4.75,2.4,8.76,23.67,14.91,84.31,15.85,109.26,9.61,11.54-2.88,26.01-7.43,26.1-13.4.15-9.89-53.65-19.78-69.6-20.61-12.11.14-44.65-3.15-94.02,9.05-5.36,1.32-11.57,5.66-11.57,9.87,0,3.97,4.36,10.03,22,15.23,82.05,24.17,179.18,8.08,188.56-9.77"/>
  <path class="cls-3" d="M478.72,1020.14c-1.48-.72-30.17-18.44-31.65-44.29-.93-16.24,9.02-29.82,13.44-35.85,5.45-7.44,11.36-12.34,15.07-15.07,2.14-1.57,9.83-7.04,23.63-11.41,14.63-4.63,16.74-1.9,29.74-5.3,7.33-1.92,23.29-6.3,36.26-19.96,4.05-4.27,12.74-13.67,15.07-28.11.72-4.46,1.19-11.6-2.44-24.44-1.47-5.19-7.67-25.62-29.74-51.74-16.09-19.04-31.24-31-36.26-33.82-23.51-13.19-23.72-12.99-37.44-24.88-17.18-14.89-33.16-37.48-33.45-64.35-.05-4.76.15-22.94,10.59-42.37,17.06-31.74,48.66-42.97,55-45.22,13.25-4.71,13.87-1.75,25.26-6.93,6.19-2.81,30.04-13.65,39.11-39.11,4.96-13.93,3.3-26.06,2.44-31.78-3.85-25.82-20.68-42.31-30.15-51.33-12.23-11.65-12.69-7.33-36.26-24.85-35.61-26.48-42.84-42.5-44.82-47.26-2.48-5.98-6.45-15.88-5.3-28.52,1.12-12.3,10.63-25.7,23.99-44.22,17.43-24.17,23.34-32.36,33.05-40.52,2.12-1.78,6.25-5.11,8.96-11,4.22-9.17,2.46-18.98.41-25.67"/>
  <path class="cls-3" d="M543.8,1021.94c1.46-.72,30.77-20.24,32.23-46.09.92-16.24-8.87-29.82-13.23-35.85-5.36-7.44-11.18-12.34-14.83-15.07-2.11-1.57-9.67-7.04-23.25-11.41-14.39-4.63-16.47-1.9-29.26-5.3-7.21-1.92-22.92-6.3-35.67-19.96-3.99-4.27-12.53-13.67-14.83-28.11-.71-4.46-1.17-11.6,2.4-24.44,1.45-5.19,7.54-25.62,29.26-51.74,15.83-19.04,30.73-31,35.67-33.82,23.13-13.19,23.34-12.99,36.83-24.88,16.9-14.89,32.62-37.48,32.91-64.35.05-4.76-.15-22.94-10.42-42.37-16.78-31.74-47.87-42.97-54.11-45.22-13.04-4.71-13.64-1.75-24.85-6.93-6.09-2.81-29.55-13.65-38.48-39.11-4.88-13.93-3.24-26.06-2.4-31.78,3.79-25.82,20.34-42.31,29.66-51.33,12.03-11.65,12.48-7.33,35.67-24.85,35.04-26.48,42.15-42.5,44.09-47.26,2.44-5.98,6.35-15.88,5.21-28.52-1.11-12.3-10.46-25.7-23.6-44.22-17.15-24.17-22.96-32.36-32.51-40.52-2.09-1.78-6.15-5.11-8.82-11-4.15-9.17-2.42-18.98-.4-25.67"/>
  <polyline class="cls-3" points="517.39 195.01 511.83 73.01 503.23 200.48"/>
</svg>