<?xml version="1.0" encoding="UTF-8"?>
<svg id="Layer_1" data-name="Layer 1" xmlns="http://www.w3.org/2000/svg" width="1080" height="1080" viewBox="0 0 1080 1080">
  <defs>
    <style>
      .cls-1 {
        fill: none;
        stroke: #020202;
        stroke-linecap: round;
        stroke-linejoin: round;
        stroke-width: 15px;
      }
    </style>
  </defs>
  <path class="cls-1" d="M177.23,353.12v-102.38c.06-2.82.61-10.94,6.55-18.51,7.72-9.86,18.79-11.41,21.02-11.67h686.48c1.62-.17,17.94-1.6,28.86,10.93,7.67,8.81,7.92,19.06,7.9,21.88v417.4"/>
  <path class="cls-1" d="M389.87,687.83h52.5v32.81h223.14v-39.38h318.96c.87,6.57,6.77,57.72-30.42,94.56-20.93,20.73-45.31,26.82-56.21,28.82H336.05"/>
  <circle class="cls-1" cx="232.38" cy="445.59" r="58.66"/>
  <circle class="cls-1" cx="552.63" cy="371.97" r="58.66"/>
  <path class="cls-1" d="M301.33,761.4c4.76-.48,16.69-2.36,27.51-11.69,15.96-13.76,17.06-32.99,17.19-36.45v-131.36c.09-3.18.2-18.59-11.69-31.64-11.24-12.33-25.49-14.11-28.89-14.44h-143.05c-4.26.78-15.95,3.49-26.13,13.75-10.73,10.81-13.13,23.3-13.75,27.51v147.18c.72,3.76,4.08,19.1,18.57,30.26,13.81,10.64,28.64,10.49,32.64,10.32"/>
  <line class="cls-1" x1="287.58" y1="629.35" x2="287.58" y2="932.65"/>
  <line class="cls-1" x1="177.23" y1="629.35" x2="177.23" y2="932.65"/>
  <line class="cls-1" x1="231.87" y1="753.14" x2="231.87" y2="932.65"/>
  <path class="cls-1" d="M644.38,602.69v-80.01c.26-4.59.42-17.83-8.29-30.67-12.43-18.32-32.88-21.02-36.05-21.39h-102.18c-4.32.75-21.66,4.25-33.81,20.18-8.2,10.75-10.03,21.9-10.53,27.05v84.83"/>
</svg>