<?xml version="1.0" encoding="UTF-8"?>
<svg id="Layer_1" xmlns="http://www.w3.org/2000/svg" width="83.73" height="100" viewBox="0 0 83.73 100">
  <defs>
    <style>
      .cls-1 {
        fill: #1d1d1b;
      }

      .cls-2 {
        opacity: .98;
      }
    </style>
  </defs>
  <g class="cls-2">
    <g class="cls-2">
      <g>
        <path class="cls-1" d="M7.17,78.29v5.09h-.86v-5.09h.86ZM6.82,78.29h1.06c.37,0,.69.07.96.2s.49.31.64.55c.15.24.23.51.23.83s-.08.6-.23.84c-.15.24-.36.42-.64.55s-.59.2-.96.2h-1.06v-.71h1.03c.19,0,.36-.03.51-.1.15-.07.26-.17.35-.29.08-.13.12-.28.12-.46s-.04-.34-.12-.47c-.08-.13-.2-.22-.35-.29-.15-.07-.32-.1-.51-.1h-1.03v-.74ZM8.29,80.95l1.72,2.43h-1.03l-1.62-2.43h.93Z"/>
        <path class="cls-1" d="M15.84,78.29v5.09h-.84v-5.09h.84ZM15.53,78.29h2.57v.76h-2.57v-.76ZM15.53,80.28h2.42v.74h-2.42v-.74ZM15.53,82.62h2.57v.76h-2.57v-.76Z"/>
        <path class="cls-1" d="M23,78.29h3.55v.79h-1.34v4.3h-.86v-4.3h-1.34v-.79Z"/>
        <path class="cls-1" d="M32.35,78.29v3.38c0,.32.08.57.25.76.17.19.42.29.75.29s.57-.1.74-.29c.17-.19.25-.44.25-.76v-3.38h.86v3.42c0,.28-.04.53-.13.75-.09.22-.22.41-.38.56-.16.16-.36.27-.59.36s-.48.12-.75.12-.52-.04-.75-.12-.43-.2-.59-.36c-.17-.15-.29-.34-.38-.56-.09-.22-.13-.47-.13-.75v-3.42h.86Z"/>
        <path class="cls-1" d="M41.52,78.29v5.09h-.86v-5.09h.86ZM41.17,78.29h1.06c.37,0,.69.07.96.2.27.13.49.31.64.55.15.24.23.51.23.83s-.08.6-.23.84c-.15.24-.36.42-.64.55-.27.13-.6.2-.96.2h-1.06v-.71h1.03c.19,0,.36-.03.51-.1.15-.07.26-.17.34-.29.08-.13.12-.28.12-.46s-.04-.34-.12-.47-.2-.22-.34-.29c-.15-.07-.32-.1-.51-.1h-1.03v-.74ZM42.64,80.95l1.72,2.43h-1.03l-1.62-2.43h.93Z"/>
        <path class="cls-1" d="M53.91,78.29v5.34l-3.71-3.67v3.42h-.84v-5.34l3.71,3.67v-3.42h.84Z"/>
        <path class="cls-1" d="M65.43,78.29h3.55v.79h-1.34v4.3h-.86v-4.3h-1.34v-.79Z"/>
        <path class="cls-1" d="M73.5,79.78c.13-.32.32-.6.56-.83.24-.23.52-.42.84-.55.32-.13.67-.2,1.04-.2s.73.07,1.05.2c.32.13.6.31.84.55.24.24.42.51.56.83.13.32.2.67.2,1.05s-.07.73-.2,1.05c-.13.32-.32.61-.55.84-.24.24-.52.42-.84.56s-.67.2-1.06.2-.73-.07-1.05-.2c-.32-.13-.6-.32-.84-.56-.24-.24-.42-.52-.55-.84-.13-.32-.2-.68-.2-1.05s.07-.73.2-1.05ZM74.44,81.77c.15.27.35.49.61.64.26.16.56.23.89.23s.64-.08.9-.23c.26-.15.46-.37.61-.64.15-.27.22-.59.22-.93s-.07-.66-.22-.93c-.15-.27-.35-.49-.61-.64-.26-.16-.56-.23-.91-.23s-.63.08-.89.23c-.26.15-.47.37-.61.64-.15.27-.22.59-.22.93s.07.66.22.93Z"/>
      </g>
    </g>
    <g class="cls-2">
      <path class="cls-1" d="M8.93,96.49s-.13-.04-.25-.04c-.1,0-.17,0-.2,0-.04,0-.1,0-.2-.02-.1-.02-.17-.03-.2-.04s-.1-.02-.2-.04c-.1-.02-.16-.04-.19-.04-.12-.01-.25-.04-.37-.08-.04-.01-.08-.03-.12-.06s-.08-.05-.09-.06c-.03-.01-.08-.02-.15-.04s-.13-.03-.16-.06c-.06-.04-.14-.09-.24-.15-.1-.06-.2-.12-.28-.18s-.16-.11-.23-.18c-.24-.24-.39-.51-.46-.8,0,0-.01-.05-.04-.13,0-.03-.02-.07-.04-.13-.02-.06-.03-.12-.04-.16,0-.04,0-.09,0-.13.03-.24.06-.4.1-.49.05-.17.12-.3.2-.4.26-.34.57-.5.93-.49.25,0,.43.02.52.05.16.05.35.17.56.33.11.11.2.25.26.42.05.11.08.25.06.4,0,.27-.07.5-.21.68-.01.02-.03.04-.06.09-.03.04-.05.07-.06.09-.02.02-.04.04-.06.07s-.05.05-.09.07-.07.03-.11.04l-.09.04c-.08.03-.13.08-.15.16-.02.08-.01.15.04.22.12.16.28.3.47.41.19.11.38.18.59.21.15.03.27.05.36.06.04,0,.1,0,.17,0,.08,0,.13,0,.17,0h.25s.04,0,.08,0c.04,0,.07,0,.08,0,.01,0,.04,0,.07-.02s.06-.02.09-.03c.02-.01.05-.03.09-.05.03-.02.07-.04.11-.06.26-.15.42-.38.47-.7.07-.42-.07-.8-.4-1.14-.18-.21-.34-.36-.46-.42-.02-.02-.06-.05-.11-.09-.12-.12-.32-.3-.61-.55-.28-.24-.49-.44-.63-.58-.02-.04-.06-.07-.11-.09-.07-.03-.13-.07-.18-.12-.06-.05-.12-.11-.19-.18s-.13-.12-.16-.15l-.64-.63c-.37-.36-.66-.74-.87-1.17,0-.02-.02-.05-.04-.09-.02-.04-.03-.07-.04-.09s-.02-.04-.03-.08c-.01-.04-.02-.06-.03-.09s-.01-.05-.02-.08c0-.03-.01-.06-.01-.1,0-.03,0-.07,0-.1,0-.13-.02-.24-.06-.32v-.07s.04-.08.05-.13c0-.05.02-.1.02-.16s0-.1.01-.13c.1-.34.23-.63.39-.86.12-.16.28-.33.48-.5.14-.12.28-.21.41-.26.41-.19.79-.33,1.15-.4.36-.05.7-.07,1.03-.05.05,0,.12,0,.22,0,.1,0,.2,0,.28.02s.17.03.24.06c.1,0,.2.01.29.04.09.03.19.07.31.12s.2.09.27.11c.04.02.08.03.11.05.03.02.07.04.1.07s.06.05.09.06.05.04.09.08.06.06.08.08c.02.02.05.05.09.1.04.05.07.08.08.09s.04.05.09.11c.04.06.08.09.09.11.03.05.06.13.09.23.09.23.15.42.16.58.03.2.02.41-.04.61-.06.13-.1.19-.1.21-.14.36-.41.6-.8.72-.12.05-.23.06-.33.05-.24,0-.47-.06-.67-.18-.18-.11-.31-.26-.41-.47-.1-.21-.12-.43-.09-.65.04-.18.11-.34.24-.48.12-.14.26-.23.42-.26.1-.03.2-.03.29,0,.04,0,.07,0,.11-.03.04-.03.06-.06.07-.11.02-.14,0-.25-.04-.34-.05-.09-.14-.18-.28-.26-.09-.07-.22-.14-.41-.2s-.3-.1-.34-.12c-.04,0-.1-.01-.21-.02s-.19-.02-.25-.03c-.06,0-.14,0-.22,0-.09,0-.16.02-.22.04-.02,0-.04,0-.08.02-.04.01-.06.02-.07.02-.32.04-.6.22-.83.54-.02.03-.04.1-.06.21s-.04.18-.06.21c-.02.02-.02.06,0,.11.02.06.02.09.02.1.05.33.2.64.44.93.03.04.07.09.13.16.05.07.1.13.15.18.05.05.1.09.17.12.04.07.12.15.25.25.12.1.2.17.25.23.04.06.09.11.15.16.06.05.12.11.2.18.07.06.13.12.18.16.22.21.39.36.52.46l.03.04s.03.04.05.04c.07.04.15.1.24.18.09.09.16.15.2.17.07.05.15.12.25.21.1.1.16.16.2.18.04.03.18.16.41.4.43.43.69.95.8,1.56.05.32,0,.68-.13,1.08-.08.23-.21.44-.38.63-.11.11-.24.24-.4.38-.06.06-.16.12-.3.21s-.25.13-.33.16c-.37.14-.66.21-.88.22l-.14.04c-.06.03-.13.03-.22,0-.02,0-.03-.01-.05-.02-.02,0-.03,0-.05,0-.02,0-.04,0-.05,0-.04,0-.09,0-.15.01-.06.02-.11.02-.13.02Z"/>
      <path class="cls-1" d="M22.33,96.44c-.15.04-.29.03-.43-.01l-.15-.04c-.38-.01-.79-.1-1.22-.28-.04-.01-.12-.06-.26-.14-.41-.25-.69-.47-.84-.65-.17-.18-.41-.47-.73-.85-.09-.12-.17-.25-.23-.38-.05-.12-.14-.34-.26-.63-.03-.08-.05-.14-.05-.18,0-.07-.03-.19-.1-.33,0-.02-.01-.05-.02-.09-.01-.04-.02-.07-.02-.08-.03-.23-.06-.41-.08-.54-.01-.06-.02-.14-.03-.25s-.01-.19-.02-.23c-.04-.21-.04-.39.02-.54,0-.03.01-.08.01-.13.01-.48.12-.98.31-1.51.27-.68.53-1.18.78-1.5.25-.32.53-.59.84-.81.42-.29.89-.49,1.41-.61.43-.11.87-.13,1.34-.08.22.02.45.08.68.18.49.23.82.4.98.5.27.18.52.42.74.71.26.3.46.59.59.86.02.05.06.13.1.23s.08.18.1.23c0,.02.02.06.04.12.02.06.04.11.06.14.08.19.15.45.21.77.08.45.1.78.07,1,0,.27,0,.43.01.48,0,.03,0,.09-.03.18-.02.09-.02.16,0,.2-.02.09-.05.24-.09.45-.04.21-.08.37-.11.49-.23.63-.43,1.09-.61,1.39-.16.28-.33.53-.5.74-.5.56-1.12.92-1.85,1.08-.16.04-.32.06-.48.07-.06,0-.12.01-.18.04ZM22.26,95.89c.14-.01.25-.05.35-.12.12-.1.22-.19.29-.28.05-.07.09-.14.13-.21.04-.07.09-.16.13-.26.05-.1.08-.17.1-.22.02-.05.06-.14.11-.27.05-.13.08-.21.09-.23,0-.01.01-.04.01-.09,0-.06,0-.13.02-.2s.03-.14.05-.23c.02-.08.03-.15.04-.19.08-.39.12-.67.12-.84,0-.1.01-.28.03-.55s.02-.48.02-.63v-.07c0-.11,0-.27-.03-.5s-.02-.4-.02-.53c0-.11,0-.28-.04-.5-.03-.22-.04-.39-.04-.51-.03-.06-.05-.16-.07-.28-.02-.13-.03-.2-.03-.21-.03-.11-.06-.23-.1-.36-.04-.13-.09-.27-.14-.42s-.09-.27-.11-.35c-.09-.26-.25-.48-.46-.65-.12-.11-.22-.16-.3-.17-.11-.06-.25-.06-.41-.01-.01,0-.03,0-.05.01-.02,0-.04,0-.05.01-.36.24-.62.5-.77.77l-.29.59c-.07.15-.12.26-.13.34-.02.1-.06.28-.13.54-.07.26-.11.46-.12.6-.08.55-.13.94-.13,1.15,0,.02,0,.14,0,.36s-.02.38-.05.49c.04.13.05.29.05.49,0,.2,0,.37,0,.49,0,0,0,.02.01.05,0,.03.01.04.01.05.02.03.04.08.04.15,0,.07.01.11.01.12,0,.02,0,.06.03.14.02.08.02.14.02.18,0,.06.01.14.04.25.03.1.05.17.05.2,0,.02.02.06.04.1.02.04.03.07.04.08.04.15.06.27.09.34.02.08.06.16.1.26.05.1.11.19.18.27.07.09.13.16.16.22.1.16.25.3.43.42.19.14.41.2.67.19Z"/>
      <path class="cls-1" d="M35.61,96.46s-.11-.01-.19-.03c-.08-.02-.15-.03-.2-.03-.04,0-.07,0-.11-.01-.04,0-.09-.02-.14-.03-.05-.01-.09-.02-.11-.03-.22-.04-.35-.07-.39-.08-.29-.13-.53-.25-.71-.35-.44-.26-.79-.7-1.03-1.32-.18-.47-.26-.9-.23-1.27,0-.02,0-.11-.02-.25s-.01-.23,0-.25c0-.04,0-.1-.02-.17-.02-.07-.03-.11-.03-.13,0-.04,0-.09.02-.16s.02-.11.03-.13c0-.04,0-.09,0-.17-.01-.08-.01-.14,0-.19,0-.04.01-.15.01-.33,0-.65.01-1.56.01-2.72v-.42c0-.1,0-.16-.01-.18-.02-.06-.03-.15-.04-.28-.01-.13-.03-.23-.05-.3-.05-.19-.12-.32-.22-.39s-.24-.12-.45-.15c-.12,0-.2,0-.22-.01-.05-.01-.09-.04-.12-.08-.02-.05-.02-.09,0-.11.08-.11.17-.16.28-.16.14.02.25.02.32.02.01,0,.07,0,.16,0,.1,0,.15,0,.16.03.02.01.05.01.08,0,.03-.02.13-.03.31-.03.18,0,.28,0,.31,0,.29-.02.5-.02.64-.02.07,0,.18,0,.32.01.14,0,.25.01.32.01.02,0,.05,0,.08,0,.03,0,.06,0,.09,0s.06,0,.08-.02c.01-.02.06-.03.15-.03.09,0,.14,0,.15,0h.48c.07,0,.15.01.25.06.05.04.08.08.08.12s-.03.08-.09.12c-.04.03-.13.05-.29.07-.23.02-.38.13-.47.32-.04.08-.06.15-.06.22,0,.04,0,.1-.01.2-.01.1-.01.16,0,.2.01.04.01.11,0,.19-.01.08-.01.15,0,.2.03.17.02.3-.02.41-.02.02-.02.04-.01.07.02.1.03.25.03.44,0,.2-.01.42-.03.65-.01.24-.02.36-.01.38.02.2.02.41,0,.62,0,.06-.01.26-.01.6,0,.14.01.35.01.64,0,.01,0,.03,0,.07,0,.03,0,.06,0,.09,0,.02,0,.04.02.06.02.04.03.08.03.12,0,.04,0,.09,0,.15s0,.1,0,.12c0,.3,0,.47.01.53.02.12.02.25.01.38-.03.27.03.64.18,1.09.15.39.37.65.68.78.04.02.11.05.22.11.11.05.2.09.26.11.06.02.14.04.25.05.11.01.19.02.23.03.23.04.44,0,.64-.08.27-.11.46-.21.6-.3.23-.16.4-.34.5-.54.02-.03.05-.09.11-.18.05-.09.09-.16.1-.21.1-.4.15-.69.15-.87v-1.1c-.02-.07-.02-.32,0-.76.01-.44.02-.7.02-.77,0,0,0-.02,0-.08,0-.06,0-.13,0-.22,0-.08,0-.17,0-.25,0-.08,0-.16,0-.22s0-.09,0-.09c0-.02,0-.05,0-.09,0-.04,0-.08,0-.11s0-.06.01-.09c.02-.1.02-.2,0-.3l-.03-.84s0-.02.01-.05,0-.04,0-.06c-.02-.07-.04-.2-.05-.38-.01-.18-.04-.32-.08-.42-.07-.19-.12-.33-.17-.4-.08-.15-.2-.25-.36-.3-.22-.07-.47-.12-.76-.13-.09,0-.13-.03-.15-.1,0-.05,0-.09.03-.13.03-.04.06-.06.1-.07.04,0,.1-.01.18-.01h1.09c.18,0,.32-.01.45-.04.05,0,.13,0,.24,0,.11,0,.19,0,.24,0h.7c.07,0,.13,0,.16.01.06.02.1.07.11.14,0,.06-.02.1-.06.13-.09.06-.16.07-.21.06-.14-.04-.33-.01-.56.09-.18.08-.29.18-.33.3-.13.31-.19.55-.19.72,0,.43.01,1.03.01,1.83v.37s0,.05,0,.1c0,.05,0,.08,0,.1,0,.11-.01.78-.01,2.02,0,.01,0,.04,0,.1,0,.06,0,.1,0,.13s.01.07.03.1c-.02.03-.03.05-.03.08,0,.03,0,.06.01.11.01.05.02.07.02.09,0,.04,0,.09,0,.17,0,.08,0,.13,0,.17,0,.05,0,.09,0,.1s0,.05-.01.11c0,.06-.01.09-.01.11-.02.2-.02.34-.02.43-.01.05-.03.12-.05.21-.02.1-.05.17-.07.24s-.05.12-.09.18l-.15.25c-.25.43-.58.75-.98.94-.05.02-.09.04-.11.06-.03.01-.06.03-.1.04-.04.02-.07.03-.09.04-.02,0-.05.02-.11.04s-.1.03-.13.03c-.03,0-.09.02-.19.05-.1.03-.18.05-.25.06-.22.05-.58.07-1.08.05Z"/>
      <path class="cls-1" d="M52.02,96.44c-.05,0-.18-.05-.39-.13-.02-.01-.07-.03-.13-.06-.07-.03-.11-.05-.14-.06-.03-.02-.07-.04-.12-.07-.05-.03-.09-.06-.13-.09-.04-.03-.07-.07-.1-.11-.05-.05-.09-.09-.12-.14-.23-.39-.41-.84-.54-1.35-.13-.48-.22-.81-.25-1.01,0-.03-.02-.07-.04-.13-.02-.05-.04-.09-.04-.11-.05-.13-.1-.28-.13-.43-.07-.4-.19-.72-.35-.96-.07-.1-.14-.17-.22-.19s-.19-.04-.32-.02h-.14c-.07.01-.09.05-.08.11,0,.05,0,.13-.02.26-.01.12-.01.22,0,.28.01,0,.01.09,0,.26s0,.26,0,.26c.02,1.05.03,1.75.02,2.1,0,.25.07.5.22.77.03.05.08.09.15.12.32.13.55.2.68.19.01,0,.05,0,.11.03.03,0,.05.03.08.06.02.04.04.08.04.11,0,.04-.03.08-.05.11-.03.03-.06.05-.09.05-.05,0-.12.01-.22.01-.22,0-.39,0-.49-.01-.05,0-.12,0-.22,0-.1-.01-.17-.01-.21,0-.03,0-.1,0-.2,0-.1,0-.18,0-.24.01-.04,0-.11,0-.2-.01-.09-.01-.16-.02-.21-.01h-.11c-.07.03-.15.04-.23.05-.08,0-.17,0-.28,0-.11,0-.19,0-.23,0-.07,0-.18,0-.32,0s-.27,0-.39,0c-.11,0-.22.02-.32.06-.06-.02-.11-.04-.18-.04s-.13,0-.21,0c-.08,0-.13,0-.17,0,0,0-.02-.01-.04-.01-.02-.01-.05-.04-.07-.07-.02-.04-.03-.06-.03-.09,0-.05.02-.09.07-.11.21-.06.33-.09.36-.09.13,0,.24-.03.33-.09.09-.06.18-.16.28-.29.1-.16.14-.31.13-.45v-.97c0-.14,0-.25-.03-.33,0-.03,0-.08.01-.16s.02-.13.02-.16c-.03-.07-.03-.24-.02-.5.02-.26.02-.42.02-.49l-.03-1.09s0-.03.02-.05c.01-.03.02-.05.01-.06-.03-.07-.04-.15-.04-.23,0-.08,0-.18.02-.28.01-.1.02-.18.01-.24l-.05-1.8c0-.23.02-.39.05-.48,0-.01,0-.05,0-.11-.01-.06-.01-.11,0-.16-.02-.05-.03-.1-.04-.16s0-.11,0-.16c0-.05,0-.1,0-.16-.01-.15-.06-.26-.14-.35-.08-.08-.2-.13-.34-.13-.04,0-.11,0-.19-.01s-.15-.01-.2-.01h-.04s-.07-.02-.12-.06c-.05-.04-.08-.07-.07-.09.02-.07.07-.13.14-.16.05-.02.08-.02.11-.02h.19c.3-.02.59-.03.87-.03s.57,0,.89.01c.31,0,.56.02.75.02h1.08c.48-.02.85-.02,1.09,0,.69.04,1.27.21,1.75.53.33.21.58.53.73.96.06.19.1.32.1.39,0,.04,0,.09,0,.16,0,.07,0,.14,0,.19,0,.06.02.11.04.16-.02.05-.04.18-.05.37-.01.19-.06.33-.13.41-.16.39-.44.72-.83.98-.14.09-.36.19-.65.28-.29.09-.56.15-.79.18.42.06.76.23,1.03.52s.47.63.61,1.03c.09.25.16.47.19.67.05.1.11.26.17.48.06.22.11.37.16.47,0,.07.02.13.04.19.02.06.05.13.1.22s.07.14.08.18c0,0,.02.04.06.09.04.06.1.09.16.1.06,0,.12-.02.16-.08.11-.13.17-.29.17-.48.02-.05.03-.09.04-.14,0-.05.02-.1.02-.16,0-.06.01-.1.02-.13,0-.02.01-.03.02-.04.01-.01.03-.02.04-.04.02-.01.03-.02.04-.03s.03-.01.08-.01c.04.02.07.04.08.06.01.02.02.06.04.12v.07s0,.12-.01.23c0,.12-.01.2-.02.25s-.02.13-.03.23c-.01.1-.03.18-.05.24-.02.06-.05.13-.08.21-.03.08-.07.15-.12.21-.23.3-.51.5-.84.57-.25.07-.51.09-.77.07ZM48.88,91.14c.18,0,.37-.01.55-.04.11-.01.19-.03.25-.06.25-.1.48-.27.67-.52.04-.05.08-.11.12-.18.04-.07.07-.12.08-.17s.05-.11.08-.2.06-.15.07-.18c0-.08.02-.24.06-.49.04-.24.05-.42.03-.55v-.31c0-.16-.05-.39-.15-.67-.08-.23-.25-.41-.53-.54-.02-.01-.06-.03-.12-.04s-.1-.03-.12-.04c-.2-.09-.47-.1-.8-.02-.11.02-.19.09-.24.22-.05.13-.08.26-.08.41,0,.02,0,.11,0,.26,0,.15,0,.24,0,.25,0,.27,0,.55-.02.85,0,.04,0,.19-.02.45-.01.26-.01.41,0,.45,0,.03,0,.08,0,.14s0,.11,0,.14c0,.04,0,.09-.01.16-.01.07-.02.12-.01.16.02.18.02.31.01.41,0,0,0,.02,0,.04,0,.02,0,.03,0,.03,0,0,.02.01.04.01.05.02.09.03.12.01Z"/>
      <path class="cls-1" d="M62.86,96.46c-.17-.02-.32-.04-.44-.05-.19-.04-.31-.06-.38-.07-.06-.01-.14-.04-.23-.06-.09-.03-.18-.07-.28-.11-.06-.03-.17-.09-.35-.17-.18-.08-.32-.15-.4-.23-.12-.09-.18-.14-.18-.15-.16-.14-.33-.33-.52-.57-.18-.24-.33-.46-.44-.67,0-.01-.03-.05-.07-.12-.04-.06-.07-.12-.09-.17s-.04-.11-.06-.19-.03-.14-.05-.18c0-.02-.04-.11-.11-.27-.06-.16-.1-.28-.12-.37-.01-.06-.03-.17-.06-.31-.03-.14-.05-.25-.06-.33-.07-.46-.08-.9-.02-1.32-.02-.09-.02-.16-.02-.2,0-.04.02-.11.03-.2.02-.09.03-.15.03-.2,0-.08.04-.28.12-.6.01-.07.04-.17.08-.3.04-.13.07-.22.08-.27.01-.04.04-.1.1-.18s.08-.15.08-.21c0-.05.03-.12.08-.21.05-.09.08-.15.09-.19.02-.06.08-.17.19-.33,0,0,.04-.06.1-.15.06-.1.11-.17.15-.21.09-.11.19-.21.31-.31.4-.33.8-.58,1.19-.73.07-.02.11-.04.11-.04.08,0,.18-.04.32-.08.13-.05.23-.08.28-.09.19-.05.39-.07.59-.07h.3c.32-.02.71.05,1.16.21.02,0,.03,0,.04.01.01,0,.02,0,.04.01.32.11.6.28.84.52.13.13.27.31.43.54,0,.01.04.06.08.15.05.09.09.17.13.22.02.01.04.04.04.07.01.04.03.11.06.19s.04.16.06.21c.01.05.03.12.04.19.01.08.02.15.02.21,0,.13,0,.34-.02.61,0,.11-.06.31-.16.59-.02.04-.03.09-.05.13s-.05.1-.09.16c-.04.06-.06.11-.08.13-.08.13-.18.21-.29.27-.04.02-.09.05-.17.08s-.13.06-.17.08c-.05.03-.12.05-.22.05-.19.02-.44,0-.73-.08-.14-.06-.26-.15-.36-.26-.11-.08-.19-.19-.24-.33-.04-.06-.07-.12-.09-.2s-.03-.13-.03-.18c0-.04,0-.12,0-.21,0-.1,0-.16,0-.19.14-.33.29-.56.46-.68.21-.17.45-.25.72-.24h.18c.05,0,.09-.02.13-.05.04-.03.06-.08.06-.13.05-.29,0-.58-.16-.87-.14-.37-.4-.6-.77-.71-.02,0-.07-.02-.15-.05-.08-.03-.15-.05-.2-.06-.25,0-.44.02-.59.05-.43.15-.75.4-.97.77-.23.36-.38.73-.46,1.11,0,0,0,.02-.02.05-.01.03-.02.05-.02.06,0,.1-.02.28-.07.53-.05.25-.07.44-.07.56,0,.27-.03.56-.09.86h0c0,.12,0,.3.01.55,0,.25.01.43.01.53,0,.12,0,.25.02.39.01.14.03.25.04.33.01.08.03.21.07.4.03.19.05.3.06.35,0,.05.03.17.09.35.2.52.44.92.73,1.19.16.16.35.28.57.38.22.1.43.15.65.15.25.02.44,0,.59-.06.1-.04.23-.11.39-.21.22-.17.42-.39.59-.66.22-.36.37-.76.46-1.18.02-.06.03-.16.05-.3s.03-.24.05-.3c.01-.07.05-.12.1-.14.06-.03.11-.02.17,0,.06.03.08.06.08.11,0,.02,0,.05,0,.09,0,.04,0,.08,0,.11s0,.06-.01.09c-.08.66-.21,1.17-.38,1.53,0,.01-.02.03-.03.07-.01.03-.02.06-.03.07-.11.32-.28.61-.52.86-.23.24-.48.43-.76.56-.22.11-.48.19-.77.25-.33.07-.61.08-.83.03Z"/>
      <path class="cls-1" d="M72.71,96.34c-.11,0-.43-.01-.97-.01-.04,0-.08-.02-.12-.07-.03-.03-.04-.06-.02-.1.05-.13.12-.19.22-.19.12.01.25,0,.4-.02.26-.04.43-.2.5-.48,0-.01,0-.03.01-.05s.01-.04,0-.05c0-.07,0-.2.02-.4.02-.19.02-.34.01-.45-.01-.28-.01-.55,0-.83.01-.29.01-.57,0-.85,0-.29,0-.7,0-1.22.01-.53.02-.87.02-1.04,0-.19-.01-.31-.04-.37.02-.09.03-.17.03-.26,0-.09,0-.21,0-.35,0-.14,0-.23,0-.26,0-.3-.01-.74-.01-1.32,0-.21-.02-.38-.06-.48-.1-.25-.27-.39-.52-.42-.1,0-.24-.01-.42-.01-.09,0-.17-.05-.24-.14-.04-.05-.04-.1.01-.15.07-.04.17-.07.28-.08.08-.01.16-.02.24-.02.08,0,.17,0,.28,0,.11,0,.19,0,.23,0,.1,0,.23,0,.4,0,.16,0,.28,0,.35,0,.02,0,.06,0,.11-.01.05,0,.08-.01.11-.01.09.02.18.04.3.04.11,0,.21,0,.31,0s.24,0,.44-.01c.2,0,.36-.01.5-.01.21,0,.38,0,.48-.01.05,0,.13-.01.23-.01.11,0,.18,0,.23-.01.47.02.78.03.94.02h.97s.08,0,.16-.01c.08,0,.13,0,.17,0,.04,0,.09,0,.15,0s.11,0,.16,0c.04,0,.08,0,.12.02.11.03.18.13.21.31.02.1.03.24.04.42.01.19.03.33.04.42.02.12.04.28.05.5,0,.21.02.36.02.44.04.27.06.51.06.73,0,.02,0,.04,0,.06s0,.05,0,.08c0,.03,0,.05,0,.06,0,.04-.04.07-.11.08-.15.01-.25-.04-.31-.16-.03-.07-.06-.16-.09-.25-.11-.4-.31-.89-.62-1.46-.17-.32-.45-.55-.84-.69-.21-.07-.5-.13-.86-.17-.01,0-.03,0-.06,0-.03,0-.05,0-.07,0-.02,0-.04,0-.06-.02-.03,0-.07-.01-.13-.02-.06,0-.11-.01-.13-.01s-.07,0-.13.01c-.05.02-.13.03-.25.05-.04,0-.07,0-.11.02-.04.01-.07.02-.1.04-.03.01-.06.03-.1.06s-.07.04-.1.06c-.05.04-.09.11-.11.19,0,.03-.02.09-.03.19s-.03.16-.05.21c-.02.03-.02.05,0,.08.05.09.06.26.02.5-.02.11-.02.34,0,.69.02.07.02.11,0,.15-.04.07-.04.14,0,.22.03.1.04.17.02.23-.01.03-.02.06-.03.1s-.01.07,0,.11c0,.04,0,.07,0,.09,0,.02,0,.06.02.11,0,.05.01.08.02.1.01.13.02.38.02.76v.13c0,.07.03.1.08.1.4,0,.65-.02.77-.05.44-.13.75-.44.94-.93.07-.2.1-.34.09-.43,0-.03.02-.1.06-.22.06-.13.16-.18.3-.13.02,0,.05.02.07.06.02.03.02.08.02.15v.56s0,.06,0,.11c0,.05,0,.08,0,.11,0,.03,0,.06,0,.1,0,.04.02.08.04.11-.04.09-.05.23-.04.41,0,.05,0,.13,0,.23,0,.1,0,.18,0,.23,0,.04,0,.11,0,.2,0,.09,0,.16,0,.21,0,.05,0,.12,0,.22,0,.1,0,.18,0,.22v.42c0,.2,0,.35.01.45,0,.07,0,.12-.01.15-.02.05-.05.08-.07.08-.07.01-.15.01-.22,0-.04,0-.06-.02-.09-.06-.04-.08-.06-.13-.06-.16-.03-.24-.11-.54-.24-.9-.09-.21-.18-.37-.28-.48-.11-.16-.27-.24-.48-.25-.03,0-.09,0-.18,0-.09,0-.16,0-.21,0-.06,0-.11.01-.16.03-.02-.02-.05-.02-.1-.01-.05.01-.08.02-.1.01-.1-.02-.15.02-.15.13,0,.14,0,.36,0,.65,0,.29,0,.5,0,.64v.53s0,.06.02.11c.02.05.02.08.03.11,0,.03-.01.06-.04.11,0,.03,0,.07.03.13.02.06.02.11.02.15,0,.04,0,.09,0,.17s0,.13,0,.17c0,.02,0,.05,0,.1,0,.05,0,.08,0,.11s0,.06,0,.09c0,.04-.02.07-.03.1,0,.02,0,.06,0,.12s.01.1,0,.13c0,0,0,.03,0,.06s.01.06,0,.07c-.01.02-.02.04-.03.06,0,.02,0,.04,0,.06,0,.02,0,.04,0,.06s0,.03.01.06c0,.03.02.04.02.05,0,0,.01.03.03.06.02.03.02.05.02.05.02.04.05.08.09.11.04.03.07.05.1.06.03.01.08.03.14.05.06.01.12.02.18.02.09,0,.2,0,.34.01.14,0,.27.01.4.01s.25,0,.38-.02c.09-.01.18-.04.29-.08.39-.15.77-.42,1.14-.8.05-.05.08-.08.08-.08.3-.53.5-1.01.59-1.43.06-.3.09-.48.09-.54,0-.03,0-.06.01-.09,0-.03.02-.07.04-.11.02-.04.02-.07.03-.08.01-.04.05-.07.13-.08s.14,0,.21.04c.05.03.08.06.08.11,0,.02,0,.1,0,.23s0,.2-.03.22c-.02.03-.02.05-.02.07,0,.11,0,.27-.04.47-.03.21-.04.36-.04.45.02.36,0,.63-.08.81,0,.03-.01.07-.01.1s0,.08,0,.13c0,.05,0,.08,0,.11,0,.28-.03.54-.08.78-.01.05-.03.08-.04.1s-.05.02-.1.02c-.07,0-.17.01-.3.01-.12,0-.31,0-.57,0-.26,0-.49,0-.69,0-.2,0-.39.01-.57.03-.1,0-.2.01-.3.01s-.21,0-.33,0c-.12,0-.21,0-.28,0h-.74c-.18,0-.35,0-.52.01-.17,0-.34,0-.51,0-.17,0-.31-.02-.4-.03-.18,0-.46.01-.83.01-.02,0-.05,0-.09.01-.04,0-.07.01-.09.01Z"/>
    </g>
  </g>
  <g>
    <g>
      <g id="_x3C_Radial_Repeat_x3E_">
        <circle class="cls-1" cx="9.82" cy="34.17" r="2.86"/>
      </g>
      <g id="_x3C_Radial_Repeat_x3E_-2" data-name="_x3C_Radial_Repeat_x3E_">
        <circle class="cls-1" cx="35.37" cy="6.05" r="2.86"/>
      </g>
      <g id="_x3C_Radial_Repeat_x3E_-3" data-name="_x3C_Radial_Repeat_x3E_">
        <circle class="cls-1" cx="70.31" cy="20.98" r="2.86"/>
      </g>
      <g id="_x3C_Radial_Repeat_x3E_-4" data-name="_x3C_Radial_Repeat_x3E_">
        <circle class="cls-1" cx="67.65" cy="58.88" r="2.86"/>
      </g>
      <g id="_x3C_Radial_Repeat_x3E_-5" data-name="_x3C_Radial_Repeat_x3E_">
        <circle class="cls-1" cx="30.97" cy="68.79" r="2.86"/>
      </g>
    </g>
    <g>
      <g id="_x3C_Radial_Repeat_x3E_-6" data-name="_x3C_Radial_Repeat_x3E_">
        <circle class="cls-1" cx="14.92" cy="55.99" r="2.86"/>
      </g>
      <g id="_x3C_Radial_Repeat_x3E_-7" data-name="_x3C_Radial_Repeat_x3E_">
        <circle class="cls-1" cx="16.43" cy="18.02" r="2.86"/>
      </g>
      <g id="_x3C_Radial_Repeat_x3E_-8" data-name="_x3C_Radial_Repeat_x3E_">
        <circle class="cls-1" cx="52.79" cy="7.01" r="2.86"/>
      </g>
      <g id="_x3C_Radial_Repeat_x3E_-9" data-name="_x3C_Radial_Repeat_x3E_">
        <circle class="cls-1" cx="75.11" cy="37.76" r="2.86"/>
      </g>
      <g id="_x3C_Radial_Repeat_x3E_-10" data-name="_x3C_Radial_Repeat_x3E_">
        <circle class="cls-1" cx="53.38" cy="68.92" r="2.86"/>
      </g>
    </g>
    <g class="cls-2">
      <path class="cls-1" d="M68.61,33.4c-2.34-14.42-15.94-24.21-30.36-21.87-14.42,2.34-24.21,15.94-21.87,30.36,2.34,14.42,15.93,24.21,30.36,21.87,14.42-2.34,24.21-15.93,21.87-30.36ZM45.96,58.39c-1.13.19-2.26.28-3.37.28-10.07,0-18.97-7.31-20.64-17.57-1.85-11.38,5.91-22.15,17.29-24,11.37-1.86,22.15,5.9,24.01,17.29,1.85,11.38-5.91,22.15-17.29,24Z"/>
      <path class="cls-1" d="M60.13,34.89c-1.41-8.7-8.97-14.91-17.51-14.91-.94,0-1.9.08-2.86.23-3.23.52-6.06,1.95-8.41,3.9-.15.06-.32.08-.46.14-.44.19-.65.51-.71.87-3.95,3.91-6.05,9.58-5.09,15.46,1.57,9.66,10.7,16.22,20.37,14.68,9.66-1.57,16.25-10.71,14.67-20.37ZM44.69,51.14c-7.46,1.21-14.48-3.85-15.69-11.31-1-6.15,2.3-11.95,7.66-14.49,2.07-.31,4.19-.31,6.09.27,2.75.83,4.7,2.88,6.01,5.37,1.31,2.48,2.27,5.65,1.5,8.45-.83,2.98-3.5,5.4-6.62,5.67-3.13.27-6.29-1.75-7.17-4.8-.66-2.32-.08-5.45,2.17-6.7,2.57-1.42,6.58-1.12,7.94,1.85,1.2,2.61-1.84,7.93-4.81,5.2-.57-.52-.79-1.38-.65-2.14.12.31.27.61.51.87.66.68,1.72.87,2.63.7,2.33-.45,1.94-3.42.7-4.78-1.57-1.72-4.25-.85-5.53.77-1.36,1.74-1.29,4.2.05,5.92,1.35,1.75,3.81,2.4,5.85,1.59,2.05-.81,3.46-2.84,3.96-4.93,1.23-5.12-3.51-8.91-8.33-8.46-4.14.38-7.12,3.51-7.33,7.68-.23,4.73,3.09,8.81,7.72,9.69,4.77.91,9.38-2.11,11.11-6.52,1.58-4.03.18-8.83-2.02-12.35-1.08-1.73-2.44-3.09-3.99-4.1,4.84,1.47,8.69,5.52,9.56,10.85,1.21,7.46-3.85,14.48-11.31,15.69ZM43.38,37.96c-1.71-.25-.78-.33-.12-.37.06.19.12.37.12.37Z"/>
    </g>
  </g>
</svg>