<?xml version="1.0" encoding="UTF-8"?>
<svg id="Layer_1" xmlns="http://www.w3.org/2000/svg" width="100" height="27.6" viewBox="0 0 100 27.6">
  <defs>
    <style>
      .cls-1 {
        fill: #1d1d1b;
      }

      .cls-2 {
        opacity: .98;
      }
    </style>
  </defs>
  <g>
    <g class="cls-2">
      <g class="cls-2">
        <g>
          <path class="cls-1" d="M29.04,4.87v4.75h-.8v-4.75h.8ZM28.72,4.87h.99c.34,0,.64.06.9.18s.45.29.59.51c.14.22.21.48.21.78s-.07.56-.21.78c-.14.22-.34.39-.59.52s-.55.18-.9.18h-.99v-.66h.96c.18,0,.34-.03.48-.09.14-.06.25-.15.32-.27.08-.12.12-.26.12-.43s-.04-.32-.12-.43c-.08-.12-.18-.21-.32-.27-.14-.06-.3-.09-.48-.09h-.96v-.69ZM30.09,7.35l1.61,2.27h-.96l-1.51-2.27h.87Z"/>
          <path class="cls-1" d="M37.13,4.87v4.75h-.79v-4.75h.79ZM36.84,4.87h2.39v.71h-2.39v-.71ZM36.84,6.73h2.26v.69h-2.26v-.69ZM36.84,8.91h2.39v.71h-2.39v-.71Z"/>
          <path class="cls-1" d="M43.81,4.87h3.31v.74h-1.25v4.01h-.81v-4.01h-1.25v-.74Z"/>
          <path class="cls-1" d="M52.54,4.87v3.15c0,.29.08.53.23.71.16.18.39.27.7.27s.53-.09.69-.27c.16-.18.24-.41.24-.71v-3.15h.8v3.19c0,.26-.04.5-.13.7-.08.21-.2.38-.36.53-.15.15-.34.26-.55.33s-.45.12-.7.12-.49-.04-.7-.12-.4-.19-.55-.33c-.16-.14-.27-.32-.36-.53-.08-.21-.12-.44-.12-.7v-3.19h.8Z"/>
          <path class="cls-1" d="M61.09,4.87v4.75h-.8v-4.75h.8ZM60.77,4.87h.99c.34,0,.64.06.9.18.26.12.45.29.59.51.14.22.21.48.21.78s-.07.56-.21.78c-.14.22-.34.39-.59.52-.26.12-.56.18-.9.18h-.99v-.66h.96c.18,0,.34-.03.48-.09.14-.06.25-.15.32-.27.08-.12.12-.26.12-.43s-.04-.32-.12-.43-.18-.21-.32-.27c-.14-.06-.3-.09-.48-.09h-.96v-.69ZM62.14,7.35l1.61,2.27h-.96l-1.51-2.27h.87Z"/>
          <path class="cls-1" d="M72.65,4.87v4.98l-3.47-3.42v3.19h-.79v-4.99l3.47,3.43v-3.19h.79Z"/>
          <path class="cls-1" d="M83.4,4.87h3.31v.74h-1.25v4.01h-.81v-4.01h-1.25v-.74Z"/>
          <path class="cls-1" d="M90.94,6.26c.12-.3.29-.56.52-.78.22-.22.49-.39.79-.51.3-.12.62-.18.97-.18s.69.06.98.18c.3.12.56.29.78.51.22.22.4.48.52.78.12.3.18.63.18.98s-.06.68-.18.98c-.12.3-.29.57-.52.79-.22.22-.48.39-.78.52s-.63.19-.99.19-.68-.06-.98-.19c-.3-.12-.56-.3-.78-.52-.22-.22-.39-.48-.51-.79-.12-.3-.18-.63-.18-.98s.06-.68.18-.98ZM91.81,8.12c.14.26.33.46.57.6.24.15.52.22.83.22s.6-.07.84-.22c.24-.14.43-.34.57-.6.14-.26.21-.55.21-.87s-.07-.62-.2-.87c-.14-.26-.32-.46-.57-.6-.24-.15-.52-.22-.84-.22s-.59.07-.83.22c-.24.14-.44.34-.57.6-.14.26-.21.55-.21.87s.07.62.21.87Z"/>
        </g>
      </g>
      <g class="cls-2">
        <path class="cls-1" d="M30.69,21.85s-.12-.03-.24-.03c-.09,0-.16,0-.19,0-.03,0-.1,0-.19-.02-.09-.01-.15-.03-.19-.03s-.09-.02-.18-.04c-.09-.02-.15-.03-.18-.04-.12-.01-.23-.04-.34-.08-.03-.01-.07-.03-.11-.06s-.07-.05-.09-.05c-.03-.01-.07-.02-.14-.03s-.12-.03-.15-.05c-.05-.04-.13-.08-.23-.14-.1-.06-.18-.11-.27-.16s-.15-.11-.21-.16c-.22-.22-.36-.47-.43-.75,0,0-.01-.05-.03-.13,0-.03-.02-.07-.04-.13-.02-.06-.03-.11-.04-.15,0-.04,0-.08,0-.12.03-.22.06-.37.09-.46.05-.16.11-.28.19-.38.24-.32.53-.47.86-.46.24,0,.4.01.48.04.15.05.33.15.52.31.11.11.19.24.25.39.05.11.07.23.06.37,0,.26-.06.47-.19.63-.01.01-.03.04-.05.08-.02.04-.04.07-.06.09-.01.02-.03.04-.06.07s-.05.05-.08.06-.06.03-.1.04l-.09.03c-.07.03-.12.08-.14.15-.02.08-.01.14.03.2.12.15.26.28.44.38.17.1.36.17.55.19.14.03.25.05.33.05.04,0,.09,0,.16,0,.07,0,.12,0,.16,0h.23s.04,0,.08,0c.04,0,.06,0,.08,0,.01,0,.03,0,.07-.02s.06-.02.08-.03c.02-.01.05-.03.08-.04.03-.02.07-.04.11-.06.24-.14.39-.36.44-.66.06-.39-.06-.75-.37-1.07-.17-.2-.31-.33-.43-.39-.02-.01-.05-.04-.1-.09-.11-.11-.3-.28-.57-.51-.26-.23-.46-.41-.59-.54-.02-.04-.06-.07-.1-.09-.06-.03-.12-.07-.17-.11-.05-.04-.11-.1-.18-.16s-.12-.11-.15-.14l-.6-.59c-.34-.33-.61-.69-.81-1.09,0-.02-.02-.05-.04-.09-.02-.04-.03-.07-.04-.08s-.02-.04-.03-.07c-.01-.03-.02-.06-.03-.08s-.01-.05-.02-.08c0-.03-.01-.06-.01-.09,0-.03,0-.06,0-.1,0-.12-.02-.22-.05-.3v-.07s.04-.08.05-.12c0-.04.02-.09.02-.15s0-.1.01-.12c.09-.32.21-.58.36-.8.12-.15.27-.31.45-.47.13-.12.26-.2.38-.25.38-.18.74-.31,1.07-.37.33-.05.65-.07.96-.04.04,0,.11,0,.21,0,.09,0,.18,0,.26.02s.15.03.22.05c.09,0,.18.01.27.04.09.03.18.06.29.11s.19.08.25.11c.04.01.07.03.1.05.03.02.06.04.09.06s.06.04.08.06.05.04.08.07.05.06.07.07c.02.02.04.05.08.09.04.04.06.07.07.09s.04.05.08.1c.04.05.07.09.08.11.03.05.06.12.09.21.09.22.14.4.15.54.03.19.02.38-.03.57-.06.12-.09.18-.09.19-.13.34-.38.56-.75.67-.11.04-.22.06-.31.04-.23,0-.44-.06-.63-.17-.16-.1-.29-.25-.38-.44-.09-.2-.12-.4-.08-.61.03-.17.11-.32.22-.45.11-.13.25-.21.4-.24.09-.03.18-.03.27,0,.03,0,.07,0,.11-.02.04-.02.06-.06.06-.1.02-.13,0-.23-.04-.32-.05-.08-.13-.16-.26-.24-.08-.07-.21-.13-.39-.19s-.28-.09-.32-.11c-.03,0-.1-.01-.19-.02s-.17-.02-.23-.02c-.06,0-.13,0-.21,0-.08,0-.15.02-.2.04-.01,0-.04,0-.07.01-.03.01-.05.02-.07.02-.3.04-.56.2-.77.5-.02.03-.04.1-.06.2s-.03.17-.05.19c-.01.02-.01.05,0,.1.01.05.02.08.02.09.05.31.19.6.41.86.03.03.07.08.12.15.05.07.1.12.14.17.05.05.1.09.16.11.04.07.12.14.23.23.11.09.19.16.23.22.04.05.09.1.14.15.05.05.12.1.19.16.07.06.12.11.16.15.2.19.36.34.48.43l.03.04s.03.03.04.04c.06.03.14.09.22.17.09.08.15.14.19.16.06.04.14.11.23.2.09.09.15.15.18.17.04.03.16.15.38.37.4.4.65.88.75,1.45.05.3,0,.63-.13,1.01-.07.22-.19.41-.36.58-.1.1-.22.22-.37.36-.06.05-.15.11-.28.19s-.23.13-.31.15c-.35.13-.62.2-.82.2l-.13.03c-.06.03-.13.03-.2,0-.01,0-.03-.01-.04-.02-.01,0-.03,0-.05,0-.02,0-.03,0-.04,0-.04,0-.08,0-.14.01-.06.02-.1.02-.13.02Z"/>
        <path class="cls-1" d="M43.19,21.8c-.14.03-.27.03-.4-.01l-.14-.03c-.35-.01-.73-.1-1.14-.26-.03-.01-.11-.05-.25-.13-.39-.23-.65-.44-.78-.61-.16-.17-.38-.44-.68-.79-.09-.11-.16-.23-.21-.35-.05-.12-.13-.31-.25-.59-.03-.07-.04-.13-.04-.17,0-.07-.03-.17-.09-.31,0-.02-.01-.04-.02-.08-.01-.03-.02-.06-.02-.08-.03-.22-.05-.38-.08-.5-.01-.05-.02-.13-.02-.23s-.01-.17-.02-.21c-.04-.2-.03-.36.02-.5,0-.03.01-.07.01-.13.01-.44.11-.91.29-1.41.25-.64.49-1.1.73-1.4.23-.3.49-.55.79-.76.39-.27.83-.46,1.32-.57.4-.1.81-.12,1.25-.08.21.02.42.08.63.17.46.22.76.37.92.47.25.17.48.39.69.66.24.28.43.55.55.8.02.05.05.12.09.22s.07.17.09.22c0,.02.02.06.04.12.02.06.04.1.05.13.07.18.14.42.19.72.07.42.09.73.07.93,0,.25,0,.4.01.45,0,.03,0,.08-.03.17-.02.09-.02.15,0,.19-.02.08-.05.22-.09.42-.04.2-.07.35-.1.45-.21.59-.4,1.02-.57,1.3-.15.27-.31.5-.47.69-.47.52-1.05.86-1.73,1.01-.15.03-.3.05-.45.07-.06,0-.11.01-.17.03ZM43.13,21.29c.13-.01.24-.05.33-.11.12-.09.21-.18.27-.26.04-.06.09-.13.13-.19.04-.07.08-.15.12-.24.04-.09.07-.16.09-.21.02-.05.05-.13.1-.25.05-.12.07-.19.08-.22,0-.01.01-.04.01-.09,0-.06,0-.12.02-.18s.03-.13.04-.21c.02-.08.03-.14.04-.18.08-.36.11-.62.11-.78,0-.09.01-.26.02-.51s.02-.45.02-.58v-.07c0-.1,0-.25-.02-.46s-.02-.38-.02-.5c0-.1,0-.26-.03-.46-.03-.21-.04-.37-.03-.48-.03-.06-.05-.15-.07-.26-.01-.12-.02-.18-.03-.19-.03-.11-.06-.22-.1-.34-.04-.12-.08-.25-.13-.39s-.08-.25-.11-.33c-.09-.24-.23-.44-.43-.6-.12-.1-.21-.15-.28-.16-.11-.05-.23-.05-.38-.01-.01,0-.03,0-.05.01-.02,0-.04,0-.05.01-.34.23-.58.46-.72.72l-.27.55c-.07.14-.11.24-.13.32-.02.09-.06.26-.12.5-.06.24-.1.43-.11.56-.08.51-.12.87-.13,1.08,0,.02,0,.13,0,.34s-.02.35-.05.46c.03.12.05.27.05.46,0,.19,0,.34,0,.46,0,0,0,.02.01.05,0,.02,0,.04.01.05.02.03.04.08.04.14,0,.07.01.1.01.11,0,.01,0,.06.02.13.02.07.02.13.02.17,0,.06.01.13.04.23.03.09.04.16.05.19,0,.02.02.05.04.09.02.04.03.06.04.07.03.14.06.25.08.32.02.07.05.15.1.25.04.09.1.18.17.25.07.08.12.15.15.2.09.15.23.28.4.39.18.13.39.19.62.18Z"/>
        <path class="cls-1" d="M55.58,21.82s-.1-.01-.18-.03c-.08-.02-.14-.03-.19-.03-.03,0-.07,0-.11-.01-.04,0-.08-.02-.13-.03-.05-.01-.08-.02-.1-.02-.21-.04-.33-.06-.37-.08-.27-.12-.49-.23-.66-.33-.41-.24-.73-.65-.96-1.23-.17-.44-.24-.84-.21-1.19,0-.02,0-.1-.02-.23s-.01-.21,0-.24c0-.04,0-.09-.02-.16-.02-.07-.03-.11-.03-.12,0-.03,0-.08.02-.15s.02-.11.02-.12c0-.03,0-.09,0-.16-.01-.07-.01-.13,0-.18,0-.03.01-.14.01-.31,0-.61.01-1.45.01-2.54v-.39c0-.09,0-.15-.01-.17-.01-.05-.03-.14-.04-.26-.01-.12-.03-.21-.05-.28-.05-.18-.11-.3-.2-.36s-.23-.11-.42-.14c-.12,0-.18,0-.2-.01-.05-.01-.08-.04-.11-.08-.02-.05-.02-.08,0-.1.07-.1.16-.15.26-.15.13.01.23.02.3.02.01,0,.06,0,.15,0,.09,0,.14,0,.15.03.02.01.05.01.07,0,.03-.02.12-.03.29-.03.17,0,.27,0,.29,0,.27-.01.47-.02.6-.02.07,0,.16,0,.29.01.13,0,.23.01.3.01.02,0,.04,0,.07,0,.03,0,.06,0,.09,0s.05,0,.07-.02c.01-.02.06-.03.14-.02.08,0,.13,0,.14,0h.45c.07,0,.14.01.24.05.05.04.07.07.07.11s-.03.08-.08.12c-.04.03-.13.05-.27.07-.21.02-.36.12-.44.3-.04.07-.05.14-.05.2,0,.03,0,.09-.01.19-.01.09-.01.15,0,.19.01.04.01.1,0,.18-.01.08-.01.14,0,.19.03.16.02.28-.02.38-.02.02-.02.04-.01.07.02.09.03.23.02.41,0,.19-.01.39-.02.61-.01.22-.01.34-.01.35.02.19.02.38,0,.57,0,.06-.01.24-.01.56,0,.13.01.33.01.6,0,.01,0,.03,0,.06,0,.03,0,.06,0,.08,0,.02,0,.04.02.05.02.04.03.07.03.11,0,.04,0,.09,0,.14s0,.09,0,.11c0,.28,0,.44.01.49.02.11.02.23.01.35-.03.26.03.59.17,1.02.14.36.35.6.63.73.03.01.1.05.2.1.1.05.18.09.25.1.05.02.13.03.24.05.1.01.17.02.21.03.21.03.41,0,.6-.08.25-.1.43-.19.56-.28.21-.15.37-.31.47-.5.01-.03.05-.08.1-.16.05-.08.08-.15.09-.2.09-.37.14-.64.14-.81v-1.02c-.01-.06-.02-.3,0-.71.01-.41.02-.65.02-.72,0,0,0-.02,0-.08,0-.06,0-.12,0-.2,0-.08,0-.16,0-.24,0-.08,0-.15,0-.2s0-.08,0-.08c0-.02,0-.05,0-.08,0-.04,0-.07,0-.1s0-.06.01-.08c.02-.09.02-.19,0-.28l-.03-.78s0-.02.01-.04,0-.04,0-.06c-.02-.07-.03-.19-.04-.36-.01-.17-.03-.3-.07-.39-.06-.18-.11-.3-.16-.38-.08-.14-.19-.23-.33-.28-.21-.07-.44-.11-.71-.12-.08,0-.13-.03-.14-.09,0-.04,0-.08.03-.12.02-.04.06-.06.1-.07.04,0,.09-.01.17-.01h1.02c.16,0,.3-.01.42-.04.05,0,.12,0,.22,0,.1,0,.18,0,.23,0h.66c.07,0,.12,0,.15.01.06.02.09.07.1.13,0,.05-.02.1-.06.13-.08.05-.15.07-.19.05-.13-.04-.31-.01-.52.09-.16.07-.27.17-.31.28-.12.29-.18.52-.18.67,0,.4.01.97.01,1.71v.34s0,.05,0,.09c0,.04,0,.07,0,.09,0,.1-.01.73-.01,1.88,0,.01,0,.04,0,.09,0,.05,0,.09,0,.13s.01.06.03.09c-.02.03-.03.05-.03.08,0,.03,0,.06.01.1.01.04.02.07.02.08,0,.03,0,.08,0,.16,0,.07,0,.12,0,.16,0,.05,0,.08,0,.1s0,.05-.01.1c0,.05-.01.09-.01.1-.01.18-.02.32-.02.4-.01.04-.03.11-.05.2-.02.09-.04.16-.06.22s-.05.11-.08.17l-.14.23c-.24.4-.54.7-.92.87-.05.02-.08.04-.11.05-.02.01-.05.03-.09.04-.04.01-.06.03-.08.03-.01,0-.05.02-.1.03s-.1.02-.12.03c-.03,0-.09.02-.18.04-.09.02-.17.04-.24.06-.21.05-.54.06-1.01.05Z"/>
        <path class="cls-1" d="M70.89,21.8c-.05,0-.17-.04-.36-.12-.02-.01-.06-.03-.13-.05-.06-.03-.11-.05-.13-.06-.03-.01-.06-.04-.11-.06-.05-.03-.08-.06-.12-.08-.03-.03-.06-.06-.09-.1-.04-.04-.08-.09-.11-.13-.22-.36-.38-.78-.5-1.26-.12-.44-.2-.76-.23-.94,0-.03-.02-.07-.04-.12-.02-.05-.04-.09-.04-.1-.05-.12-.09-.26-.13-.4-.07-.38-.17-.67-.32-.9-.07-.09-.13-.15-.21-.18s-.17-.03-.3-.02h-.13c-.06.01-.09.04-.08.1,0,.04,0,.12-.01.24-.01.11-.01.2,0,.26.01,0,.01.09,0,.25s0,.24,0,.25c.02.98.02,1.63.02,1.96,0,.23.07.47.21.72.03.04.07.08.14.12.3.12.51.18.64.18.01,0,.04,0,.1.03.03,0,.05.02.07.06.02.04.03.07.03.1,0,.04-.02.07-.05.1-.03.03-.05.05-.09.05-.04,0-.11.01-.2.01-.21,0-.36,0-.46-.01-.05,0-.12,0-.2,0-.09-.01-.16-.01-.2,0-.03,0-.09,0-.19,0-.1,0-.17,0-.22.01-.04,0-.1,0-.19-.01-.08-.01-.15-.01-.2-.01h-.1c-.07.03-.14.04-.21.05-.08,0-.16,0-.27,0-.1,0-.18,0-.22,0-.07,0-.17,0-.3,0s-.26,0-.36,0c-.11,0-.21.02-.3.05-.05-.02-.11-.04-.16-.04s-.12,0-.19,0c-.07,0-.13,0-.16,0,0,0-.02-.01-.03-.01-.02-.01-.04-.03-.06-.07-.02-.03-.03-.06-.02-.08,0-.05.02-.08.07-.1.19-.06.31-.09.34-.09.12,0,.23-.02.31-.08.08-.06.17-.15.26-.27.09-.15.13-.29.13-.42v-.91c0-.13,0-.23-.03-.31,0-.03,0-.08.01-.15s.02-.12.02-.15c-.03-.07-.03-.22-.02-.46.01-.24.02-.4.02-.45l-.03-1.02s0-.02.02-.05c.01-.03.01-.04.01-.05-.03-.07-.04-.14-.04-.22,0-.08,0-.16.01-.26.01-.09.01-.17.01-.22l-.04-1.68c0-.22.01-.36.04-.45,0-.01,0-.04,0-.1-.01-.06,0-.11,0-.15-.02-.04-.03-.09-.04-.15s0-.11,0-.15c0-.05,0-.1,0-.15-.01-.14-.06-.25-.13-.32-.08-.08-.18-.12-.31-.13-.04,0-.1,0-.18-.01s-.14-.01-.19-.01h-.03s-.06-.02-.12-.06c-.05-.04-.07-.07-.07-.09.02-.07.06-.12.13-.15.04-.01.08-.02.1-.02h.18c.28-.02.55-.03.81-.03s.54,0,.83.01c.29,0,.52.01.7.01h1.01c.45-.01.79-.01,1.02,0,.64.04,1.19.2,1.63.49.31.2.54.5.68.9.06.18.09.3.09.37,0,.03,0,.08,0,.15,0,.07,0,.13,0,.18,0,.05.02.1.04.15-.02.05-.03.16-.05.34-.01.18-.05.3-.12.39-.15.36-.41.67-.77.92-.13.09-.33.17-.61.26-.27.08-.52.14-.74.17.39.05.71.21.96.49s.44.59.57.96c.09.23.15.44.18.63.05.09.1.24.16.45.05.2.1.35.15.44,0,.06.02.12.04.18.02.06.05.12.09.2s.07.13.08.16c0,0,.02.04.05.09.04.05.09.08.15.09.06,0,.11-.02.15-.07.11-.12.16-.27.16-.45.01-.04.03-.09.03-.13,0-.04.01-.09.02-.15,0-.05.01-.1.01-.13,0-.01.01-.03.02-.04.01-.01.02-.02.04-.04.02-.01.03-.02.04-.03s.03-.01.07-.01c.04.02.07.04.08.06.01.02.02.05.03.11v.07s0,.11-.01.22c0,.11-.01.19-.02.24s-.01.12-.03.21c-.01.09-.03.17-.05.23-.02.06-.04.12-.07.19-.03.07-.07.14-.11.19-.22.28-.48.46-.78.54-.23.07-.47.09-.72.07ZM67.97,16.86c.17,0,.34-.01.51-.03.1-.01.18-.03.24-.05.24-.09.45-.25.63-.48.04-.05.08-.1.11-.16.03-.06.06-.11.08-.16s.04-.1.07-.18.05-.14.07-.17c0-.08.02-.23.06-.45.03-.23.04-.4.02-.51v-.29c0-.15-.05-.36-.14-.63-.07-.21-.24-.38-.49-.5-.02-.01-.06-.02-.11-.04s-.09-.03-.11-.04c-.19-.08-.44-.09-.75-.02-.1.02-.18.09-.23.2-.05.12-.07.24-.07.38,0,.02,0,.1,0,.25,0,.14,0,.22,0,.23,0,.25,0,.51-.02.79,0,.04,0,.18-.02.42-.01.24,0,.39,0,.42,0,.03,0,.07,0,.13s0,.11,0,.13c0,.03,0,.08-.01.15-.01.06-.01.11-.01.15.01.16.02.29.01.38,0,0,0,.02,0,.03,0,.01,0,.02,0,.03,0,0,.01.01.03.01.04.02.08.03.11.01Z"/>
        <path class="cls-1" d="M81,21.82c-.16-.02-.29-.04-.41-.05-.18-.03-.29-.06-.35-.07-.06-.01-.13-.03-.22-.06-.08-.03-.17-.06-.26-.11-.05-.03-.16-.08-.33-.16-.17-.07-.29-.14-.37-.21-.11-.09-.17-.13-.17-.14-.15-.13-.31-.31-.48-.53-.17-.22-.31-.43-.41-.63,0-.01-.03-.05-.07-.11-.04-.06-.06-.11-.08-.16s-.04-.11-.05-.18-.03-.13-.05-.17c0-.02-.04-.1-.1-.25-.06-.15-.1-.26-.11-.34-.01-.06-.03-.16-.06-.29-.03-.13-.05-.24-.06-.31-.07-.43-.08-.84-.02-1.23-.01-.08-.02-.15-.02-.19,0-.04.01-.1.03-.18.02-.08.03-.14.03-.19,0-.08.04-.26.11-.56.01-.07.04-.16.07-.28.04-.12.06-.21.07-.25.01-.04.04-.09.09-.17s.08-.14.08-.2c0-.05.03-.11.08-.19.05-.08.08-.14.09-.18.02-.05.08-.16.18-.31,0,0,.03-.06.09-.14.06-.09.11-.15.14-.19.08-.1.18-.2.29-.29.37-.31.75-.54,1.11-.68.07-.02.1-.03.1-.03.07,0,.17-.03.3-.08.13-.04.21-.07.26-.08.18-.04.36-.07.55-.07h.28c.3-.01.66.05,1.08.19.01,0,.03,0,.04.01.01,0,.02,0,.03.01.3.1.56.26.78.48.12.12.26.29.4.5,0,.01.03.06.08.14.04.09.09.15.13.2.02.01.03.03.03.07.01.04.03.1.05.18s.04.15.05.19c.01.05.03.11.04.18.01.07.02.14.02.19,0,.12,0,.31-.02.57,0,.1-.06.29-.15.55-.01.04-.03.08-.05.12s-.05.09-.08.15c-.04.06-.06.1-.07.12-.08.12-.17.2-.27.25-.03.02-.09.04-.16.08s-.13.06-.16.08c-.04.03-.11.04-.2.04-.18.02-.41,0-.68-.08-.13-.05-.24-.14-.33-.25-.1-.08-.17-.18-.22-.31-.04-.05-.07-.12-.09-.19s-.03-.12-.03-.17c0-.04,0-.11,0-.2,0-.09,0-.15,0-.18.13-.31.27-.52.43-.64.19-.16.42-.24.67-.22h.17s.09-.02.12-.05c.03-.03.05-.07.06-.12.04-.27,0-.54-.15-.81-.13-.34-.37-.56-.72-.66-.02,0-.06-.02-.14-.05-.07-.03-.14-.05-.18-.05-.23,0-.41.02-.55.05-.4.14-.7.38-.91.72-.21.33-.36.68-.43,1.04,0,0,0,.02-.02.04-.01.03-.02.05-.02.06,0,.09-.02.26-.07.5-.05.24-.07.41-.06.52,0,.25-.03.52-.08.8h0c0,.11,0,.28.01.52,0,.23.01.4.01.49,0,.11,0,.23.02.36.01.13.02.23.04.31.01.07.03.2.06.37.03.18.05.28.06.33,0,.05.03.16.08.32.19.49.41.86.68,1.11.15.15.33.26.53.36.2.09.41.14.61.14.23.01.41,0,.55-.05.09-.04.22-.1.37-.19.21-.16.39-.36.55-.62.2-.34.35-.71.43-1.1.01-.06.03-.15.04-.28s.03-.22.04-.28c.01-.07.04-.11.1-.13.05-.02.11-.02.16,0,.05.03.08.06.08.1,0,.02,0,.05,0,.08,0,.04,0,.07,0,.1s0,.06-.01.08c-.07.62-.19,1.09-.36,1.43,0,.01-.02.03-.03.06-.01.03-.02.05-.03.06-.1.3-.26.57-.48.8-.21.22-.45.4-.71.53-.21.1-.45.18-.72.23-.31.06-.57.07-.78.03Z"/>
        <path class="cls-1" d="M90.19,21.72c-.1,0-.4-.01-.91-.01-.03,0-.07-.02-.11-.07-.03-.03-.04-.06-.02-.09.04-.12.11-.18.2-.18.11.01.23,0,.37-.02.24-.04.4-.19.47-.45,0-.01,0-.03.01-.05s.01-.04,0-.04c0-.07,0-.19.02-.37.01-.18.02-.32.01-.42-.01-.26-.01-.52,0-.78.01-.27.01-.53,0-.79,0-.27,0-.65,0-1.14.01-.49.02-.82.02-.97,0-.18-.01-.29-.03-.34.01-.08.02-.16.03-.25,0-.08,0-.19,0-.33,0-.13,0-.22,0-.25,0-.28-.01-.69-.01-1.23,0-.2-.02-.35-.05-.45-.09-.23-.25-.36-.48-.39-.09,0-.22-.01-.39-.01-.09,0-.16-.04-.22-.13-.04-.05-.03-.09.01-.14.07-.04.15-.07.26-.08.07-.01.15-.02.22-.02.07,0,.16,0,.27,0,.1,0,.18,0,.22,0,.09,0,.22,0,.37,0,.15,0,.26,0,.33,0,.02,0,.06,0,.1-.01.05,0,.08-.01.1-.01.08.02.17.04.28.04.1,0,.2,0,.29,0s.23,0,.41-.01c.18,0,.34-.01.47-.01.2,0,.35,0,.45-.01.05,0,.12-.01.22-.01.1,0,.17,0,.22-.01.44.02.73.02.87.02h.91s.08,0,.15-.01c.07,0,.12,0,.16,0,.04,0,.09,0,.14,0s.11,0,.15,0c.04,0,.08,0,.11.02.11.03.17.13.2.29.01.09.03.22.04.4.01.17.03.31.04.4.02.11.04.26.04.46,0,.2.01.34.02.41.04.25.05.48.05.68,0,.01,0,.03,0,.05s0,.05,0,.07c0,.03,0,.04,0,.05,0,.04-.04.06-.1.08-.14.01-.23-.04-.29-.15-.03-.07-.06-.15-.08-.23-.1-.38-.29-.83-.58-1.37-.16-.3-.42-.51-.79-.64-.2-.07-.46-.12-.8-.16-.01,0-.03,0-.05,0-.02,0-.05,0-.07,0-.02,0-.04,0-.05-.02-.03,0-.07-.01-.13-.02-.06,0-.1-.01-.13-.01s-.07,0-.13.01c-.05.01-.13.03-.23.04-.03,0-.07,0-.11.02-.04.01-.07.02-.09.04-.02.01-.05.03-.09.05s-.07.04-.09.05c-.05.04-.08.1-.1.18,0,.03-.02.09-.02.18s-.02.15-.05.19c-.01.03-.01.05,0,.08.05.09.05.24.02.47-.01.11-.01.32,0,.64.01.06.01.11,0,.14-.03.07-.03.13,0,.2.03.09.04.16.02.21-.01.03-.02.06-.03.09s-.01.06,0,.1c0,.04,0,.07,0,.09,0,.02,0,.05.01.1,0,.04.01.07.02.09.01.12.02.35.02.71v.12c0,.06.03.09.08.09.37,0,.61-.02.72-.05.41-.12.7-.41.87-.87.07-.19.09-.32.09-.4,0-.03.02-.09.05-.2.05-.12.15-.17.28-.13.02,0,.04.02.07.06.01.03.02.08.02.14v.52s0,.06,0,.1c0,.04,0,.08,0,.11,0,.03,0,.06,0,.1,0,.04.02.07.03.1-.04.08-.05.21-.03.38,0,.05,0,.12,0,.21,0,.09,0,.17,0,.21,0,.04,0,.1,0,.18,0,.08,0,.15,0,.19,0,.04,0,.11,0,.21,0,.09,0,.16,0,.21v.39c0,.19,0,.32.01.42,0,.07,0,.11-.01.14-.02.05-.04.07-.07.07-.07.01-.14.01-.2,0-.03,0-.06-.02-.08-.06-.04-.07-.05-.12-.05-.15-.03-.22-.1-.5-.22-.84-.08-.19-.17-.34-.26-.45-.11-.15-.26-.22-.45-.24-.03,0-.08,0-.16,0-.08,0-.15,0-.2,0-.05,0-.1.01-.15.03-.01-.02-.04-.02-.09-.01-.05.01-.08.01-.09.01-.09-.02-.14.02-.14.13,0,.13,0,.34,0,.61,0,.27,0,.47,0,.6v.49s0,.05.02.1c.01.04.02.08.02.1,0,.02-.01.06-.04.1,0,.03,0,.07.02.13.02.06.02.11.02.14,0,.03,0,.09,0,.16s0,.13,0,.16c0,.02,0,.05,0,.09,0,.04,0,.08,0,.1s0,.05,0,.09c0,.04-.02.07-.03.1,0,.02,0,.06,0,.11s.01.09,0,.12c0,0,0,.03,0,.06s.01.05,0,.07c-.01.02-.02.04-.02.06,0,.02,0,.04,0,.06,0,.02,0,.04,0,.05s0,.03.01.05c0,.02.02.04.02.05,0,0,.01.02.03.05.01.03.02.04.02.05.02.04.05.07.09.1.04.03.07.05.1.06.03.01.07.03.13.05.05.01.11.02.17.02.08,0,.19,0,.32.01.13,0,.26.01.37.01s.23,0,.36-.02c.08-.01.17-.03.27-.07.37-.14.72-.39,1.06-.75.05-.05.07-.07.07-.08.28-.5.47-.94.55-1.33.05-.28.08-.45.09-.5,0-.03,0-.05.01-.08,0-.03.02-.06.03-.1.01-.04.02-.06.03-.08.01-.04.05-.06.12-.07s.13,0,.19.04c.05.03.08.06.08.1,0,.02,0,.09,0,.21s0,.19-.02.2c-.01.03-.02.05-.02.07,0,.1,0,.25-.04.44-.03.19-.04.33-.04.42.01.33,0,.58-.07.76,0,.03-.01.06-.01.1s0,.07,0,.12c0,.04,0,.08,0,.1,0,.27-.03.51-.08.73-.01.05-.02.08-.04.09s-.05.02-.1.02c-.07,0-.16.01-.28.01-.11,0-.29,0-.53,0-.25,0-.46,0-.64,0-.18,0-.36.01-.53.02-.09,0-.18.01-.28.01s-.2,0-.31,0c-.11,0-.2,0-.26,0h-.69c-.16,0-.32,0-.48.01-.16,0-.32,0-.48,0-.16,0-.29-.02-.37-.03-.17,0-.43.01-.78.01-.02,0-.05,0-.08.01-.04,0-.06.01-.08.01Z"/>
      </g>
    </g>
    <g>
      <g id="_x3C_Radial_Repeat_x3E_">
        <circle class="cls-1" cx="2.58" cy="13.05" r=".84"/>
      </g>
      <g id="_x3C_Radial_Repeat_x3E_-2" data-name="_x3C_Radial_Repeat_x3E_">
        <circle class="cls-1" cx="10.1" cy="4.77" r=".84"/>
      </g>
      <g id="_x3C_Radial_Repeat_x3E_-3" data-name="_x3C_Radial_Repeat_x3E_">
        <circle class="cls-1" cx="20.39" cy="9.16" r=".84"/>
      </g>
      <g id="_x3C_Radial_Repeat_x3E_-4" data-name="_x3C_Radial_Repeat_x3E_">
        <circle class="cls-1" cx="19.61" cy="20.33" r=".84"/>
      </g>
      <g id="_x3C_Radial_Repeat_x3E_-5" data-name="_x3C_Radial_Repeat_x3E_">
        <circle class="cls-1" cx="8.81" cy="23.25" r=".84"/>
      </g>
    </g>
    <g>
      <g id="_x3C_Radial_Repeat_x3E_-6" data-name="_x3C_Radial_Repeat_x3E_">
        <circle class="cls-1" cx="4.08" cy="19.47" r=".84"/>
      </g>
      <g id="_x3C_Radial_Repeat_x3E_-7" data-name="_x3C_Radial_Repeat_x3E_">
        <circle class="cls-1" cx="4.52" cy="8.29" r=".84"/>
      </g>
      <g id="_x3C_Radial_Repeat_x3E_-8" data-name="_x3C_Radial_Repeat_x3E_">
        <circle class="cls-1" cx="15.24" cy="5.05" r=".84"/>
      </g>
      <g id="_x3C_Radial_Repeat_x3E_-9" data-name="_x3C_Radial_Repeat_x3E_">
        <circle class="cls-1" cx="21.81" cy="14.1" r=".84"/>
      </g>
      <g id="_x3C_Radial_Repeat_x3E_-10" data-name="_x3C_Radial_Repeat_x3E_">
        <circle class="cls-1" cx="15.41" cy="23.28" r=".84"/>
      </g>
    </g>
  </g>
  <g class="cls-2">
    <path class="cls-1" d="M19.89,12.82c-.69-4.25-4.69-7.13-8.94-6.44-4.25.69-7.13,4.69-6.44,8.94.69,4.25,4.69,7.13,8.94,6.44,4.25-.69,7.13-4.69,6.44-8.94ZM13.22,20.18c-.33.05-.66.08-.99.08-2.97,0-5.59-2.15-6.08-5.17-.54-3.35,1.74-6.53,5.09-7.07,3.35-.55,6.53,1.74,7.07,5.09.55,3.35-1.74,6.53-5.09,7.07Z"/>
    <path class="cls-1" d="M17.4,13.26c-.42-2.56-2.64-4.39-5.16-4.39-.28,0-.56.02-.84.07-.95.15-1.78.57-2.48,1.15-.04.02-.09.02-.14.04-.13.05-.19.15-.21.26-1.16,1.15-1.78,2.82-1.5,4.56.46,2.85,3.15,4.78,6,4.32,2.85-.46,4.79-3.15,4.32-6ZM12.85,18.05c-2.2.36-4.27-1.13-4.62-3.33-.29-1.81.68-3.52,2.26-4.27.61-.09,1.23-.09,1.79.08.81.24,1.38.85,1.77,1.58.39.73.67,1.66.44,2.49-.24.88-1.03,1.59-1.95,1.67-.92.08-1.85-.51-2.11-1.42-.2-.68-.02-1.61.64-1.97.76-.42,1.94-.33,2.34.54.35.77-.54,2.33-1.42,1.53-.17-.15-.23-.41-.19-.63.03.09.08.18.15.26.19.2.51.26.78.21.69-.13.57-1.01.21-1.41-.46-.51-1.25-.25-1.63.23-.4.51-.38,1.24.01,1.74.4.51,1.12.71,1.72.47.6-.24,1.02-.84,1.17-1.45.36-1.51-1.03-2.62-2.45-2.49-1.22.11-2.1,1.03-2.16,2.26-.07,1.39.91,2.6,2.27,2.86,1.4.27,2.76-.62,3.27-1.92.47-1.19.05-2.6-.59-3.64-.32-.51-.72-.91-1.18-1.21,1.43.43,2.56,1.63,2.82,3.2.36,2.2-1.13,4.27-3.33,4.62ZM12.46,14.16c-.5-.07-.23-.1-.04-.11.02.06.03.11.04.11Z"/>
  </g>
</svg>