<?xml version="1.0" encoding="UTF-8"?>
<svg id="Layer_1" data-name="Layer 1" xmlns="http://www.w3.org/2000/svg" width="1080" height="1080" viewBox="0 0 1080 1080">
  <defs>
    <style>
      .cls-1 {
        stroke: #000;
        stroke-miterlimit: 10;
      }

      .cls-1, .cls-2 {
        fill: #000;
      }

      .cls-2 {
        stroke-width: 0px;
      }
    </style>
  </defs>
  <g>
    <path class="cls-2" d="M913.25,625.11c-54.82,0-99.43-44.6-99.43-99.43s44.6-99.42,99.43-99.42,99.42,44.6,99.42,99.42-44.6,99.43-99.42,99.43Z"/>
    <path class="cls-2" d="M913.25,426.76c54.55,0,98.93,44.38,98.93,98.93s-44.38,98.93-98.93,98.93-98.93-44.38-98.93-98.93,44.38-98.93,98.93-98.93M913.25,425.76c-55.19,0-99.93,44.74-99.93,99.93s44.74,99.93,99.93,99.93,99.93-44.74,99.93-99.93-44.74-99.93-99.93-99.93h0Z"/>
  </g>
  <path class="cls-2" d="M141.1,435.76c49.58,0,89.93,40.34,89.93,89.93s-40.34,89.93-89.93,89.93-89.93-40.34-89.93-89.93,40.34-89.93,89.93-89.93M141.1,425.76c-55.19,0-99.93,44.74-99.93,99.93s44.74,99.93,99.93,99.93,99.93-44.74,99.93-99.93-44.74-99.93-99.93-99.93h0Z"/>
  <path class="cls-1" d="M522.64,823.95c41.64-.76,99.93,39.52,99.93,99.93,0,68.47-70.4,91.6-99.17,90.08"/>
  <path class="cls-1" d="M527.18,229.75c-41.64.76-99.93-39.52-99.93-99.93,0-68.47,70.4-91.6,99.17-90.08"/>
  <g>
    <path class="cls-2" d="M793.89,902.17c-1-1.25-6.93-8.7-16.5-21-22.61-29.07-28.66-68.15-28.66-72.37,0-22.26,4.56-41.54,13.56-57.29,11.5-20.13,38.5-37.77,40.58-39.11,23.91.58,47.29,9.68,64.17,24.99,19.01,17.24,29.06,40.88,29.06,68.38s-10.87,50.62-30.62,68.78c-19.31,17.76-44.73,27.56-71.59,27.62Z"/>
    <path class="cls-2" d="M803.01,712.91c23.74.61,46.94,9.66,63.69,24.85,18.9,17.14,28.9,40.66,28.9,68.01s-10.82,50.34-30.46,68.41c-19.16,17.62-44.36,27.37-71.01,27.49-1.35-1.69-7.18-9.02-16.35-20.81-22.52-28.96-28.56-67.86-28.56-72.06,0-22.17,4.54-41.36,13.49-57.04,11.25-19.69,37.44-37,40.29-38.85M802.73,711.91s-28.77,18.17-40.88,39.36c-7.51,13.15-13.63,31.79-13.63,57.53,0,5.87,6.99,44.67,28.77,72.67,10.6,13.63,16.65,21.2,16.65,21.2,55.19,0,102.95-41.71,102.95-96.9,0-59.25-46.64-92.79-93.87-93.87h0Z"/>
  </g>
  <g>
    <path class="cls-2" d="M801.08,338.96c-23.91-.58-47.29-9.68-64.17-24.99-19.01-17.24-29.06-40.88-29.06-68.38s10.87-50.62,30.62-68.78c19.31-17.76,44.73-27.56,71.59-27.62,1,1.25,6.93,8.7,16.5,21,22.61,29.07,28.66,68.15,28.66,72.37,0,22.26-4.56,41.54-13.56,57.28-11.5,20.13-38.5,37.77-40.58,39.11Z"/>
    <path class="cls-2" d="M809.82,149.69c1.35,1.69,7.18,9.02,16.35,20.81,22.52,28.96,28.56,67.86,28.56,72.06,0,22.17-4.54,41.36-13.49,57.04-11.25,19.69-37.44,37-40.29,38.85-23.74-.61-46.94-9.66-63.69-24.85-18.9-17.14-28.9-40.66-28.9-68.01s10.82-50.34,30.46-68.41c19.16-17.62,44.36-27.37,71.01-27.49M810.3,148.69c-55.19,0-102.95,41.71-102.95,96.9,0,59.25,46.64,92.79,93.87,93.87,0,0,28.77-18.17,40.88-39.36,7.51-13.15,13.63-31.79,13.63-57.53,0-5.87-6.99-44.67-28.77-72.67-10.6-13.63-16.65-21.2-16.65-21.2h0Z"/>
  </g>
  <path class="cls-1" d="M252.38,895.86c27.25,0,81.46-25.18,86.3-83.27,3.03-36.34-17.81-60.6-21.2-65.1-20.33-27.05-54.5-33.31-65.1-33.31,0,0,39.93,38.52,40.88,89.33.99,53.12-40.88,92.36-40.88,92.36Z"/>
  <path class="cls-1" d="M240.57,157.02c-27.25,0-81.46,25.18-86.3,83.27-3.03,36.34,17.81,60.6,21.2,65.1,20.33,27.05,54.5,33.31,65.1,33.31,0,0-39.93-38.52-40.88-89.33-.99-53.12,40.88-92.36,40.88-92.36Z"/>
</svg>