<?xml version="1.0" encoding="UTF-8"?>
<svg id="Layer_1" data-name="Layer 1" xmlns="http://www.w3.org/2000/svg" width="1080" height="1080" viewBox="0 0 1080 1080">
  <defs>
    <style>
      .cls-1 {
        fill: #b2533e;
        stroke-width: 0px;
      }
    </style>
  </defs>
  <path class="cls-1" d="M680.86,910.99c128.44-50.66,213.84-139.46,252.16-277.92-43.96,23.1-85.1,34.34-129.58,33.54-104.01-1.88-198.45-73.97-224.92-172.85-28.49-106.42,15.36-216.6,107.74-270.7,149.06-87.3,336.07,4.4,359.69,175.32,22.23,160.86-21.62,298.86-139.56,411.38-57.29,54.65-126.15,88.77-203.81,104.75-5.95,1.22-12.07,1.58-18.11,2.33-1.2-1.95-2.41-3.9-3.61-5.85Z"/>
  <path class="cls-1" d="M131.83,911.09c128.52-50.68,214.03-138.98,251.1-272.89-29.6,8.99-56.3,20.2-84.11,25.02-125.87,21.82-250.02-63.38-272.58-185.37C1.55,344.32,81.31,222.02,210.89,194.71c132.31-27.89,259.45,58.17,284.12,192.3,36.19,196.82-49.36,387.71-219.7,481.67-38.47,21.22-83.07,31.38-124.93,46.39-4.03,1.45-8.66,1.33-13.04,1.6-.78.05-1.66-1.59-5.51-5.58Z"/>
</svg>