<?xml version="1.0" encoding="UTF-8"?>
<svg id="Layer_1" xmlns="http://www.w3.org/2000/svg" width="1080" height="1080" viewBox="0 0 1080 1080">
  <path d="M537.83,1066.17c-1.9-20.15-3.68-40.31-5.71-60.44-7.52-74.7-13.32-149.69-31.72-222.8-5.5-21.86-12.9-43.35-20.87-64.47-20.43-54.16-60.56-88.94-112.49-111.61-46.78-20.42-96.34-30.52-146.43-37.57-66.88-9.42-134-17.09-201.02-25.53-1.39-.17-2.74-.58-4.29-3.05,11.69-1.2,23.4-2.21,35.05-3.65,72.62-8.99,145.45-16.63,217.74-27.8,30.99-4.79,61.61-14.92,91.04-26.18,68.27-26.14,112.34-74.3,130.39-146.62,14.76-59.14,23.73-119.07,31.2-179.35,5.8-46.77,11.24-93.59,17.19-143.35,1.74,4.25,2.83,5.86,3.03,7.57,7.74,65.2,13.78,130.66,23.61,195.55,6.98,46.08,17.63,91.76,29.2,136.97,19,74.25,70.36,115.56,142.24,135.72,55.81,15.65,112.74,24.43,170.03,31.6,52.75,6.6,105.56,12.75,158.68,21.39-8.44,1.14-16.88,2.36-25.33,3.42-72.63,9.13-145.39,17.34-217.83,27.79-30.09,4.34-59.68,12.76-89.17,20.56-55.01,14.55-92.13,51.09-118.58,99.74-21.7,39.93-33.76,83.31-40.4,127.79-11.8,79.09-21.55,158.49-32.16,237.77-.3,2.21-.56,4.42-.83,6.64-.86-.03-1.71-.06-2.57-.09Z"/>
</svg>