<?xml version="1.0" encoding="UTF-8"?>
<svg id="Layer_1" data-name="Layer 1" xmlns="http://www.w3.org/2000/svg" width="1080" height="1080" viewBox="0 0 1080 1080">
  <defs>
    <style>
      .cls-1 {
        fill: none;
        stroke: #020202;
        stroke-linecap: round;
        stroke-linejoin: round;
        stroke-width: 15px;
      }
    </style>
  </defs>
  <path class="cls-1" d="M703.63,170.37h91.58c6.21.62,36.48,4.28,58.08,30.7,15.99,19.56,18.35,40.74,18.83,48.61v310.01h-68.7l-1.81-203.72H144.92l-3.64,438.65,430.78-.27v73.69H133.29c-2.71.57-26.57,5.2-45.21-11.38-12.78-11.37-15.55-25.98-16.22-30.5V228.16c.87-7.16,3.67-21.29,14.44-34.24,21.96-26.4,57.13-23.88,60.92-23.55h77.67"/>
  <path class="cls-1" d="M296.08,170.37h344.24"/>
  <path class="cls-1" d="M291.61,95.9v136.67c-1.01,3.53-3.53,10.4-9.89,15.7-12.35,10.29-33.68,10.03-44.78-1.74-5.6-5.95-7.11-13.24-7.56-17.45V95.9c-.68-17.62,13.43-32.42,30.59-32.7,17.54-.29,32.33,14.68,31.64,32.7Z"/>
  <path class="cls-1" d="M702.55,104.03v129.72c-1.01,3.35-3.53,9.87-9.89,14.9-12.35,9.77-33.68,9.52-44.78-1.66-5.6-5.64-7.11-12.57-7.56-16.56v-126.41c-2.13-19.08,12.75-34.94,29.08-35.87,17.51-1,35.23,15.25,33.15,35.87Z"/>
  <rect class="cls-1" x="204.89" y="418.12" width="128.06" height="131.61"/>
  <rect class="cls-1" x="407.96" y="418.12" width="128.06" height="131.61"/>
  <rect class="cls-1" x="607.4" y="418.12" width="128.06" height="131.61"/>
  <rect class="cls-1" x="404.17" y="608.99" width="128.06" height="131.61"/>
  <rect class="cls-1" x="204.89" y="608.99" width="128.06" height="131.61"/>
  <circle class="cls-1" cx="828.49" cy="810.02" r="201.03"/>
  <path class="cls-1" d="M807.4,686.4v123.62c-2.48,8.91,3.18,17.32,9.49,22.95,5.8,5.17,9.52,6.24,11.6,6.23h100.62c14.08-5.05,22.91-18.75,21.58-32.8-1.14-12.08-9.62-22.6-21.58-26.76h-69.06v-93.23c-2.97-11.99-13.67-20.52-25.9-20.72-12.54-.2-23.72,8.42-26.76,20.72Z"/>
</svg>