<?xml version="1.0" encoding="UTF-8"?>
<svg id="Layer_1" data-name="Layer 1" xmlns="http://www.w3.org/2000/svg" width="1080" height="1080" viewBox="0 0 1080 1080">
  <defs>
    <style>
      .cls-1 {
        fill: #fff;
        font-family: Times-Roman, Times;
        font-size: 200px;
      }

      .cls-2 {
        fill: none;
        stroke: #fff;
        stroke-miterlimit: 10;
        stroke-width: 15px;
      }
    </style>
  </defs>
  <g>
    <g>
      <path class="cls-2" d="M688.98,609.63c0,93.46-75.64,169.23-168.94,169.23s-168.94-75.77-168.94-169.23c0-55.53,28.97-109.03,73.97-139.98,9.81-6.75,46.04-30.94,94.97-29.25,75.53,2.61,168.94,66.49,168.94,169.23Z"/>
      <path class="cls-2" d="M425.08,469.66l-20.79-9.46c-10.15-3.32-34.74-9.66-59.97,1.14-16.53,7.08-26.57,18.62-34.27,27.46-4.69,5.39-9.31,11.58-26.84,44.63-15.89,29.95-19.72,39.22-25.47,46.66-1,1.29-2.41,2.9-4.23,4.84-21.21,22.63-47.52,21.5-47.37,27.01.15,5.54,26.48,2.91,47.37,24.54,1.52,1.57,2.45,2.7,4.23,4.84,11.07,13.34,13.99,22.33,25.47,46.65,9.06,19.2,15.07,30.21,24.48,41.79.58.71,1.32,1.63,2.36,2.84,4.71,5.47,16.95,19.7,34.27,27.46,26.24,11.76,52.51,3.49,59.97,1.14,9.13-2.87,16.17-6.64,20.79-9.46"/>
      <path class="cls-2" d="M613.75,753.11l14.44,6.74c10.12,3.42,34.65,10,59.98-.56,16.6-6.91,26.76-18.36,34.54-27.12,4.75-5.35,9.42-11.48,27.28-44.36,16.18-29.79,20.1-39.03,25.93-46.4,1.01-1.28,2.44-2.87,4.27-4.79,21.43-22.42,47.72-21.03,47.63-26.54-.1-5.54-26.45-3.17-47.12-25-1.5-1.59-2.43-2.72-4.18-4.88-10.94-13.45-13.77-22.46-25.02-46.9-8.87-19.29-14.77-30.35-24.07-42.03-.57-.71-1.31-1.64-2.34-2.86-4.66-5.52-16.76-19.86-34-27.8-26.12-12.02-52.47-4.01-59.96-1.73-9.15,2.78-16.24,6.48-20.88,9.25"/>
      <polygon class="cls-2" points="378.81 527.97 659.8 529.76 520.05 774.13 378.81 527.97"/>
    </g>
    <circle class="cls-2" cx="520.84" cy="614.84" r="347.22"/>
  </g>
  <text class="cls-1" transform="translate(223.37 207.28)"><tspan x="0" y="0">Clarity</tspan></text>
</svg>