<?xml version="1.0" encoding="UTF-8"?>
<svg id="Layer_1" data-name="Layer 1" xmlns="http://www.w3.org/2000/svg" width="1080" height="1080" viewBox="0 0 1080 1080">
  <defs>
    <style>
      .cls-1 {
        fill: none;
        stroke: #020202;
        stroke-linecap: round;
        stroke-linejoin: round;
        stroke-width: 15px;
      }
    </style>
  </defs>
  <circle class="cls-1" cx="540.34" cy="581.1" r="173.54"/>
  <path class="cls-1" d="M522.13,474.38v106.71c-2.14,7.69,2.74,14.95,8.19,19.81,5.01,4.46,8.22,5.39,10.01,5.37h86.86c12.16-4.36,19.78-16.19,18.63-28.32-.99-10.43-8.3-19.51-18.63-23.1h-59.61v-80.48c-2.56-10.35-11.8-17.72-22.36-17.88-10.82-.17-20.47,7.27-23.1,17.88Z"/>
  <g>
    <path class="cls-1" d="M135.1,600.68c-4.26-31.93-9.81-106.49,26.81-189.55,40.63-92.18,124.43-159.17,151.31-176.04v70.4"/>
    <line class="cls-1" x1="239.32" y1="235.09" x2="313.21" y2="235.09"/>
  </g>
  <g>
    <path class="cls-1" d="M776.49,235.38c27.83,16.21,90.13,57.55,133.3,137.4,47.9,88.61,49.44,195.89,46.29,227.47l-55.61-43.17"/>
    <line class="cls-1" x1="1001.38" y1="541.88" x2="956.08" y2="600.25"/>
  </g>
  <g>
    <path class="cls-1" d="M776.49,927.46c-26.37,18.49-89.98,57.78-180.57,63.57-100.53,6.43-198.6-37.07-225.96-53.15l62.48-32.45"/>
    <line class="cls-1" x1="404" y1="1003.47" x2="369.95" y2="937.89"/>
  </g>
  <circle class="cls-1" cx="544.23" cy="168.62" r="48.93"/>
  <path class="cls-1" d="M129.89,808.1c-.84-31.58,25.81-56.35,54.37-54.37,26.13,1.81,48.05,25.61,47.12,54.37"/>
  <line class="cls-1" x1="46.52" y1="873.34" x2="313.21" y2="873.34"/>
  <line class="cls-1" x1="114.13" y1="939.76" x2="247.48" y2="939.76"/>
  <line class="cls-1" x1="74.43" y1="811.14" x2="42.82" y2="811.14"/>
  <line class="cls-1" x1="106.05" y1="733.97" x2="83.54" y2="710.39"/>
  <line class="cls-1" x1="183.22" y1="702.36" x2="183.22" y2="670.74"/>
  <line class="cls-1" x1="257.71" y1="733.97" x2="279.68" y2="710.39"/>
  <line class="cls-1" x1="288.25" y1="811.14" x2="322.01" y2="811.14"/>
  <path class="cls-1" d="M821.57,803.46c4.66-54.88,46.76-84.7,53.08-89.01,51.82-35.4,117.97-20.63,119.23-12.25.73,4.88-20.87,5.28-43.28,25.32-6.62,5.91-37.16,33.22-33.48,72.68,2.99,32.06,27.39,59.55,53.9,67.78,31.38,9.74,59.71-9.38,65.33,0,4.2,7.01-8.22,23.31-19.6,33.48-29.52,26.37-87.71,43.26-137.19,14.7-39.93-23.05-61.73-68.51-57.98-112.7Z"/>
  <line class="cls-1" x1="544.23" y1="60.16" x2="544.23" y2="27.42"/>
  <line class="cls-1" x1="620.08" y1="93.93" x2="644.13" y2="70.39"/>
  <line class="cls-1" x1="649.76" y1="168.62" x2="684.54" y2="168.62"/>
  <line class="cls-1" x1="618.04" y1="242.79" x2="644.13" y2="269.91"/>
  <line class="cls-1" x1="544.23" y1="273.49" x2="544.23" y2="311.86"/>
  <line class="cls-1" x1="469.68" y1="242.79" x2="443.59" y2="267.86"/>
  <line class="cls-1" x1="437.97" y1="171.17" x2="402.16" y2="171.17"/>
  <line class="cls-1" x1="469.68" y1="93.93" x2="443.59" y2="67.84"/>
</svg>