<?xml version="1.0" encoding="UTF-8"?>
<svg id="Layer_1" data-name="Layer 1" xmlns="http://www.w3.org/2000/svg" viewBox="0 0 960.82 961.16">
  <defs>
    <style>
      .cls-1 {
        fill: #000;
        stroke-width: 0px;
      }
    </style>
  </defs>
  <path class="cls-1" d="M960.79,481.92c0,72.48.07,144.96-.02,217.44-.17,143.66-116.06,260.84-259.5,261.38-147.32.55-294.64.58-441.96.01C116.89,960.2.45,842.89.2,700.34c-.26-145.91-.28-291.82,0-437.73C.49,117.44,116.73.82,261.95.36c145.41-.46,290.83-.51,436.24.02,147.37.53,262.46,116.71,262.59,264.11.06,72.48.01,144.96.01,217.44ZM479.45,916.88c0,.33,0,.66,0,.99,72,0,144.01.29,216.01-.06,123.74-.6,221.12-95.35,222.06-218.16,1.12-145.93,1.07-291.87.03-437.8-.88-122.99-98.74-217.9-221.96-217.84-144.96.08-289.92-.12-434.88.04-118.26.13-216.55,97.65-216.82,215.5-.33,147.36-.35,294.73.02,442.09.28,112.34,90.06,209.43,202.44,214.55,77.55,3.53,155.4.68,233.11.68Z"/>
  <path class="cls-1" d="M718.03,481.44c.04,129.85-106.85,236.52-237.17,236.68-130.78.16-237.76-106.58-238.04-237.49-.27-129.43,106.98-237.13,236.74-237.72,131.08-.6,238.42,106.77,238.47,238.53ZM674.66,481.91c.73-105.47-86.29-194.29-191.46-195.43-106.38-1.16-195.74,85.8-196.87,191.56-1.13,106.31,85.96,195.72,191.61,196.71,107.29,1.01,195.97-85.93,196.71-192.84Z"/>
  <path class="cls-1" d="M697.08,212.53c-.08-29.22,22.24-52.27,50.99-52.67,29.08-.4,53.08,23.27,53.08,52.36,0,29.79-22.98,52.53-52.75,52.19-29.62-.33-51.23-22.19-51.31-51.88Z"/>
</svg>