<?xml version="1.0" encoding="UTF-8"?>
<svg id="Layer_1" data-name="Layer 1" xmlns="http://www.w3.org/2000/svg" width="1080" height="1080" viewBox="0 0 1080 1080">
  <defs>
    <style>
      .cls-1 {
        fill: #000;
        stroke-width: 0px;
      }
    </style>
  </defs>
  <path class="cls-1" d="M561.77,1018.59c-3.83-4.85-7.68-9.51-11.29-14.36-75.63-101.53-147.2-205.76-210.01-315.82-31.95-55.98-61.85-112.93-83.77-173.76-12.85-35.67-21.13-72.24-21.26-110.25-.14-41.74,8.54-81.79,26.46-119.52,28.5-60.01,67.76-111.33,124.7-146.99,65.91-41.29,138.11-56.68,215.23-47.7,73.8,8.59,137.65,39.19,189.95,91.79,67.94,68.33,101.31,151.03,96.53,247.93-1.64,33.23-12.71,64.4-24.47,95.23-27.68,72.55-65.22,140.08-105.08,206.42-57.34,95.45-120.59,186.89-187.22,276.03-2.39,3.2-5,6.24-7.55,9.32-.42.5-1.06.82-2.22,1.69ZM719.95,414.88c-.01-86.85-70.3-157.7-156.51-157.76-88.18-.06-158.6,69.7-158.95,157.46-.34,86.61,71.48,158.43,157.98,157.99,86.98-.44,157.49-71.04,157.48-157.69Z"/>
</svg>