<?xml version="1.0" encoding="UTF-8"?>
<svg id="Layer_1" xmlns="http://www.w3.org/2000/svg" width="1080" height="1080" viewBox="0 0 1080 1080">
  <defs>
    <style>
      .cls-1 {
        fill: #fff;
      }
    </style>
  </defs>
  <path class="cls-1" d="M558.57,1072.84c-4.38-5.56-8.79-10.89-12.93-16.43-86.58-116.23-168.51-235.56-240.42-361.56-36.57-64.08-70.81-129.28-95.9-198.93-14.71-40.84-24.19-82.7-24.34-126.22-.16-47.78,9.78-93.63,30.3-136.83,32.63-68.71,77.58-127.45,142.75-168.28C433.49,17.32,516.14-.29,604.43,9.98c84.48,9.83,157.59,44.87,217.45,105.08,77.78,78.23,115.98,172.9,110.51,283.84-1.88,38.05-14.55,73.73-28.02,109.02-31.69,83.06-74.66,160.36-120.29,236.31-65.65,109.27-138.05,213.96-214.33,316.01-2.74,3.66-5.73,7.14-8.65,10.67-.48.58-1.21.94-2.55,1.94ZM739.66,381.71c-.01-99.43-80.48-180.53-179.18-180.6-100.95-.07-181.57,79.79-181.96,180.26-.39,99.15,81.83,181.37,180.86,180.87,99.57-.5,180.3-81.33,180.28-180.53Z"/>
</svg>