<?xml version="1.0" encoding="UTF-8"?>
<svg id="Layer_1" xmlns="http://www.w3.org/2000/svg" width="1080" height="1080" viewBox="0 0 1080 1080">
  <defs>
    <style>
      .cls-1 {
        fill: none;
        stroke: #fff;
        stroke-miterlimit: 10;
        stroke-width: 15px;
      }
    </style>
  </defs>
  <path class="cls-1" d="M608.36,1035.1c-4.2-5.33-8.43-10.44-12.39-15.76-83.03-111.46-161.6-225.89-230.56-346.72-35.07-61.45-67.9-123.97-91.96-190.76-14.11-39.16-23.2-79.31-23.34-121.04-.16-45.82,9.38-89.79,29.05-131.22,31.29-65.89,74.39-122.22,136.89-161.37,72.36-45.33,151.62-62.22,236.29-52.37,81.02,9.43,151.12,43.03,208.53,100.77,74.59,75.02,111.22,165.81,105.97,272.19-1.8,36.48-13.95,70.7-26.87,104.54-30.39,79.65-71.6,153.78-115.36,226.61-62.95,104.78-132.38,205.18-205.53,303.04-2.63,3.51-5.49,6.85-8.29,10.23-.46.55-1.16.9-2.44,1.86ZM782.01,372.33c-.01-95.35-77.18-173.12-171.82-173.19-96.81-.07-174.12,76.52-174.5,172.86-.37,95.08,78.47,173.93,173.44,173.45,95.49-.48,172.89-77.99,172.88-173.12Z"/>
</svg>