<?xml version="1.0" encoding="UTF-8"?>
<svg id="Layer_1" xmlns="http://www.w3.org/2000/svg" width="100" height="32.9" viewBox="0 0 100 32.9">
  <defs>
    <style>
      .cls-1 {
        fill: #1d1d1b;
      }

      .cls-2 {
        opacity: .98;
      }
    </style>
  </defs>
  <g class="cls-2">
    <g class="cls-2">
      <g>
        <path class="cls-1" d="M3.61,4.27v6.7h-1.13v-6.7h1.13ZM3.15,4.27h1.4c.48,0,.91.09,1.27.26s.64.41.84.72c.2.31.3.67.3,1.1s-.1.79-.3,1.1c-.2.31-.48.56-.84.73s-.78.26-1.27.26h-1.4v-.93h1.35c.25,0,.48-.04.67-.13.19-.09.35-.22.45-.39.11-.17.16-.37.16-.61s-.05-.45-.16-.61c-.11-.17-.26-.29-.45-.38-.19-.09-.42-.13-.67-.13h-1.35v-.98ZM5.09,7.78l2.27,3.2h-1.36l-2.13-3.2h1.22Z"/>
        <path class="cls-1" d="M15.03,4.27v6.7h-1.11v-6.7h1.11ZM14.62,4.27h3.38v.99h-3.38v-.99ZM14.62,6.89h3.19v.98h-3.19v-.98ZM14.62,9.98h3.38v.99h-3.38v-.99Z"/>
        <path class="cls-1" d="M24.45,4.27h4.67v1.04h-1.77v5.66h-1.14v-5.66h-1.76v-1.04Z"/>
        <path class="cls-1" d="M36.77,4.27v4.45c0,.42.11.75.33,1,.22.25.55.38.98.38s.75-.13.98-.38c.22-.25.33-.58.33-1v-4.45h1.13v4.5c0,.37-.06.7-.18.99-.12.29-.29.54-.5.74-.22.2-.48.36-.78.47s-.63.16-.99.16-.69-.05-.99-.16-.56-.26-.78-.47c-.22-.2-.39-.45-.5-.74-.11-.29-.17-.62-.17-.99v-4.5h1.13Z"/>
        <path class="cls-1" d="M48.84,4.27v6.7h-1.13v-6.7h1.13ZM48.38,4.27h1.4c.48,0,.91.09,1.27.26.36.17.64.41.84.72.2.31.3.67.3,1.1s-.1.79-.3,1.1c-.2.31-.48.56-.84.73-.36.17-.78.26-1.27.26h-1.4v-.93h1.35c.25,0,.48-.04.67-.13.19-.09.35-.22.45-.39.11-.17.16-.37.16-.61s-.05-.45-.16-.61-.26-.29-.45-.38c-.2-.09-.42-.13-.67-.13h-1.35v-.98ZM50.31,7.78l2.27,3.2h-1.36l-2.13-3.2h1.23Z"/>
        <path class="cls-1" d="M65.15,4.27v7.03l-4.89-4.83v4.5h-1.11V3.94l4.89,4.83v-4.5h1.11Z"/>
        <path class="cls-1" d="M80.31,4.27h4.67v1.04h-1.77v5.66h-1.14v-5.66h-1.76v-1.04Z"/>
        <path class="cls-1" d="M90.95,6.24c.17-.42.42-.79.73-1.1.32-.31.69-.55,1.11-.72.42-.17.88-.26,1.37-.26s.97.09,1.39.26c.42.17.79.41,1.11.72.32.31.56.67.73,1.1.17.42.26.88.26,1.39s-.09.96-.26,1.39c-.17.43-.42.8-.73,1.11-.31.31-.68.56-1.11.73s-.89.26-1.39.26-.96-.09-1.39-.26c-.43-.18-.8-.42-1.1-.73-.31-.31-.55-.68-.72-1.11-.17-.43-.26-.89-.26-1.39s.09-.97.26-1.39ZM92.18,8.85c.19.36.46.64.81.85.34.2.74.31,1.18.31s.84-.1,1.18-.31c.34-.2.61-.49.8-.85.19-.36.29-.77.29-1.23s-.1-.87-.29-1.23c-.19-.36-.46-.64-.8-.85-.34-.2-.74-.31-1.19-.31s-.83.1-1.18.31c-.34.2-.61.49-.81.85-.2.36-.29.77-.29,1.23s.1.87.29,1.23Z"/>
      </g>
    </g>
    <g class="cls-2">
      <path class="cls-1" d="M5.93,28.24c-.06-.03-.17-.05-.33-.05-.13,0-.22,0-.27,0-.05,0-.14,0-.27-.02-.13-.02-.22-.04-.26-.05s-.13-.03-.26-.06c-.13-.03-.21-.05-.25-.06-.16-.02-.33-.05-.49-.11-.05-.02-.1-.04-.16-.08s-.1-.07-.12-.08c-.04-.02-.1-.03-.2-.05s-.17-.04-.21-.08c-.08-.05-.18-.12-.32-.2-.14-.08-.26-.16-.37-.23s-.21-.15-.3-.23c-.31-.31-.51-.67-.6-1.06,0,0-.02-.06-.05-.18-.01-.04-.03-.09-.05-.18-.03-.08-.04-.15-.05-.21-.01-.06-.01-.11,0-.17.04-.31.08-.53.13-.65.07-.22.16-.4.26-.53.34-.45.75-.66,1.22-.65.33,0,.56.02.68.06.22.07.46.22.74.44.15.15.26.33.35.56.07.15.1.32.08.52,0,.36-.09.66-.27.9-.02.02-.04.06-.07.12-.03.06-.06.1-.08.12-.02.03-.05.06-.08.09s-.07.07-.11.09-.09.04-.15.06l-.12.05c-.1.04-.17.11-.2.21-.03.11-.02.2.05.29.16.21.37.39.62.54.25.14.51.23.78.27.2.04.36.07.47.08.05,0,.13,0,.23,0,.1,0,.17,0,.22,0h.33s.05,0,.11,0c.05,0,.09,0,.11-.01.02,0,.05-.01.09-.02s.08-.02.11-.04c.03-.02.07-.04.11-.06.04-.02.09-.05.15-.08.34-.2.55-.5.62-.93.09-.55-.09-1.05-.52-1.5-.24-.28-.44-.47-.6-.56-.03-.02-.08-.06-.14-.12-.16-.16-.43-.4-.8-.72-.37-.32-.65-.58-.83-.77-.03-.05-.08-.09-.15-.12-.09-.04-.17-.09-.24-.15-.07-.06-.16-.14-.25-.23s-.17-.16-.21-.2l-.85-.83c-.48-.47-.86-.98-1.14-1.54-.01-.03-.03-.07-.05-.12-.03-.06-.04-.1-.05-.12s-.02-.06-.04-.1c-.02-.05-.03-.08-.04-.12s-.02-.07-.03-.11c-.01-.04-.02-.08-.02-.13,0-.04,0-.09,0-.14,0-.17-.03-.31-.08-.42v-.09c.03-.05.05-.11.07-.17.01-.06.02-.13.03-.21s.01-.14.02-.17c.13-.45.3-.83.51-1.13.16-.22.38-.44.63-.66.18-.16.36-.28.54-.35.54-.26,1.04-.43,1.51-.52.47-.07.92-.09,1.36-.06.06,0,.16,0,.29.01.13,0,.26.01.37.02s.22.04.32.07c.13,0,.26.02.38.05.12.04.26.09.41.16s.27.12.35.15c.05.02.1.04.14.07.04.03.09.06.13.09s.08.06.12.08.07.06.12.1.08.08.1.1c.02.02.06.07.11.13.05.06.09.1.1.12s.06.07.12.14c.06.07.1.13.12.15.04.07.08.17.12.3.12.3.19.56.21.76.04.27.03.54-.05.8-.08.16-.13.25-.13.27-.19.48-.54.79-1.06.95-.16.06-.31.08-.44.06-.32,0-.61-.08-.89-.24-.23-.14-.41-.35-.54-.62-.13-.28-.16-.56-.11-.86.05-.24.15-.45.31-.64.16-.18.35-.3.56-.34.13-.04.26-.04.38,0,.05.01.1,0,.15-.04.05-.03.08-.08.09-.14.03-.18.01-.33-.05-.45-.07-.12-.19-.23-.36-.34-.11-.1-.29-.19-.54-.27s-.4-.13-.45-.16c-.05,0-.14-.02-.27-.03s-.25-.03-.33-.03c-.08,0-.18,0-.29,0-.11,0-.21.02-.29.05-.02,0-.05,0-.1.02-.05.02-.08.03-.09.03-.42.05-.78.29-1.09.71-.03.04-.06.14-.08.28s-.05.24-.07.27c-.02.03-.02.07,0,.15.02.07.03.12.03.13.07.44.26.84.58,1.22.04.05.1.12.17.21.07.1.14.18.2.24.06.07.14.12.22.16.06.09.16.2.32.33.16.13.27.23.32.3.06.07.12.14.2.21.08.07.16.15.26.23.1.09.17.15.23.2.29.27.51.47.68.6l.04.05s.04.05.06.05c.09.05.19.13.31.24.12.12.21.19.27.23.09.06.2.16.33.28.13.13.22.21.26.24.05.04.23.22.54.52.56.56.91,1.24,1.06,2.05.07.42.01.89-.18,1.42-.1.3-.27.58-.5.83-.14.14-.31.31-.52.5-.08.07-.21.16-.4.27s-.33.18-.44.21c-.49.18-.87.28-1.16.29l-.18.05c-.08.04-.18.04-.29,0-.02-.01-.04-.02-.06-.02-.02,0-.04,0-.07-.01-.03,0-.05,0-.06-.01-.05-.01-.12,0-.2.02-.08.02-.14.03-.18.03Z"/>
      <path class="cls-1" d="M23.58,28.17c-.2.05-.38.04-.56-.02l-.19-.05c-.5-.02-1.04-.14-1.61-.36-.05-.02-.16-.08-.35-.18-.55-.33-.91-.61-1.1-.86-.22-.24-.54-.61-.96-1.12-.12-.16-.22-.32-.3-.49-.07-.16-.19-.44-.35-.83-.04-.1-.06-.18-.06-.24,0-.1-.04-.24-.13-.44,0-.03-.02-.06-.03-.11-.02-.05-.03-.09-.03-.11-.04-.3-.08-.54-.11-.71-.02-.08-.03-.19-.03-.33s-.02-.24-.03-.3c-.06-.28-.05-.51.03-.71,0-.04.02-.1.02-.18.02-.63.15-1.29.41-1.99.35-.9.69-1.56,1.03-1.97.32-.42.69-.78,1.11-1.07.55-.38,1.17-.65,1.86-.81.56-.14,1.15-.18,1.76-.11.29.03.59.11.89.24.64.3,1.07.52,1.3.66.35.24.68.55.98.93.34.4.6.77.78,1.13.03.07.07.17.13.31s.1.24.13.31c0,.03.03.08.05.16.03.08.05.14.08.18.1.25.19.59.27,1.01.1.59.13,1.03.09,1.31,0,.35,0,.56.02.63,0,.04,0,.12-.04.24-.03.12-.03.21,0,.26-.03.12-.07.32-.12.59-.05.28-.1.49-.15.64-.3.83-.57,1.44-.8,1.84-.22.38-.44.7-.66.98-.66.74-1.48,1.21-2.44,1.42-.21.05-.42.08-.63.09-.08,0-.16.02-.24.05ZM23.48,27.44c.18-.02.33-.07.46-.15.16-.13.29-.25.38-.36.06-.09.12-.18.18-.27.06-.09.11-.21.17-.34.06-.13.1-.23.13-.29.03-.06.07-.18.14-.35.06-.17.1-.27.12-.31.01-.02.02-.06.02-.12,0-.08,0-.17.02-.26s.04-.19.06-.3c.03-.11.04-.19.05-.25.11-.51.16-.88.16-1.1,0-.13.02-.37.03-.72s.03-.63.03-.83v-.09c0-.14-.01-.36-.03-.66s-.03-.53-.03-.7c0-.14-.01-.36-.05-.66-.04-.29-.05-.52-.05-.67-.04-.08-.07-.21-.09-.37-.02-.17-.03-.26-.04-.27-.04-.15-.08-.31-.14-.47-.05-.17-.12-.35-.19-.56s-.12-.36-.15-.46c-.12-.34-.32-.63-.6-.85-.16-.14-.3-.21-.39-.22-.15-.07-.33-.08-.54-.02-.02,0-.04.01-.07.02-.03,0-.05.01-.07.02-.48.32-.81.66-1.01,1.01l-.38.77c-.1.2-.16.34-.18.45-.03.13-.08.37-.17.71-.09.34-.14.6-.16.79-.11.72-.17,1.23-.18,1.52,0,.03,0,.19,0,.47s-.02.5-.07.64c.05.16.07.38.07.65,0,.27,0,.48.01.65,0,.01.01.03.02.07,0,.03.01.05.02.07.03.04.05.11.06.2,0,.09.01.15.02.16,0,.02.01.08.03.19.02.1.03.18.03.24,0,.08.02.19.06.32.04.13.06.22.07.26,0,.03.02.07.05.13.03.05.05.09.05.1.05.2.08.35.11.45.03.1.07.22.14.35.06.13.14.25.24.36.1.11.17.21.21.29.13.22.32.4.57.56.25.18.54.26.88.25Z"/>
      <path class="cls-1" d="M41.06,28.19c-.06,0-.14-.01-.25-.04-.11-.03-.2-.04-.27-.04-.05,0-.1,0-.15-.02-.05-.01-.11-.02-.18-.04-.07-.02-.12-.03-.15-.04-.29-.05-.47-.09-.52-.11-.39-.17-.7-.32-.93-.46-.58-.34-1.03-.92-1.36-1.74-.24-.62-.34-1.18-.3-1.67,0-.03,0-.14-.03-.33s-.01-.3.01-.33c.01-.06,0-.13-.02-.22-.03-.09-.04-.15-.04-.17,0-.05,0-.11.03-.2s.03-.15.03-.17c.01-.05,0-.12-.01-.23-.02-.11-.02-.19,0-.25.01-.05.02-.19.02-.44.01-.85.02-2.05.02-3.59v-.56c0-.13,0-.21-.02-.24-.02-.08-.04-.2-.06-.37-.02-.17-.04-.3-.07-.39-.07-.25-.16-.42-.29-.51s-.32-.16-.59-.2c-.16,0-.26,0-.29-.02-.07-.02-.12-.05-.15-.11-.03-.07-.03-.12,0-.15.1-.14.22-.22.36-.22.18.02.33.03.42.03.02,0,.09,0,.21,0,.13,0,.2,0,.21.04.03.02.06.02.1,0,.04-.03.17-.04.41-.04.24,0,.37,0,.41,0,.38-.02.66-.03.84-.03.09,0,.23,0,.42.02.19.01.32.02.42.02.03,0,.06,0,.1.01.04,0,.08.01.12.01s.07,0,.1-.02c.02-.03.08-.04.2-.04.12,0,.18,0,.2,0h.63c.09-.01.2.02.33.08.07.05.1.1.1.15s-.04.11-.12.16c-.05.04-.18.07-.38.09-.3.03-.5.17-.62.42-.05.1-.08.2-.08.29,0,.05,0,.13-.02.26-.02.13-.02.22,0,.26.02.06.02.14,0,.25-.02.11-.02.2,0,.27.04.22.03.4-.03.54-.03.03-.03.06-.02.09.03.13.04.32.03.59,0,.26-.02.55-.03.86-.02.31-.02.48-.02.5.03.27.03.54,0,.81-.01.08-.02.34-.02.79.01.18.02.46.02.84,0,.02,0,.05,0,.09,0,.04,0,.08,0,.11,0,.03.01.06.03.08.03.05.04.11.04.16,0,.06,0,.12,0,.2s0,.13,0,.16c0,.39,0,.62.02.69.03.16.03.32.02.49-.04.36.04.84.24,1.43.2.51.49.85.89,1.03.05.02.14.07.29.14.14.07.26.12.35.15.08.03.19.05.33.07.14.02.24.03.3.04.3.05.58.01.84-.11.35-.14.61-.27.79-.39.3-.21.52-.44.66-.71.02-.04.07-.12.14-.23.07-.11.12-.21.13-.28.13-.52.19-.91.19-1.15v-1.44c-.02-.09-.02-.42,0-1.01.02-.58.02-.92.02-1.01,0,0,0-.03,0-.11,0-.08,0-.17,0-.29,0-.11,0-.22,0-.33,0-.11,0-.21,0-.29s0-.12,0-.12c0-.03,0-.07,0-.12,0-.05,0-.1,0-.15s0-.08.02-.12c.03-.13.03-.26,0-.39l-.04-1.1s0-.03.02-.06.01-.06,0-.08c-.03-.1-.05-.27-.06-.51-.02-.24-.05-.42-.1-.55-.09-.25-.16-.43-.22-.53-.11-.2-.26-.33-.47-.4-.29-.1-.62-.15-.99-.17-.11,0-.18-.04-.19-.13,0-.06,0-.12.04-.17.03-.05.08-.08.14-.09.05-.01.13-.02.24-.02h1.43c.23,0,.43-.02.59-.05.07,0,.17,0,.31.01.14,0,.25.01.32.01h.93c.1,0,.17,0,.21.02.08.03.13.09.15.19,0,.08-.03.14-.08.18-.12.07-.21.1-.27.08-.19-.06-.44-.02-.74.12-.23.1-.38.23-.44.39-.17.41-.25.73-.25.95,0,.56.02,1.36.02,2.41v.49s0,.07,0,.13c0,.06,0,.1,0,.13-.01.14-.02,1.03-.02,2.65,0,.02,0,.06,0,.13,0,.07,0,.13,0,.18s.02.09.04.13c-.03.04-.04.07-.04.11,0,.04,0,.08.02.14.02.06.02.1.02.11,0,.05,0,.12,0,.22,0,.1,0,.18,0,.23,0,.07,0,.11,0,.14s0,.07-.02.15c-.01.07-.02.12-.02.14-.02.26-.03.45-.03.57-.02.06-.04.16-.07.28-.03.13-.06.23-.09.31s-.07.16-.11.24l-.2.33c-.33.57-.77.98-1.3,1.23-.07.03-.12.06-.15.07-.03.02-.08.04-.13.06-.05.02-.09.04-.11.05-.02.01-.07.03-.15.05s-.14.04-.17.04c-.04,0-.12.03-.25.06-.13.03-.24.06-.33.08-.29.07-.77.09-1.43.07Z"/>
      <path class="cls-1" d="M62.66,28.17c-.07,0-.24-.06-.51-.17-.03-.02-.09-.04-.18-.08-.09-.04-.15-.06-.19-.09-.04-.02-.09-.05-.15-.09-.06-.04-.12-.08-.17-.12-.05-.04-.09-.09-.13-.14-.06-.06-.12-.12-.16-.19-.3-.51-.54-1.11-.71-1.77-.18-.63-.29-1.07-.33-1.33,0-.04-.02-.1-.05-.17-.03-.07-.05-.12-.05-.15-.07-.17-.13-.36-.18-.56-.09-.53-.24-.95-.45-1.27-.09-.13-.19-.22-.29-.25s-.24-.05-.42-.03h-.19c-.09.02-.12.06-.11.14,0,.06,0,.17-.02.34-.02.16-.02.28,0,.37.02,0,.02.12.01.35s-.01.34-.01.35c.03,1.38.03,2.3.02,2.76,0,.32.1.66.29,1.01.04.06.1.12.19.16.42.17.72.26.9.25.02,0,.06.01.14.04.04,0,.07.03.1.09.03.05.05.1.05.15-.01.05-.03.1-.07.14-.04.04-.08.07-.12.07-.06.01-.16.02-.29.02-.29,0-.51,0-.65-.02-.07.01-.16,0-.29,0-.13-.02-.22-.02-.28,0-.04,0-.13,0-.27.01-.14,0-.24,0-.31.02-.06,0-.14,0-.26-.02-.12-.02-.21-.02-.28-.02h-.14c-.09.04-.19.06-.3.07-.11.01-.23.01-.37,0-.14,0-.25,0-.31,0-.09,0-.23,0-.42,0s-.36-.01-.51,0c-.15,0-.29.03-.42.07-.07-.03-.15-.05-.23-.05s-.17,0-.27,0c-.1,0-.18,0-.23,0-.01-.01-.03-.02-.05-.02-.03-.02-.06-.05-.09-.09-.03-.05-.04-.08-.03-.12,0-.07.03-.12.09-.14.27-.08.43-.12.48-.12.18,0,.32-.03.44-.12.12-.08.24-.21.36-.38.13-.22.19-.41.18-.59v-1.28c0-.18-.01-.33-.04-.44-.01-.04,0-.11.02-.21s.03-.17.02-.21c-.04-.09-.04-.31-.02-.66.02-.34.03-.56.02-.64l-.04-1.43s0-.03.02-.07c.02-.04.02-.06.02-.08-.04-.09-.05-.19-.06-.3,0-.11,0-.23.02-.36.02-.13.02-.24.02-.31l-.06-2.37c0-.3.02-.51.06-.63.01-.02,0-.06-.01-.14-.02-.08-.01-.15.01-.2-.03-.06-.04-.13-.05-.21s-.01-.15,0-.21c0-.06,0-.14,0-.21-.02-.2-.08-.35-.19-.45-.11-.11-.26-.17-.44-.18-.06,0-.14,0-.25-.02s-.2-.02-.26-.02h-.05s-.09-.03-.16-.09c-.07-.06-.1-.1-.09-.12.03-.1.09-.17.19-.22.06-.02.11-.03.15-.03h.25c.4-.03.78-.04,1.15-.04s.76,0,1.17.02c.41.01.74.02.99.02h1.42c.64-.02,1.12-.02,1.43,0,.91.05,1.68.28,2.31.69.44.28.76.7.96,1.27.08.25.13.42.13.52,0,.05,0,.12,0,.21,0,.09,0,.18,0,.25,0,.07.03.15.06.21-.03.07-.05.23-.07.48-.02.25-.08.43-.17.54-.22.51-.58.94-1.09,1.3-.18.12-.47.24-.86.36-.39.12-.73.2-1.04.24.55.07,1,.3,1.35.69s.62.84.8,1.35c.12.33.21.62.25.89.07.13.15.34.22.63.08.29.15.49.21.62,0,.09.02.17.05.25.03.08.07.18.13.29s.09.19.11.23c0,.01.03.05.08.12.06.08.13.12.21.13.08,0,.15-.03.22-.1.15-.17.22-.38.22-.63.02-.06.04-.12.05-.18.01-.06.02-.13.03-.21,0-.08.01-.14.02-.18,0-.02.02-.04.03-.05.02-.02.04-.03.06-.05.02-.02.04-.03.05-.04s.04-.02.1-.02c.06.03.09.06.11.08.02.02.03.08.05.16v.09c0,.05-.01.15-.02.3,0,.15-.02.26-.02.33s-.02.17-.04.3c-.02.13-.04.24-.07.32-.03.08-.06.17-.1.27-.04.1-.1.19-.16.27-.3.4-.67.65-1.1.76-.33.09-.67.12-1.01.09ZM58.53,21.19c.24,0,.48-.02.72-.05.14-.02.25-.04.33-.08.33-.13.63-.35.89-.68.06-.07.11-.14.16-.23.05-.09.09-.16.11-.22s.06-.14.1-.26.08-.19.1-.24c0-.11.03-.32.08-.64.05-.32.06-.56.03-.72v-.41c0-.22-.06-.51-.19-.89-.1-.3-.33-.54-.69-.71-.03-.02-.08-.04-.16-.06s-.13-.04-.16-.06c-.27-.12-.62-.13-1.06-.03-.14.03-.25.12-.32.29-.07.16-.1.34-.1.54,0,.03,0,.15,0,.35,0,.2,0,.31,0,.33,0,.35,0,.72-.02,1.12,0,.05,0,.25-.02.59-.02.34-.01.54,0,.59,0,.04,0,.1,0,.19s0,.15,0,.19c0,.05,0,.11-.02.2-.02.09-.02.16-.02.2.02.23.03.41.02.54,0,.01,0,.03,0,.05,0,.02,0,.04,0,.04,0,0,.02.01.05.02.06.03.11.04.15.02Z"/>
      <path class="cls-1" d="M76.93,28.19c-.22-.03-.42-.05-.59-.07-.25-.05-.41-.08-.5-.1-.08-.02-.19-.05-.3-.09-.12-.04-.24-.09-.36-.15-.07-.04-.23-.11-.47-.22-.24-.11-.42-.2-.53-.3-.15-.12-.23-.19-.24-.19-.21-.18-.44-.43-.68-.74-.24-.31-.44-.61-.59-.88,0-.02-.04-.07-.09-.15-.05-.08-.09-.16-.12-.22s-.05-.15-.07-.25-.04-.18-.07-.24c-.01-.03-.06-.14-.14-.35-.09-.21-.14-.37-.16-.49-.02-.08-.04-.22-.08-.41-.04-.19-.07-.33-.09-.43-.1-.6-.11-1.18-.03-1.74-.02-.12-.03-.21-.02-.27,0-.06.02-.14.04-.26.02-.11.04-.2.04-.26,0-.11.06-.37.15-.79.02-.09.05-.22.1-.4.05-.17.09-.29.1-.36.02-.05.06-.13.13-.24s.11-.2.11-.28c0-.07.04-.16.11-.27.07-.12.11-.2.12-.25.03-.08.11-.22.25-.44,0-.01.05-.08.13-.2.08-.13.15-.22.2-.27.11-.14.25-.28.41-.41.53-.44,1.05-.76,1.57-.96.09-.03.14-.05.15-.05.1-.01.24-.05.42-.11.18-.06.3-.1.37-.12.26-.06.51-.09.77-.09h.4c.42-.02.93.07,1.53.27.02,0,.04.01.05.02.02,0,.03.01.05.02.42.14.79.36,1.1.68.17.17.36.41.57.71.01.02.05.08.11.2.06.12.12.22.18.29.03.02.05.05.05.09.02.06.04.14.07.25s.06.2.08.27c.02.07.04.15.05.25.02.1.03.19.03.27,0,.18-.01.44-.03.8-.01.14-.08.4-.22.78-.02.06-.04.11-.07.17s-.06.13-.12.21c-.05.09-.09.14-.1.17-.11.16-.23.28-.38.36-.05.03-.12.06-.22.11s-.18.08-.22.11c-.06.04-.16.06-.29.06-.25.03-.57-.01-.96-.11-.18-.08-.34-.19-.47-.35-.14-.11-.24-.25-.32-.44-.06-.08-.1-.16-.12-.26s-.04-.18-.04-.24c0-.06,0-.15,0-.28,0-.13,0-.21,0-.25.18-.43.38-.73.61-.9.27-.23.59-.33.95-.32h.24c.07,0,.12-.02.17-.07.05-.04.07-.1.09-.17.06-.38,0-.76-.21-1.15-.19-.48-.53-.79-1.01-.93-.03,0-.09-.03-.2-.07-.11-.04-.19-.07-.26-.08-.32,0-.58.02-.78.07-.57.2-.99.53-1.28,1.01-.3.47-.5.96-.61,1.46,0,0,0,.03-.03.06-.02.04-.03.06-.03.08,0,.13-.03.37-.1.7-.06.33-.09.58-.09.73,0,.36-.04.73-.12,1.13v.02c0,.14,0,.38,0,.71.01.33.02.56.02.7,0,.15,0,.32.03.51.02.18.04.33.05.43.02.1.05.28.09.52.04.25.07.4.08.46,0,.07.04.22.12.46.26.69.58,1.21.96,1.57.22.21.47.37.75.5.29.13.57.19.86.19.32.02.58,0,.77-.08.13-.05.31-.14.52-.27.29-.22.55-.51.78-.87.29-.48.49-.99.6-1.55.02-.08.04-.21.06-.39s.04-.31.06-.39c.02-.09.06-.16.14-.19.07-.03.15-.03.23.01.07.04.11.09.11.15,0,.03,0,.06,0,.12,0,.05,0,.1,0,.14s0,.08-.02.12c-.1.87-.27,1.54-.5,2.02-.01.02-.02.05-.04.09-.02.04-.03.07-.04.09-.14.43-.37.8-.68,1.13-.3.31-.63.56-.99.74-.29.14-.63.25-1.01.33-.44.09-.8.1-1.1.04Z"/>
      <path class="cls-1" d="M89.9,28.04c-.14-.01-.57-.02-1.28-.02-.05,0-.1-.03-.16-.09-.04-.04-.05-.08-.03-.13.06-.16.16-.25.29-.25.15.02.33,0,.52-.03.34-.06.57-.27.66-.63,0-.02,0-.04.02-.07s.02-.05.01-.06c0-.09.01-.27.03-.52.02-.25.03-.45.02-.6-.02-.37-.02-.73,0-1.1.02-.38.02-.75,0-1.12-.01-.38,0-.92,0-1.61.02-.69.02-1.15.02-1.37,0-.25-.02-.41-.05-.49.02-.11.03-.23.04-.35,0-.12,0-.27,0-.46,0-.19,0-.31,0-.35-.01-.39-.02-.97-.02-1.74,0-.28-.03-.49-.08-.63-.13-.32-.36-.51-.68-.56-.13-.01-.31-.02-.56-.02-.12,0-.23-.06-.32-.18-.05-.07-.05-.13.02-.19.1-.06.22-.09.36-.11.1-.02.21-.02.31-.03.11,0,.23,0,.37,0,.14,0,.25,0,.31,0,.13,0,.31,0,.52,0,.21,0,.37,0,.46,0,.03,0,.08,0,.14-.02.06-.01.11-.02.14-.02.11.03.24.05.39.06.15,0,.28.01.41,0s.32,0,.57-.02c.26,0,.48-.01.66-.02.28,0,.49,0,.63-.02.07-.01.17-.02.31-.02.14,0,.24,0,.31-.02.62.03,1.03.03,1.23.02h1.28s.11,0,.21-.02c.1,0,.18-.01.23,0,.06,0,.12,0,.2,0s.15,0,.2,0c.06,0,.11.01.16.03.15.04.24.18.28.41.02.13.04.32.06.56.02.24.04.43.06.56.03.15.05.37.06.66,0,.28.02.48.03.58.05.35.08.67.08.96,0,.02,0,.05,0,.08s0,.06,0,.1c0,.04,0,.06,0,.08-.01.05-.06.09-.14.11-.2.02-.33-.05-.41-.21-.04-.1-.08-.21-.12-.33-.14-.53-.41-1.17-.82-1.93-.23-.42-.6-.72-1.11-.91-.28-.09-.66-.17-1.13-.22-.02,0-.04,0-.07,0-.03,0-.06,0-.09,0-.03,0-.05-.01-.07-.03-.04,0-.09-.01-.18-.03-.08-.01-.14-.02-.18-.02s-.09,0-.18.02c-.07.02-.18.04-.33.06-.05,0-.1,0-.15.02-.05.02-.1.03-.13.05-.03.02-.08.04-.13.08s-.1.06-.13.07c-.07.06-.12.14-.14.25-.01.04-.02.12-.04.25s-.03.21-.07.27c-.02.04-.02.07,0,.11.07.12.08.34.03.66-.02.15-.02.45,0,.9.02.09.02.15,0,.19-.05.09-.05.19,0,.29.04.13.05.23.03.3-.02.04-.03.08-.04.13s-.01.09-.01.14c0,.05,0,.09,0,.12,0,.03,0,.08.02.14,0,.06.02.11.02.13.02.16.02.5.02.99v.17c0,.09.04.13.11.13.52,0,.86-.02,1.01-.07.58-.18.99-.58,1.23-1.23.09-.26.13-.45.12-.57,0-.04.03-.13.08-.29.07-.17.21-.23.4-.18.03,0,.06.03.09.08.02.04.03.11.03.2v.73s0,.08,0,.15c0,.06,0,.11,0,.15,0,.04,0,.08.01.13.01.05.03.1.05.15-.05.12-.07.3-.05.54,0,.07,0,.17,0,.3,0,.13,0,.23,0,.3,0,.06,0,.14,0,.26,0,.12,0,.21,0,.27,0,.06,0,.16,0,.29,0,.13,0,.23,0,.29v.56c0,.26,0,.46.02.59,0,.09,0,.16-.02.2-.03.07-.06.1-.09.1-.1.02-.19.02-.29,0-.05,0-.08-.03-.12-.08-.05-.1-.08-.17-.08-.22-.04-.31-.14-.71-.32-1.19-.11-.27-.23-.48-.36-.63-.15-.21-.36-.32-.63-.33-.04,0-.12,0-.23,0-.11,0-.21,0-.28,0-.07,0-.14.02-.21.04-.02-.03-.06-.03-.13-.02-.06.02-.11.02-.13.02-.13-.03-.2.03-.2.18,0,.19,0,.48,0,.86,0,.38,0,.66,0,.85v.69s.01.08.03.14c.02.06.03.11.03.14,0,.03-.01.08-.05.14,0,.04.01.09.04.18.02.08.03.15.03.2,0,.05,0,.12,0,.22s0,.18,0,.22c0,.03,0,.07,0,.13,0,.06,0,.11,0,.14s0,.07-.01.12c0,.05-.02.09-.04.14-.01.03,0,.08,0,.16s.02.13.01.17c0,.01,0,.04.01.08s.01.08,0,.1c-.02.03-.03.06-.03.08,0,.03-.01.05,0,.09,0,.03,0,.05,0,.07s0,.04.02.08c.01.03.02.06.03.07,0,.01.02.03.04.07.02.04.03.06.03.07.03.06.07.1.12.14.05.04.1.07.13.08.04.02.1.04.18.07.08.02.16.02.24.02.11,0,.26,0,.45.02.19.01.36.02.52.02s.33-.01.5-.03c.11-.02.24-.05.38-.1.52-.2,1.02-.55,1.5-1.06.07-.07.1-.1.1-.11.4-.7.66-1.33.77-1.88.08-.4.12-.64.12-.71,0-.04,0-.07.02-.12.01-.04.03-.09.05-.14.02-.05.03-.09.04-.11.02-.06.07-.09.17-.1s.19,0,.27.05c.07.04.11.08.11.14,0,.03,0,.13,0,.3s0,.26-.03.29c-.02.04-.03.07-.03.09,0,.14-.01.35-.05.62-.04.27-.06.47-.06.6.02.47-.01.83-.1,1.07-.01.04-.02.09-.02.13s0,.1,0,.17c0,.06,0,.11,0,.14,0,.38-.04.72-.11,1.03-.02.07-.04.11-.06.13s-.07.03-.13.03c-.09.01-.22.02-.39.02-.15,0-.4,0-.75-.01-.35,0-.65,0-.91,0-.26,0-.51.01-.75.03-.13.01-.26.02-.39.02s-.28,0-.43,0c-.15,0-.28,0-.36,0l-.98.02c-.23,0-.46,0-.68,0-.22,0-.45,0-.67,0-.23,0-.4-.02-.52-.04-.24.01-.61.02-1.1.02-.03,0-.06,0-.12.02-.05.01-.09.02-.12.02Z"/>
    </g>
  </g>
</svg>