<?xml version="1.0" encoding="UTF-8"?>
<svg id="Layer_1" data-name="Layer 1" xmlns="http://www.w3.org/2000/svg" width="1080" height="1080" viewBox="0 0 1080 1080">
  <defs>
    <style>
      .cls-1 {
        fill: #000;
        stroke-width: 0px;
      }
    </style>
  </defs>
  <path class="cls-1" d="M490.84,589.96c-129.44,0-258.88,0-388.31,0-3.2,0-6.41,0-9.61-.1-6.34-.19-10.87-3.35-10.86-9.71.01-6.27,4.27-9.68,10.77-9.7,2.56,0,5.13-.02,7.69-.02,256.31-.02,512.63-.02,768.94-.06,48.68,0,88.68-27.62,105.98-72.91,20.2-52.88-4.55-105.15-58.71-120.95-25.14-7.34-49.32-2.63-68.27,16.95-16.59,17.14-24.09,37.87-17.43,61.58,5.57,19.85,19.45,31.85,39.64,36.22,16.66,3.61,30.46-1.74,41.07-14.69,16.97-20.71,6.9-48.04-19.18-52.57-7.05-1.22-12.73-3.82-11.41-12.24,1.31-8.38,8.08-7.91,14.26-7.39,36.24,3.01,55.96,44.14,36.95,76.9-12.42,21.41-31.41,32.28-55.69,30.81-27.47-1.67-48.92-15.11-60.76-40.52-25.55-54.85,19.89-119.6,82.07-117.56,63.55,2.08,108.68,54.59,103.41,117.96-5.32,63.98-62.04,118.66-130.88,118.23-126.55-.79-253.11-.22-379.67-.22Z"/>
  <path class="cls-1" d="M437.79,635.39c92.27,0,184.55.86,276.81-.27,75.64-.93,138.04,64.06,131.52,139.74-6.69,77.67-91.77,118.94-150.68,83.99-48.8-28.95-58.19-100.15-11.22-133.16,34.08-23.95,79.2-13.17,95.13,23.13,14.38,32.76-5.61,69.83-38.95,72-3.43.22-7.77.4-10.17-1.41-2.54-1.92-5.41-7.68-4.37-9.22,2.52-3.73,6.94-7.82,11.12-8.51,13.13-2.14,21.83-8.79,25.78-21.26,7.99-25.21-17.12-51.68-44.52-47.14-37.78,6.27-55.95,45.23-38.19,80.47,24.35,48.32,86.5,47.81,121.42,12.23,28.65-29.18,33.96-72.44,12.86-111.06-21.23-38.86-54.35-59.81-99.02-59.87-188.06-.25-376.13-.1-564.19-.12-3.84,0-8.41,1.09-11.34-.59-3.56-2.04-7.58-6.31-7.91-9.94-.25-2.66,4.66-6.73,8.12-8.51,2.82-1.45,6.9-.49,10.42-.5,95.79-.01,191.59,0,287.38,0Z"/>
  <path class="cls-1" d="M438.91,527.92c-66,0-132,.04-198.01-.05-7.47-.01-16.48,1.63-17.69-9.63-.81-7.6,3.91-10.12,17.91-10.12,129.44,0,258.88.04,388.32-.02,37.48-.02,65.4-18.79,76.48-54.01,15.22-48.38-21.77-84.05-60.94-79.91-26.28,2.77-45.62,31.82-36.43,56.46,4.29,11.5,12.92,18.81,25.4,20.91,1.89.32,4.45-.21,5.6.85,3.63,3.33,9.07,6.97,9.53,10.98.74,6.49-5.45,8.42-11.45,8.51-21.09.31-42.95-16.14-48.85-36.78-11.91-41.66,21.02-83.04,64.49-81.03,61.37,2.84,95.45,66.62,65.01,122.5-18.21,33.43-47.14,50.23-85.2,51.34-.96.03-1.92.01-2.88.01-63.76,0-127.52,0-191.28,0Z"/>
  <path class="cls-1" d="M372.19,697.41c36.19,0,72.38-.06,108.57.01,41.38.08,75.79,23.47,90.95,61.68,18.31,46.13-2.95,94.35-50.01,108.83-51.53,15.85-91.81-24.35-86.52-69.35,2.76-23.45,24.55-43.76,48.91-45.23,6.05-.36,11.97.18,13.27,7.77,1.38,8.04-3.87,11.22-10.5,11.89-13.19,1.34-23.2,7.19-28.81,19.26-11.61,24.97,8.26,56.88,36.42,58.83,46.32,3.21,77.15-42.36,57.94-86.16-13.7-31.24-38.27-47.52-72.26-47.75-71.42-.48-142.84-.15-214.27-.18-5.12,0-10.6.91-15.25-.62-3.4-1.12-8.08-5.71-7.9-8.47.24-3.57,4.17-7.76,7.62-9.97,2.54-1.63,6.85-.59,10.37-.59,37.15-.02,74.3-.01,111.46-.01v.06Z"/>
</svg>