<?xml version="1.0" encoding="UTF-8"?>
<svg id="Layer_1" data-name="Layer 1" xmlns="http://www.w3.org/2000/svg" width="1080" height="1080" viewBox="0 0 1080 1080">
  <defs>
    <style>
      .cls-1 {
        fill: none;
        stroke: #fff;
        stroke-linecap: round;
        stroke-miterlimit: 10;
        stroke-width: 20px;
      }

      .cls-2 {
        fill: #fff;
        stroke-width: 0px;
      }
    </style>
  </defs>
  <g>
    <path class="cls-2" d="M743.22,379.56c-24.22-73.71-81.41-133.61-173.01-142.67-109.58-10.84-187.1,55.1-216.66,141.73,5.7.39,11.3.48,16.81,1.24,5.99.82,11.9,2.23,17.83,3.46,2.57.53,3.52,2.06,3.52,4.76-.07,63.78-.07,127.55.01,191.33,0,2.59-1.05,3.54-3.37,4.34-42.44,14.64-89.78-11.23-98.76-54.07-.34-1.61-.37-3.3-.37-4.95-.03-27.12-.89-54.27.3-81.33.64-14.67,5.46-29.04,18.2-38.81,9.7-7.44,14.05-16.86,16.93-28.51,3.58-14.51,9.48-28.66,15.92-42.27,11.73-24.79,29.43-45.43,49.8-64.07,15.19-13.9,31.44-26.27,49.69-36.08,26.74-14.38,55.5-22.15,85.86-24.57,32.6-2.6,64.61.13,95.75,10.23,26.81,8.69,51.07,21.91,72.66,39.72,28.62,23.62,52.68,50.84,67.12,84.92,6.13,14.48,9.81,29.95,14.72,44.93.56,1.71,1.56,3.58,2.94,4.71,14.41,11.77,23.74,26.6,28.36,44.28.48,1.84.53,3.83.53,5.74.03,24.9-.27,49.81.13,74.7.25,15.33-5.25,28.5-14.51,40.24-16.84,21.37-39.49,30.77-66.96,28.86-5.6-.39-11.09-2.14-16.65-3.16-3.46-.64-4.74-2.28-4.73-5.94.14-45.51.08-91.03.08-136.54,0-17.43.09-34.86-.08-52.29-.03-3.48,1.1-5.07,4.53-6.23,9.69-3.27,19.56-4.45,29.73-3.69,1.09.08,2.19.01,3.69.01Z"/>
    <path class="cls-2" d="M626.42,433.95c-9.96,0-19.29,0-28.62,0-8.37,0-16.75.14-25.12-.01-3.12-.06-4.62,1.24-4.65,4.02-.05,4.56.16,9.11.3,13.67.09,2.92,2.35,2.18,4.07,2.19,16.61.05,33.21.2,49.81.02,4.14-.04,5.94.81,5.51,5.23-.43,4.48-.1,9.03-.1,13.82-1.76.09-3.14.22-4.52.22-16.61-.01-33.21.06-49.82-.16-3.98-.05-5.24,1.52-5.45,5.05-.82,13.6-.87,13.7,12.73,13.85,14.05.15,28.1.04,42.15.07,1.52,0,3.04.12,4.99.21,0,5.83-.14,11.33.05,16.82.1,2.96-1.36,3.4-3.89,3.39-15.89-.09-31.79-.09-47.69-.11q-8.32,0-8.24,7.93c.11,10.48.11,10.6,10.93,10.71,14.76.16,29.52.22,44.27.09,3.52-.03,4.79.96,4.6,4.43-.25,4.67-.06,9.37-.06,14.54-1.8.09-3.31.22-4.81.22-16.61.01-33.21.12-49.82-.08-3.58-.04-4.98,1.31-5.02,4.38-.06,4.42.12,8.84.18,13.26.04,2.94,2.32,2.25,4.02,2.25,15.9,0,31.79-.05,47.69-.09,2.39,0,4.77,0,7.66,0,0,5.99.16,11.61-.18,17.2-.05.8-2.57,2.07-3.96,2.08-16.32.18-32.64.17-48.96.2-5.91,0-6.5.52-6.53,6.39-.02,3.03.44,6.09.21,9.1-.27,3.39,1.13,4.29,4.39,4.26,15.75-.16,31.5-.23,47.25-.17,8.82.03,7.93-1.4,7.86,7.66-.03,3.7,0,7.41,0,11.69-5.51,0-10.58,0-15.64,0-13.06,0-26.12.12-39.17-.09-3.13-.05-4.62,1.09-4.69,3.81-.13,4.82-.09,9.67.31,14.47.06.67,2.6,1.63,4,1.63,16.6.09,33.21.02,49.81,0,1.23,0,2.47,0,3.99,0-2.32,15.1-8.96,27.16-21.52,35.71-11.57,7.88-24.73,11.55-38.61,12.84-17.72,1.64-35.56,2.16-52.81-2.55-21.89-5.98-44.14-25.94-44.83-54.45-.41-17.13-.82-34.26-.67-51.39.12-14.91,1.37-29.82,1.48-44.73.1-14.09-.68-28.18-.98-42.28-.36-17.14-1.05-34.29-.81-51.42.22-16.01,3.21-31.43,15.3-43.63,13.12-13.23,28.66-21.6,47.93-21.97,11.73-.22,23.56-.91,35.19.17,20.71,1.92,39.23,8.89,51.69,26.5,4.74,6.7,7.17,14.28,8.77,23.05Z"/>
    <path class="cls-2" d="M439.09,571.02c-.71,9.61-1.72,18.53-1.95,27.48-.76,29.27,1.64,58.1,15.8,84.69,12.28,23.07,32.02,36.56,58.23,40.59,23.36,3.59,46.98,4.66,70.35.91,33.25-5.35,56.78-23.23,68.49-54.57,9.3-24.88,10.41-50.77,9.3-76.87-.32-7.57-.84-15.13-1.3-23.21,3.34,0,6.39-.02,9.45,0,8.93.07,17.87.15,26.8.24,3.14.03,4.31,1.52,4.37,4.68.25,13.82,1.33,27.64,1.03,41.45-.59,27.29-4.96,53.95-17,78.95-13.33,27.68-34.72,47.04-63.85,58.35-15.26,5.92-31.2,8.95-47.46,10.6-2.33.24-3.56.66-3.55,3.35.15,20.75.15,41.5.22,62.24,0,.4.17.79.38,1.67,1.54.08,3.18.23,4.81.23,20.86,0,41.72-.05,62.59.03,4.82.02,9.65.31,14.43.88,1.09.13,2.81,1.91,2.83,2.96.21,10.92.09,21.85.15,32.78.02,2.76-1.57,3.06-3.85,3.05-25.12-.09-50.24-.17-75.36-.16-41.58,0-83.17.01-124.75.22-4.41.02-5.59-1.32-5.48-5.42.26-9.95.25-19.92,0-29.87-.09-3.78,1.31-4.62,4.93-4.61,25.26.13,50.53,0,75.79.14,3.68.02,4.87-.89,4.83-4.62-.22-19.64-.21-39.28-.13-58.92.01-2.85-.88-3.74-3.78-4.01-18.59-1.75-36.66-5.62-53.73-13.23-28.01-12.48-47.57-32.91-59.5-60.45-7.91-18.25-11.9-37.35-13.74-57.02-1.89-20.18-1.46-40.3.1-60.45.18-2.29.86-3.16,3.26-3.14,9.51.08,19.01-.06,28.52.05,2.79.03,5.58.62,8.78,1Z"/>
  </g>
  <ellipse class="cls-1" cx="540.06" cy="540" rx="496.53" ry="516.81"/>
</svg>