<?xml version="1.0" encoding="UTF-8"?>
<svg id="Layer_1" data-name="Layer 1" xmlns="http://www.w3.org/2000/svg" width="1080" height="1080" viewBox="0 0 1080 1080">
  <defs>
    <style>
      .cls-1 {
        fill: #fff;
        font-family: Times-Roman, Times;
        font-size: 200px;
      }

      .cls-2 {
        fill: none;
        stroke: #fff;
        stroke-miterlimit: 10;
        stroke-width: 15px;
      }
    </style>
  </defs>
  <text class="cls-1" transform="translate(191.35 207.28)"><tspan x="0" y="0">Presence</tspan></text>
  <g>
    <g>
      <g>
        <path class="cls-2" d="M713.56,765.81c1.26,8.61,1.78,22.23-5.25,35.22-4.64,8.56-10.81,13.62-14.35,16.36-36.75,28.49-81.91,34.02-121.54,67.69-1.86,1.58-5.61,10.37-10.78,10.01-3.46-.24-6.03-4.26-7.63-7.52"/>
        <path class="cls-2" d="M407.85,767.86c-1.15,8.63-1.48,22.26,5.73,35.15,4.76,8.5,11,13.47,14.58,16.17,37.17,28,82.44,32.91,122.55,66.05,5.27,4.35,9.17,8.13,10.92,9.87"/>
      </g>
      <path class="cls-2" d="M778.15,607.99c0,120.06-97.32,217.38-217.38,217.38s-217.38-97.32-217.38-217.38c0-71.33,37.27-140.05,95.18-179.81,12.63-8.67,59.24-39.75,122.2-37.57,97.18,3.36,217.38,85.4,217.38,217.38Z"/>
      <g>
        <path class="cls-2" d="M714.8,459.4c8.62-1.21,22.25-1.63,35.18,5.49,8.53,4.69,13.54,10.9,16.27,14.46,28.25,36.95,33.47,82.14,66.87,121.99,1.57,1.87,10.33,5.68,9.94,10.84-.26,3.46-4.3,6-7.58,7.58"/>
        <path class="cls-2" d="M714.8,765.11c8.62,1.21,22.25,1.63,35.18-5.49,8.53-4.7,13.54-10.91,16.27-14.47,28.25-36.98,33.47-82.21,66.87-122.11,4.39-5.24,8.2-9.12,9.94-10.85"/>
      </g>
      <path class="cls-2" d="M266.49,612.68c1.74-1.74,5.54-5.62,9.92-10.87,39.7-47.6,31.87-88.77,66.63-122.24,11.54-11.11,22.5-16.27,32.66-18.24,11.91-2.31,21.49.77,23.7.47,21.92-3.02,102.56,2.7,315.4-2.4l-1.24,306.41-304.71-2.35c-8.62,1.22-36.04,3.44-48.99-3.65-8.54-4.68-13.57-10.87-16.29-14.43-28.32-36.89-33.63-82.07-67.11-121.86-1.57-1.87-10.34-5.66-9.96-10.82.25-3.46,4.29-6.01,7.56-7.59"/>
      <g>
        <path class="cls-2" d="M560.19,332.95c-1.61-3.26-4.2-7.27-7.67-7.48-5.17-.33-8.87,8.48-10.72,10.07-39.46,33.88-84.58,39.64-121.19,68.32-3.53,2.76-9.67,7.85-14.26,16.44-6.97,13.02-6.38,26.64-5.07,35.25l-.82,308.77"/>
        <path class="cls-2" d="M706.97,451.89c1.1-8.63,1.37-22.26-5.91-35.11-4.8-8.47-11.07-13.41-14.67-16.09-37.31-27.8-82.61-32.48-122.9-65.41-5.29-4.33-9.21-8.09-10.97-9.81"/>
      </g>
      <polygon class="cls-2" points="431.02 518.02 688.85 518.02 561.63 721.5 431.02 518.02"/>
    </g>
    <circle class="cls-2" cx="549.97" cy="608.38" r="339.16"/>
  </g>
</svg>