<?xml version="1.0" encoding="UTF-8"?>
<svg id="Layer_1" data-name="Layer 1" xmlns="http://www.w3.org/2000/svg" width="1080" height="1080" viewBox="0 0 1080 1080">
  <defs>
    <style>
      .cls-1 {
        fill: none;
      }

      .cls-1, .cls-2 {
        stroke-width: 0px;
      }

      .cls-2 {
        fill: #1a6f65;
      }
    </style>
  </defs>
  <g>
    <path class="cls-2" d="M140.29,528.2v46.09c3.21-1.77,5.44-2.95,7.61-4.21,5.29-3.08,10.88-4.21,17.02-3.5,7.9.9,13.51,7.78,15.28,14.64,2.06,7.99,1.21,16.1,1.38,24.16.07,3.43-.03,6.85.03,10.28.08,4.97,1.4,6.52,6.39,7.09,2.3.26,4.05.63,3.8,3.54-.22,2.69-1.59,3.81-4.24,3.8-8.32-.05-16.65-.06-24.97,0-2.47.02-3.87-.68-3.89-3.46-.02-2.48.6-3.75,3.41-3.84,4.2-.13,5.59-1.32,5.66-5.55.17-10.21,1.85-20.44-.67-30.65-1.59-6.42-9.04-11.6-15.55-9.78-3.11.87-6.19,2.2-8.92,3.91-1.25.78-2.23,2.97-2.26,4.55-.2,10.16-.14,20.33-.09,30.49.02,3.91,2.84,6.93,6.84,6.99,2.77.04,3.55,1.18,3.5,3.73-.05,2.54-.87,3.69-3.63,3.65-9-.13-18.01-.11-27.01-.01-2.65.03-3.9-1.17-3.89-3.6.01-2.33,1.06-3.67,3.78-3.77,4.68-.18,6.84-2.57,6.84-7.1.02-21.92.01-43.85,0-65.77,0-4.69-.22-4.87-4.78-4.87-8.23,0-16.46-.03-24.7,0-4.02.02-4.87.84-4.88,4.81-.03,20.56-.08,41.12.07,61.68.02,2.53,1.1,5.08,1.91,7.54.23.71,1.15,1.5,1.9,1.69,3.19.83,6.41,1.65,9.67,2.07,2.04.26,2.5,1.24,2.39,2.92-.11,1.73.5,3.89-2.21,4.26-.79.11-1.6.09-2.4.09-12.89,0-25.79.01-38.68,0-3.93,0-4.72-.78-4.07-4.61.16-.95,1.4-2.14,2.38-2.44,2.7-.84,5.52-1.35,8.31-1.83,3.62-.62,4.75-3.22,5.13-6.32.25-2.03.23-4.1.25-6.16.19-19.18.38-38.35.53-57.53.05-6.09-.52-6.61-6.67-6.62-3.54,0-7.09-.11-10.63.05-7.01.31-9.49,2.24-11.72,8.81-.8,2.36-1.6,4.72-2.35,7.1-.82,2.64-2.88,2.03-4.8,1.95-2-.08-2.93-1-2.67-3.02.44-3.45.92-6.9,1.29-10.37.38-3.62.78-7.24.92-10.88.11-2.91,1.38-3.65,4.15-3.37,6.23.63,12.48,1.31,18.73,1.37,19.43.17,38.87.03,58.31.11,2.8.01,4.64-.44,4.76-3.79.03-.84,1.36-2.13,2.3-2.35,3.31-.8,6.7-1.22,11.1-1.97Z"/>
    <path class="cls-2" d="M429.16,611.8c-2.69-1.75-4.7-2.82-6.44-4.24-5.97-4.89-7.44-11.68-6.72-18.78,1.24-12.18,10.18-20.15,22.41-21.96,8.38-1.24,15.85.75,23.51,3.53,4.03,1.46,8.29.86,12.13-1.63,1.05-.68,2.61-.59,3.93-.85.1,1.44.39,2.91.24,4.33-.13,1.21-.58,2.47-1.19,3.53-1.8,3.13-4.15,5.36-8.23,4.82-2.09-.28-2.91.47-2.58,3,1.42,11.11-2.61,19.15-12.82,24.73-4.14,2.26-9.24,2.85-13.96,3.94-1.92.45-3.73.73-3.88,3.04-.16,2.44,1.49,3.41,3.66,3.63,7.03.7,14.07,1.3,21.09,2.09,5.36.6,10.02,2.55,13.44,7.09,4.23,5.6,2.93,16.47-.9,21.92-4.93,7.02-11.53,11.5-19.46,14.77-7.19,2.96-14.4,1.59-21.52,1.43-8.9-.2-18.95-8.65-18.61-19.43.11-3.36.73-6.43,4.2-8.4,2.63-1.49,4.79-3.81,7.25-5.63,2.14-1.58,1.67-2.7-.11-4.28-1.73-1.54-3.34-3.36-4.5-5.34-1.59-2.71-.39-4.95,2.09-6.6,2.14-1.42,4.26-2.86,6.97-4.68ZM440.73,631.73c-2.4.8-5.53,1.27-8.01,2.79-8.31,5.1-8.55,12.52-1.49,19.1,5.22,4.87,23.78,5.77,29.59-1.23,5.84-7.02,4.31-14.9-3.96-17.82-4.84-1.71-10.24-1.86-16.14-2.84ZM452.96,591.24c-.07-6.5-.89-11.87-6.08-15.55-3.83-2.72-11.62-2.17-14.48,1.15-3.32,3.84-2.76,8.47-2.82,13.01-.06,4.94,2.06,8.86,5.7,11.88,2.74,2.28,5.89,3.92,9.76,2.62,4.28-1.44,6.85-4.23,7.37-8.79.19-1.7.43-3.39.55-4.33Z"/>
    <path class="cls-2" d="M317.5,581.43c2.36-3.72,4.54-6.79,6.34-10.06,3.95-7.15,7.71-14.41,11.54-21.62,1.88-3.55,1.4-4.66-2.54-5.77-1.76-.5-3.52-1.01-5.31-1.33-1.99-.35-2.83-1.43-2.42-3.34.4-1.86,1.1-3.28,3.57-3.24,9.94.16,19.88.16,29.81.14,1.72,0,3.32-.19,3.34,2.19,0,1.9.42,3.81-2.48,4.38-2.88.56-6.22,1.1-8.29,2.89-3.53,3.04-6.63,6.79-9.17,10.72-4.62,7.13-8.73,14.58-12.98,21.95-4.02,6.97-8.34,13.76-7.12,22.54.61,4.37.07,8.89.13,13.34.07,4.75,1.23,6.4,5.73,7.63,2.18.59,4.48.86,6.74.99,2.44.14,3.47,1.19,3.42,3.63-.05,2.41-1.13,3.65-3.54,3.6-7.07-.16-14.14-.51-21.21-.51-6.5,0-13,.32-19.5.55-2.5.09-4.49-.62-4.54-3.39-.05-2.85,1.86-3.88,4.55-3.86,1.48.01,3.07.1,4.41-.38,6.95-2.47,8.81-1.31,8.49-10.93-.15-4.55-.02-9.13.21-13.68.3-5.91-2.57-10.74-5.13-15.64-4.88-9.33-10.15-18.46-14.87-27.87-3.4-6.77-8.34-10.9-15.96-11.55-2.6-.22-4.15-1.28-3.64-4.12.46-2.56,1.93-2.72,4.45-2.64,10.5.32,21.02.25,31.53.09,1.92-.03,3.25.11,3.44,2.13.18,1.91.34,3.8-2.39,4.51-5.09,1.32-5.3,2.3-2.84,7.17,4.33,8.56,8.51,17.2,12.8,25.79.79,1.59,1.81,3.07,3.4,5.71Z"/>
    <path class="cls-2" d="M643.69,574.59c2.76-1.8,4.7-3.12,6.7-4.36,5.09-3.14,10.52-4.56,16.56-3.6,6.69,1.07,12.88,7.64,14.45,14.2,2.74,11.41.75,22.96,1.68,34.4.44,5.4,1.25,6.93,6.56,7.54,2.37.27,3.56,1.06,3.38,3.59-.18,2.52-1.39,3.72-3.91,3.71-8.32-.02-16.63-.02-24.95,0-2.42,0-3.92-.81-4.03-3.5-.1-2.64,1.1-3.81,3.66-3.74,3.51.08,5.39-1.72,5.45-5.13.12-6.59.2-13.19.05-19.78-.08-3.73-.51-7.47-1-11.18-.76-5.69-4.66-8.47-9.88-9.19-4.43-.61-9-.21-12.55,3-1.33,1.2-2.67,3.03-2.88,4.71-.52,4.28-.56,8.64-.51,12.97.07,6.15.42,12.3.6,18.45.14,4.67,1.2,5.89,5.81,6.16,2.02.12,3.87.46,3.69,2.93-.16,2.26-1.03,4.36-3.88,4.27-3.19-.1-6.38-.53-9.56-.51-5.25.05-10.49.29-15.73.56-2.41.13-3.65-.64-3.59-3.24.05-2.21.07-3.96,3.14-4.08,3.89-.15,5.54-2.04,5.7-5.83.39-9.88.53-19.78,1.19-29.65.31-4.63-2.43-6.65-5.51-8.94-1.48-1.1-3.48-2.8-3.5-4.26-.03-2.5,2.52-2.76,4.79-3.25,4.29-.93,8.46-2.45,12.67-3.77,3.85-1.21,4.59-.69,4.82,3.39.06,1.08.3,2.15.59,4.11Z"/>
    <path class="cls-2" d="M933.85,622.85c-1.68.88-3.17,1.41-4.33,2.33-4.31,3.41-9.28,5.8-14.58,6.06-7.22.35-14.8-1.25-17.58-9.74-1.03-3.16-1.79-6.55-1.88-9.85-.24-9.7-.08-19.4-.09-29.1,0-4.39-1.21-5.74-5.48-6.16-2.2-.22-4.44-.19-4.4-3.43.04-3.34,2.14-3.76,4.77-3.98,5.1-.44,10.19-.96,15.26-1.66,2.62-.36,3.59.05,3.53,3.07-.26,12.55-.22,25.11-.26,37.66-.02,9.26,6.14,12.45,14.3,11.41,1.8-.23,3.7-.45,5.32-1.19,4.07-1.85,6.23-4.91,6.09-9.7-.24-8.1-.04-16.21-.07-24.31-.02-5.9-1.51-7.31-7.37-7.93-1.65-.17-3.53-.94-4.64-2.08-.54-.56.14-2.78.84-3.9.45-.72,1.91-1.05,2.95-1.14,6.47-.54,12.94-.92,19.41-1.45,3-.25,3.02,1.64,3,3.71-.13,11.06-.26,22.13-.38,33.19-.03,3.31,0,6.62-.01,9.93-.02,3.08,1.21,4.79,4.55,4.32.45-.06.95-.13,1.36.01,1.28.43,2.53.96,3.79,1.45-.82,1.89-1.18,4.91-2.55,5.47-5.74,2.35-11.77,4.02-17.74,5.77-.56.16-1.92-.67-2.12-1.29-.68-2.14-1.01-4.39-1.66-7.46Z"/>
    <path class="cls-2" d="M375.83,631.44c-13.82-.4-24.23-6.35-28.73-19.62-4.65-13.69-3.72-29.43,11.45-39.61,11.94-8.01,30-8.34,40.13.76,6.14,5.52,9.17,12.54,9.87,20.61,1.1,12.66-2.27,23.56-12.97,31.37-4.59,3.35-14.65,6.64-19.76,6.49ZM373.82,573.9c-2,.64-4.15,1-5.98,1.97-5.47,2.91-7.44,8.11-7.89,13.82-.45,5.64-.46,11.25,1.57,16.82,1.88,5.15,4.04,9.85,8.52,13.19,8.28,6.16,18.98,3.62,22.15-5.67,3.41-9.99,2.25-19.81-2.1-29.19-3.09-6.67-8.48-10.46-16.27-10.94Z"/>
    <path class="cls-2" d="M602.78,630.07c-11.3,0-22.59-.03-33.89.02-2.56,0-4.56-.29-4.54-3.58.02-3.19,1.95-3.5,4.51-3.75,8.76-.86,10.71-2.71,10.87-11.52.33-18.96.1-37.92.09-56.88,0-1.25-.11-2.5-.23-3.75-.61-6.58-5.85-6.88-10.63-7.7-3.44-.59-4.69-2.07-3.54-4.98.35-.88,1.86-1.84,2.86-1.85,12.33-.14,24.66-.01,36.99-.21,2.27-.04,3.26.77,3.58,2.64.32,1.91.04,3.64-2.46,4.09-2.56.46-5.07,1.18-7.62,1.76-2.4.54-3.44,2.18-3.46,4.47-.1,16.66-.17,33.32-.23,49.97-.01,4.22.22,8.45.09,12.67-.29,9.66,2.13,8.83,10.66,11.28.75.21,1.59.1,2.39.14,1.84.09,3.11.81,3.07,2.87-.04,2.08-.5,4-3.02,4.23-1.81.17-3.65.03-5.48.03,0,.02,0,.04,0,.06Z"/>
    <path class="cls-2" d="M1040.66,619.18c5.87.26,10.95-1.9,15.92-4.64.87-.48,2.14-.22,3.22-.3-.02,1.07.3,2.29-.11,3.18-3.96,8.61-11.99,10.86-20.22,13.03-6.29,1.66-12.28.8-17.88-1.86-7.83-3.72-12.67-10.13-14.38-18.69-.75-3.77-1.75-7.63-1.62-11.42.42-12.15,4.65-22.52,16.03-28.47,8.31-4.35,17.11-5.76,25.79-1.05,6.57,3.57,9.41,9.92,11.13,16.86.24.97.37,2.07.92,2.85,2.85,4.06,1.73,7.13-3.1,7.52-10.8.87-21.6,1.61-32.42,2.21-5.26.29-5.02.09-3.83,5.17,1.74,7.38,6.56,11.84,13.13,14.59,2.22.93,4.92.71,7.4,1.01ZM1031.9,574.36c-.18-.29-.35-.58-.53-.87-2.32,1.35-5.24,2.21-6.81,4.15-2.13,2.63-3.41,6.01-4.71,9.21-1.49,3.66-1.14,4.07,2.92,4.03,5.02-.04,10.05-.16,15.06-.37,7.22-.31,7.82-1.24,5.44-8.02-1.64-4.69-6.47-8.14-11.37-8.13Z"/>
    <path class="cls-2" d="M216.89,598.52c-2.51,0-5.05-.19-7.53.11-.79.09-2.09,1.5-2.04,2.23.7,9.78,9.16,17.52,18.97,18.11,6.39.39,12.14-.95,17.56-4.24.85-.52,2.42-.95,3-.53.69.51,1.14,2.14.86,3-.55,1.65-1.39,3.43-2.64,4.59-5.02,4.67-11.01,7.26-17.78,8.72-6.45,1.39-12.54.83-18.17-2.02-8.18-4.14-12.72-11.07-14.7-20.18-1.43-6.57-1.51-12.78.17-19.2,2.4-9.14,7.69-15.93,16.22-19.94,5.66-2.66,11.68-3.54,17.97-2.54,7.31,1.16,11.96,5.5,15.23,11.8,2.43,4.67,2.34,9.66,2.21,14.67-.05,1.79-.68,3-2.77,3.18-8.85.76-17.7,1.62-26.54,2.43-.01-.07-.03-.14-.04-.21ZM218.33,590.89c0-.11,0-.22,0-.34,2.17,0,4.36.18,6.51-.03,8.36-.8,9.52-1.68,5.62-9.04-4.38-8.27-14.07-10.03-19.19-3.03-1.91,2.61-2.59,6.15-3.62,9.34-.65,2,.48,3.05,2.47,3.09,2.74.05,5.47.01,8.21.01Z"/>
    <path class="cls-2" d="M527.6,592.78c0,7.18,0,14.37,0,21.55,0,4.66,2.89,6.99,7.46,6.22,1.21-.2,2.5.1,3.76.18-.2,1.41.05,3.17-.71,4.15-1.33,1.74-3.05,3.47-4.99,4.37-4.39,2.03-9.06,3.17-13.77.75-.78-.4-1.44-1.1-2.08-1.73-1.27-1.25-2.42-3.5-3.76-3.6-1.61-.13-3.3,1.7-5.07,2.41-3.77,1.51-7.55,3.11-11.45,4.18-3.31.91-10.18-3.55-12.41-7.79-3-5.72-4.01-11.72-.46-17.49,1.18-1.92,3.5-3.59,5.66-4.36,5.23-1.87,10.68-3.12,16.01-4.69,2.38-.7,4.83-1.34,7.02-2.46,1.05-.53,1.94-1.99,2.29-3.21,2.04-7.06-3.73-14.19-10.95-15.01-7.17-.82-10.07,3.22-12.38,8.65-.84,1.98-1.7,4.12-4.36,3.13-2.38-.89-3.94-2.6-3.21-5.56,1.27-5.23,3.88-9.39,9.1-11.35,4.43-1.67,8.87-3.48,13.47-4.54,9.17-2.1,19.71,5.82,20.7,15.27.38,3.62.52,7.27.77,10.91-.22,0-.43.01-.65.02ZM514.52,608.88c-.05,0-.1,0-.15,0,0-2.04.2-4.12-.12-6.11-.09-.6-1.77-1.53-2.46-1.35-3.04.82-6.02,1.92-8.97,3.05-6.74,2.59-9.49,5.76-4.82,12.74,1.77,2.65,6.82,4.21,10.17,3.27,5.11-1.44,6.16-2.72,6.35-7.85.04-1.25,0-2.5,0-3.75Z"/>
    <path class="cls-2" d="M720.17,631.73c-5.64-.74-9.6-1.19-13.54-1.79-4.82-.73-5.66-4.71-6.42-8.47-.56-2.78-.88-5.69-.71-8.5.08-1.36,1.25-3.12,2.45-3.83,1.67-1,3.19.02,4.09,1.85,1.89,3.84,3.19,8.12,7.25,10.45,4.36,2.5,8.93,3.44,13.71,1.36,4.47-1.95,5.29-8.97,1.01-12.09-4.25-3.1-9.15-5.31-13.74-7.95-2.06-1.19-4.04-2.5-6.07-3.73-10.11-6.12-9.45-24.79,3.05-30.16,5.15-2.21,10.39-2.96,15.91-2.42,3.75.37,7.52.56,11.27.92,2.96.28,4.08,1.54,3.29,4.83-.76,3.17-.63,6.56-.75,9.86-.09,2.43-.54,4.3-3.55,4.34-2.77.04-3.36-1.67-3.71-3.93-1.02-6.62-6.66-10.77-13.27-9.89-3.05.41-6.43,3.35-7.03,6.25-.72,3.53.63,6.53,3.54,8.22,4.98,2.89,10.29,5.22,15.41,7.86,9.82,5.07,14.67,12.45,10.67,23.67-1.53,4.29-4.86,7.47-8.78,9.14-4.94,2.11-10.39,3.01-14.09,4.02Z"/>
    <path class="cls-2" d="M1000.12,618.5c.36,4.35-1.24,7.14-3.96,8.94-6.91,4.58-16.31,6.11-23.63.58-2.4-1.81-4.27-5.08-5.13-8.05-3.34-11.61-1.2-23.58-1.65-35.39-.24-6.4-.05-6.37-6.46-7.31-.87-.13-2.38-1.07-2.32-1.41.32-1.81.76-3.73,1.74-5.23.55-.85,2.2-1.27,3.39-1.34,3.05-.19,4.06-1.89,3.58-4.55-1.38-7.57,1.15-12.93,8.49-15.77.61-.24,1.03-1.06,1.63-1.19,1.28-.26,2.73-.59,3.87-.19.57.2.85,1.92.85,2.96.02,4.9-.09,9.81-.16,14.71-.04,2.73.64,3.68,3.9,3.06,4.65-.9,9.51-.79,14.28-.91.53-.01,1.31,1.23,1.58,2.02.17.51-.41,1.25-.6,1.91-.61,2.14-.56,5.33-1.96,6.19-1.87,1.14-4.84.51-7.34.57-2.4.06-4.8.03-7.2.02-2.5,0-3.73,1.01-3.69,3.72.11,8.44-.07,16.89.13,25.33.07,2.81.71,5.66,1.51,8.37.84,2.88,7.18,5.5,10.48,4.74,2.79-.65,5.62-1.14,8.67-1.75Z"/>
    <path class="cls-2" d="M757.93,598.49c0-5.59-.07-11.18.03-16.77.04-2.37-.88-3.67-3.23-3.96-.68-.08-1.41-.09-2.01-.38-1.49-.7-2.92-1.54-4.37-2.32,1.25-1.74,2.23-3.82,3.84-5.13,1.39-1.12,4.39-.87,5.07-2.1.98-1.81.52-4.4.68-6.66,0-.11.02-.23,0-.34-.81-5.03.89-8.57,5.85-10.44,1.45-.55,2.59-1.87,4.02-2.5,1.04-.46,2.5-.77,3.43-.37.7.3,1.26,1.86,1.21,2.83-.21,4.39-.82,8.77-.99,13.17-.17,4.63.74,5.01,5.41,4.41,4.28-.55,8.65-.52,12.98-.57.58,0,1.7,1.05,1.68,1.57-.1,2.38-.21,4.85-.96,7.07-.33.96-2.17,1.92-3.37,1.99-4.1.25-8.22.19-12.33.07-2.58-.07-3.76.85-3.73,3.55.09,8.56-.07,17.12.13,25.67.06,2.43.75,4.93,1.59,7.24,1.57,4.31,7.01,6.79,11.43,5.5.77-.22,1.54-.47,2.33-.55,1.71-.16,3.44-.21,5.16-.31-.57,2.24-.42,5.26-1.85,6.58-7.39,6.85-21.97,9.04-28.85-1.31-1.63-2.44-2.73-5.61-2.96-8.53-.46-5.78-.13-11.62-.13-17.43-.02,0-.04,0-.06,0Z"/>
    <path class="cls-2" d="M879.24,619.33c-.89,2.17-1.24,4.85-2.76,6.42-5.53,5.73-17.17,7.88-24.61,3.03-5.53-3.6-6.92-9.27-6.94-15.41-.05-9.93-.02-19.86,0-29.79,0-4.97-.75-5.68-5.82-6.3-1.23-.15-3.08-.87-3.38-1.76-.66-1.93-.46-4.14,1.96-5.17.93-.4,1.88-.97,2.85-1.05,3.33-.25,4.65-2.02,4.39-5.21-.02-.23,0-.46,0-.68q.06-10.57,9.48-15.69c2.71-1.47,4.49-.58,4.48,2.45,0,4.9-.29,9.81-.29,14.71,0,3.76.53,3.76,4.2,3.27,4.61-.61,9.31-.69,13.98-.71.6,0,1.8,1.77,1.71,2.61-.26,2.24-.84,4.51-1.77,6.56-.35.78-1.97,1.36-3.03,1.4-3.88.17-7.77.11-11.65.06-2.21-.03-3.48.79-3.46,3.16.08,10.22.29,20.45.15,30.66-.09,6.16,7.03,9.3,11.99,8.2,2.43-.54,4.85-1.11,7.27-1.67.43.3.86.6,1.29.9Z"/>
    <path class="cls-2" d="M823.02,566.43c.15,1.52.4,2.94.4,4.36.03,14.71.01,29.42.01,44.13,0,4.99,1.99,7.28,7.01,7.82,1.9.2,3.54.53,3.25,2.9-.27,2.11-.33,4.57-3.52,4.41-3.53-.18-7.05-.55-10.58-.52-5.35.04-10.7.33-16.05.55-2.4.1-3.95-.59-4-3.38-.05-2.49.75-3.66,3.45-3.92,5.26-.5,6.6-2.12,6.63-7.37.05-9.92-.26-19.85.14-29.76.19-4.83-2.15-7.2-5.96-8.78-1.8-.75-3.95-1.48-3.23-3.55.5-1.44,2.5-2.95,4.09-3.32,5.84-1.39,11.79-2.32,18.37-3.55Z"/>
    <path class="cls-2" d="M312.85,459.72c0-4.44.09-8.89-.03-13.33-.08-2.73,1.01-4.2,3.74-4.04,4.86.28,9.78.35,14.55,1.22,4.12.75,6.47,4.04,7.55,7.99,1.98,7.26,2.57,14.55-2.77,20.64-1.8,2.05-4.86,3.6-7.57,4.08-4.1.73-8.4.34-12.62.42-2.29.04-2.87-1.3-2.85-3.31.05-4.56.02-9.11.02-13.67h-.01ZM321.17,459.5c0,2.28-.16,4.58.08,6.84.1.93.82,2.18,1.61,2.57,2.1,1.03,7.26-.96,7.49-3.23.44-4.22.61-8.66-.32-12.74-.32-1.4-4.22-2.65-6.54-2.75-2.56-.12-2.28,2.59-2.31,4.52-.02,1.6,0,3.2,0,4.79Z"/>
    <path class="cls-2" d="M867.09,477.11c-5.88.29-10.2-1.85-12.64-7.66-1.59-3.79.2-6.57,1.69-9.63.43-.88.89-2.18.55-2.94-3.23-7.31-.17-13.61,7.69-15.15,4.07-.8,7.92-.06,11.23,2.76,3.61,3.08,4.47,7.36,2.43,11.68-.45.94-.7,2.66-.17,3.28,6.84,8.02-1.03,18.97-10.78,17.66ZM867.25,462.26c-3.13-.02-5.43,1.54-5.15,3.77.34,2.74,2.32,3.66,4.91,3.67,3.33,0,5.05-1.23,4.96-3.77-.1-3.07-2.24-3.6-4.72-3.66ZM866.94,447.5c-1.69,2.15-3.52,3.44-3.61,4.85-.15,2.32,2.14,3.29,4.11,2.76,1.43-.39,2.54-1.95,3.8-3-1.19-1.28-2.38-2.55-4.29-4.61Z"/>
    <path class="cls-2" d="M193.08,459.58c0-4.45.07-8.9-.03-13.34-.06-2.57,1.01-3.9,3.56-3.91,6.28-.03,12.55.01,18.83-.02,3.04-.01,2.64,2.15,2.71,4.07.07,2.05-.31,3.61-2.93,3.54-3.31-.09-6.62,0-9.93-.02-2.06-.01-3.74.53-3.74,2.94,0,2.52,1.97,2.39,3.69,2.41,2.74.03,5.48.12,8.22-.01,2.85-.14,2.73,1.71,2.7,3.61-.04,1.94.29,4.02-2.82,3.85-2.84-.16-5.71,0-8.56-.03-2.23-.03-3.34.89-3.38,3.25-.04,2.38,1.03,3.3,3.29,3.28,3.54-.04,7.08.14,10.61-.03,3.05-.15,2.89,1.75,2.86,3.78-.03,1.98.25,3.9-2.83,3.83-6.27-.15-12.55-.08-18.83-.02-2.47.02-3.5-1-3.44-3.48.1-4.56.03-9.12.02-13.68Z"/>
    <path class="cls-2" d="M807.06,464.66c-2.2,0-3.8.01-5.4,0-5.23-.05-9.17-2.6-11.03-7.13-1.69-4.11-.37-10.01,2.97-13.22,5.38-5.17,16.57-3.03,19.51,3.86,3.34,7.85,2.94,15.81-.61,23.41-.95,2.03-3.37,4.11-5.52,4.71-5.07,1.41-10.27,1.56-15.18-1.42-3.73-2.26-.19-4.2.14-6.08.39-2.19,2.08-1.02,3.44-.26,4.53,2.55,9.41,1.32,11.68-3.87ZM803.16,457.31c1.24-.51,4.15.89,4.02-2.59-.11-2.96-3-5.92-5.61-5.82-3.1.12-3.26,2.63-3.28,4.65-.03,2.65,1.55,4.19,4.86,3.76Z"/>
    <path class="cls-2" d="M255.45,451.23c-3.43-.81-6.7-1.66-10.01-2.32-.95-.19-2.13-.03-2.99.4-.83.42-1.8,1.34-1.93,2.15-.1.66.81,1.86,1.55,2.19,3,1.32,6.08,2.43,9.17,3.54,4.91,1.77,7.99,6.09,7.44,10.56-.67,5.46-3.98,8.71-9.65,9.13-5.22.39-10.37.58-15.37-1.91-3.31-1.65-1.48-3.5-.9-5.34.67-2.14,2.36-3.06,4.26-1.8,3.61,2.42,7.49,1.3,11.28,1.23.71-.01,1.95-1.17,1.96-1.8.01-.86-.73-2.17-1.51-2.53-1.94-.9-4.04-1.54-6.14-2.01-6.05-1.34-9.83-5.72-10.11-11.14-.32-6.12,3.83-8.88,8.87-9.81,4.72-.87,9.53-.32,14.05,1.71,2.82,1.27,3.38,2.73,1.74,5.32-.54.85-1.17,1.65-1.72,2.41Z"/>
    <path class="cls-2" d="M284.97,442.32c3.77,0,7.53.02,11.3,0,2.62-.02,3.57,1.25,3.57,3.83,0,2.64-1.12,3.64-3.66,3.78-7.23.39-7.23.44-7.23,7.79,0,5.13-.1,10.26.03,15.39.07,2.92-1.25,3.76-3.95,3.67-2.51-.09-4.45-.17-4.33-3.6.21-6.15.07-12.31.04-18.46-.02-4.43-.4-4.78-4.95-4.8-.57,0-1.15-.04-1.71,0-2.96.27-3.66-1.3-3.66-3.95,0-2.62.93-3.76,3.61-3.67,3.65.11,7.3.03,10.95.03Z"/>
    <path class="cls-2" d="M840.71,459.81c0,4.56-.11,9.13.03,13.69.1,3.04-1.7,3.24-3.96,3.25-2.34.01-4.38-.02-4.33-3.27.09-6.39-.04-12.78.04-19.16.03-2.7-.74-4.4-3.79-4.47-2.9-.07-3-2.14-2.99-4.36.01-2.46,1.47-3.13,3.54-3.16,2.63-.03,5.25-.02,7.88,0,2.52.01,3.7,1.14,3.63,3.8-.13,4.56-.04,9.12-.04,13.69Z"/>
    <path class="cls-2" d="M775.16,459.71c0,4.67-.13,9.34.04,14,.12,3.2-1.87,2.99-4.01,3.05-2.23.06-3.7-.26-3.65-3.07.13-6.6-.01-13.2.04-19.81.02-2.56-.64-4.17-3.64-4.03-2.76.13-3.36-1.71-3.33-4.07.04-2.46,1.28-3.5,3.63-3.47,13.3.21,10.63-1.9,10.92,10.22.06,2.39,0,4.78,0,7.17h-.01Z"/>
    <path class="cls-2" d="M816.48,554.44c-5.22-.01-8.27-3.49-8.74-8.73-.37-4.12,5.19-7.12,9.53-7.28,4.57-.16,7.32,2.48,6.99,7.12-.33,4.7-2.28,9.9-7.78,8.89Z"/>
    <path class="cls-1" d="M440.73,631.73c5.9.98,11.3,1.13,16.14,2.84,8.27,2.92,9.8,10.8,3.96,17.82-5.82,7-24.37,6.1-29.59,1.23-7.06-6.58-6.82-14,1.49-19.1,2.48-1.52,5.61-1.99,8.01-2.79Z"/>
    <path class="cls-1" d="M452.96,591.24c-.12.94-.36,2.63-.55,4.33-.52,4.56-3.09,7.35-7.37,8.79-3.87,1.3-7.02-.34-9.76-2.62-3.63-3.02-5.76-6.94-5.7-11.88.06-4.55-.5-9.17,2.82-13.01,2.87-3.32,10.65-3.87,14.48-1.15,5.19,3.68,6.01,9.05,6.08,15.55Z"/>
    <path class="cls-1" d="M373.82,573.9c7.79.48,13.18,4.27,16.27,10.94,4.35,9.38,5.51,19.2,2.1,29.19-3.17,9.29-13.87,11.84-22.15,5.67-4.48-3.34-6.65-8.04-8.52-13.19-2.03-5.58-2.02-11.18-1.57-16.82.45-5.7,2.43-10.91,7.89-13.82,1.83-.97,3.98-1.33,5.98-1.97Z"/>
    <path class="cls-1" d="M1031.9,574.36c4.9,0,9.72,3.44,11.37,8.13,2.37,6.78,1.78,7.71-5.44,8.02-5.02.22-10.04.33-15.06.37-4.06.03-4.41-.37-2.92-4.03,1.3-3.2,2.59-6.59,4.71-9.21,1.58-1.95,4.49-2.81,6.81-4.15.18.29.35.58.53.87Z"/>
    <path class="cls-1" d="M218.33,590.89c-2.74,0-5.47.04-8.21-.01-2-.04-3.12-1.09-2.47-3.09,1.04-3.18,1.72-6.73,3.62-9.34,5.11-6.99,14.81-5.24,19.19,3.03,3.89,7.36,2.74,8.24-5.62,9.04-2.15.21-4.34.03-6.51.03,0,.11,0,.22,0,.34Z"/>
    <path class="cls-1" d="M514.52,608.88c0,1.25.04,2.5,0,3.75-.18,5.13-1.23,6.41-6.35,7.85-3.35.94-8.4-.62-10.17-3.27-4.66-6.98-1.91-10.15,4.82-12.74,2.95-1.13,5.92-2.23,8.97-3.05.69-.19,2.36.75,2.46,1.35.31,1.99.12,4.07.12,6.11.05,0,.1,0,.15,0Z"/>
    <path class="cls-1" d="M321.17,459.5c0-1.6-.02-3.2,0-4.79.03-1.92-.25-4.64,2.31-4.52,2.32.11,6.22,1.35,6.54,2.75.93,4.07.76,8.51.32,12.74-.23,2.27-5.39,4.27-7.49,3.23-.79-.39-1.52-1.65-1.61-2.57-.23-2.26-.08-4.56-.07-6.84Z"/>
    <path class="cls-1" d="M867.25,462.27c2.48.06,4.62.59,4.72,3.66.08,2.54-1.63,3.77-4.96,3.77-2.59,0-4.56-.93-4.91-3.67-.28-2.23,2.02-3.78,5.15-3.77Z"/>
    <path class="cls-1" d="M866.94,447.5c1.91,2.06,3.1,3.33,4.29,4.61-1.25,1.04-2.37,2.61-3.8,3-1.97.53-4.26-.44-4.11-2.76.09-1.4,1.93-2.69,3.61-4.85Z"/>
    <path class="cls-1" d="M803.16,457.31c-3.31.43-4.89-1.11-4.86-3.76.02-2.02.18-4.54,3.28-4.65,2.61-.1,5.5,2.86,5.61,5.82.12,3.48-2.78,2.09-4.02,2.59Z"/>
  </g>
  <path class="cls-2" d="M735.25,463.53c-11.21,15.6-26.27,25.38-43.9,31.55-18.24,6.39-36.93,6.93-56.81,3.91,2.09-1.34,3.52-2.32,5.01-3.19,18.62-10.85,33.78-25.15,44.16-44.22,2.06-3.79,2-4.11-2.16-4.77-10.95-1.75-21.83-1.06-32.63,1.26-2.45.53-4.99.91-7.25,1.91-2.86,1.26-5.72,2.77-8.13,4.72-5.65,4.59-10.93,9.65-16.58,14.24-2.08,1.69-2.85,3.34-2.24,5.86,1.23,5.09,2.38,10.2,3.57,15.3.16.67.37,1.32.49,1.99.95,5.45.47,6.27-4.93,5.84-18.69-1.5-35.57-6.93-47.26-22.91-1.6-2.19-2.94-2.12-4.54-.05-7.48,9.73-17.09,16.48-28.99,19.43-6.72,1.66-13.68,2.37-20.55,3.42-2.47.38-3.38-1.03-2.93-3.3,1.17-5.91,2.23-11.86,3.71-17.7,1.32-5.18,1.03-5.96-3.31-9.08-3.4-2.45-6.79-5.11-9.55-8.23-6.04-6.83-13.46-11.01-22.4-11.96-8.6-.91-17.28-1.27-25.93-1.44-2.79-.06-5.62,1.24-8.43,1.92,1.1,2.55,1.92,5.27,3.36,7.61,10.41,16.86,24.62,29.8,41.61,39.82,1.41.83,2.76,1.78,3.95,3.49-2.53.36-5.05.89-7.59,1.07-20.96,1.44-41.22-1.31-60.31-10.51-12.01-5.78-22.09-14.03-30.54-24.33-1.51-1.84-.28-2.58.81-3.58,8.72-7.94,18.78-13.66,29.78-17.78,4.73-1.77,5.32-2.9,3.45-7.67-5.32-13.62-8.17-27.73-8.58-42.33-.13-4.49.24-5.07,4.8-4.94,11.49.34,22.98.91,34.46,1.54,2.24.12,4.44.96,6.67,1.47,2.99.68,4.32-.68,4.35-3.57.03-2.85-.18-5.72.08-8.55,1-11.11,2.02-22.23,3.3-33.31.5-4.36,1.81-4.91,6.77-3.81,11.75,2.62,22.98,6.62,33.58,12.37,4.55,2.47,4.82,1.96,5.96-3.12,1.92-8.53,4.41-16.94,6.84-25.35.99-3.41,3.7-3.08,6.07-1.77,8.45,4.7,17.02,9.23,25.13,14.48,7.66,4.95,5.22,4.83,12.39.27,8.34-5.3,17.07-10.01,25.81-14.66,4.18-2.23,4.87-1.93,6.31,2.77,2.56,8.36,4.68,16.86,6.92,25.32,1,3.75,1.72,4.15,5.14,2.16,11.58-6.74,24.27-10.33,37.18-13.38,2.22-.52,2.98.52,3.17,2.38,1.37,13.59,2.71,27.18,4.03,40.78.13,1.36.09,2.74.05,4.11-.07,2.28,1.09,3.13,3.21,2.8,2.02-.32,4.02-.79,6.05-1.12,12.64-2.05,25.31-3.41,38.15-1.97,2.8.32,3.7,1.26,3.53,4.04-.92,15.23-3.38,30.09-9.56,44.18-2.04,4.65-1.71,5.23,2.95,7.01,10.74,4.1,20.63,9.68,29.48,17.05.95.79,1.83,1.64,2.82,2.53ZM608.77,486.21c-.27-1.81-.32-2.73-.55-3.61-2.43-9.3-5.74-18.26-10.77-26.5-4.69-7.67-10.94-13.79-19.25-17.37-2.08-.9-4.79-.41-7.21-.4-3.91.01-7.98.88-11.7.06-4.28-.94-8.22-1.2-11.85,1.12-3.33,2.13-6.7,4.46-9.33,7.35-9.8,10.79-15.86,23.55-18.72,37.83-.55,2.74.74,3.73,3.21,3.15,4.1-.96,8.19-1.97,12.2-3.26,10.22-3.28,18.48-9.07,22.46-19.44,1.41-3.66,1.74-7.73,2.56-11.61.52-2.43,1.07-4.82,4.38-4.61,3.17.2,3.77,2.51,4.02,5.01,1.82,17.96,20.02,34.18,37.97,33.7.96-.03,1.9-1.03,2.59-1.43ZM521.7,428.67c.63-.39,1.27-.77,1.9-1.16-.24-1.83-.43-3.67-.72-5.5-1.61-9.97-3.6-19.9-4.74-29.92-.73-6.42-.26-12.97-.23-19.47.01-3.11-1.13-5.46-3.74-7.21-8.69-5.83-18.34-9.59-28.17-12.88-3.94-1.32-5.43-.33-5.76,3.69-.93,11.1-1.53,22.24-2.54,33.33-.42,4.65,1.54,7.02,5.62,8.84,14.26,6.35,26.41,15.64,36.77,27.28.73.83,1.09,1.98,1.63,2.99ZM604.39,426.99c.32.24.63.48.95.71.91-.69,2.01-1.24,2.71-2.1,9.88-12.06,22.12-21.03,36.28-27.3,4.53-2.01,6.6-4.86,6.23-9.7-.85-11.13-1.6-22.27-2.5-33.39-.24-2.98-1.72-3.79-4.78-2.97-9.97,2.67-19.33,6.77-28.23,11.99-3.23,1.9-4.53,4.24-4.39,8.05.56,15.67-1.14,31.17-4.33,46.52-.57,2.75-1.29,5.47-1.94,8.2ZM594.5,438.26c.16-2.14.43-3.37.31-4.56-.81-8.02-1.26-16.12-2.67-24.04-3.41-19.05-11.83-35.79-24.56-50.36-2.74-3.14-3.81-3.18-6.48,0-18.09,21.65-27.32,46.52-27.04,74.8.01,1.16.33,2.31.56,3.84,3.51-2.1,6.46-3.98,9.53-5.65,2.31-1.26,3.04-2.65,1.82-5.23-3.36-7.14-2.54-14.15,1.07-21,5.98-11.35,21.15-13.78,30.27-4.83,6.84,6.72,8.76,16.45,5.27,25.56-.47,1.23-.5,3.62.24,4.15,3.45,2.53,7.23,4.6,11.68,7.32ZM645.39,439.3c2.24,0,4.17.32,5.94-.05,11.32-2.33,22.66-2.14,34.02-.53,3.57.5,5.46-.81,6.75-4.12,4.2-10.81,6.52-22.03,7.86-33.49.45-3.84-.08-4.38-3.89-4.53-10.65-.44-21.16.63-31.54,2.99-5.96,1.35-7.21,2.9-8.51,9.12-1.02,4.88-2.24,9.77-3.9,14.47-1.87,5.32-4.32,10.44-6.73,16.16ZM439.75,396.55c-2.17,0-4.33-.03-6.5,0-4.49.07-5.93,1.29-4.95,5.55,2.58,11.18,5.51,22.27,8.45,33.36.78,2.96,3.04,3.8,6.12,3.6,7.93-.52,15.87-.98,23.81-1.01,3.94-.01,7.88,1.1,11.84,1.46,4.29.39,4.75-.4,2.7-4.29-4.99-9.46-8.25-19.48-9.69-30.06-.34-2.49-1.77-3.59-3.86-4.18-9.13-2.55-18.35-4.6-27.91-4.44ZM465.37,491.4c.12-.35.23-.7.35-1.05-.83-.89-1.63-1.81-2.48-2.67-4.25-4.28-8.97-8.2-12.67-12.91-5.24-6.7-9.77-13.97-14.52-21.04-1.37-2.04-2.55-4.45-5.56-2.97-7.53,3.72-15.06,7.47-22.44,11.46-2.73,1.48-2.69,3.25-.34,5.44,1.91,1.78,3.93,3.47,6.01,5.06,13.92,10.69,29.97,16.07,47.11,18.65,1.48.22,3.03.03,4.55.03ZM662.75,490.88c1.17.37,1.6.66,1.99.61,2.93-.37,5.87-.75,8.78-1.24,17.76-2.98,33.44-10.31,46.71-22.57,2.79-2.58,2.75-4.11-.69-6.06-6.04-3.42-12.17-6.7-18.43-9.67-5.06-2.4-6.92-1.62-9.72,3.24-7.05,12.24-15.64,23.24-26.01,32.85-.8.74-1.49,1.61-2.63,2.85ZM480.82,406.13c.11,1.94.01,3.14.28,4.26.62,2.54,1.33,5.06,2.15,7.54,5.84,17.63,16.35,31.86,31.18,42.99,2.28,1.71,3.65,1.55,4.99-1.06,1.5-2.93,3.26-5.74,5.01-8.53,1.41-2.26,1.65-4.46.09-6.69-9.94-14.26-21.65-26.7-36.92-35.39-1.93-1.1-4.04-1.86-6.79-3.11ZM647.95,409.07c-.15-.31-.5-1.68-.89-1.69-1.16-.04-2.46.21-3.48.77-15.23,8.38-27.85,19.63-37.87,33.9-2.7,3.85-3.65,7.01-.51,10.94,1.4,1.75,2.16,4,3.26,5.99,1.73,3.14,3.13,3.42,5.92,1.25,7.41-5.77,14.15-12.19,19.54-19.96,6.5-9.36,11.4-19.43,14.02-31.19ZM599.18,401.4c.45.06.89.12,1.34.18.34-1.52.82-3.03,1.01-4.58,1.6-12.62,1.73-25.27-.14-37.85-1.04-6.97-2.64-13.87-4.33-20.71-.96-3.86-2.56-4.39-6.01-2.38-5.61,3.27-11.19,6.62-16.62,10.19-4.18,2.75-4.17,3.65-.81,7.41,9.07,10.16,15.86,21.7,20.76,34.36,1.71,4.42,3.21,8.91,4.81,13.37ZM527.53,401.08c.3,0,.6,0,.9,0,.45-.9,1.01-1.76,1.32-2.71,5.44-17.04,13.52-32.6,25.47-46.04,1.77-1.99,1.4-3.79-.76-5.14-6.17-3.87-12.36-7.69-18.59-11.46-2.62-1.59-4.04-.39-4.65,2.3-1.07,4.78-2.15,9.55-3.21,14.33-3.12,14.07-2.76,28.31-1.93,42.56.12,2.07.95,4.11,1.44,6.16ZM576.64,417.54c.04-6.78-6.23-13.57-12.52-13.54-6.04.03-11.92,6.66-12.04,13.58-.11,6.73,5.6,13.57,11.43,13.68,6.62.13,13.07-6.62,13.12-13.72Z"/>
</svg>