<?xml version="1.0" encoding="UTF-8"?>
<svg id="Layer_1" xmlns="http://www.w3.org/2000/svg" width="1080" height="1080" viewBox="0 0 1080 1080">
  <defs>
    <style>
      .cls-1 {
        fill: none;
      }

      .cls-2 {
        fill: #1a6f65;
      }
    </style>
  </defs>
  <path class="cls-2" d="M518.62,1007.1c-3.13-2.07-6.26-4.14-9.4-6.2-4.27-2.82-6.36-6.55-5.01-11.78.97-3.75,1.92-7.5,2.82-11.27.41-1.73,1.41-2.42,3.16-2.26,4.58.43,9.18.7,13.75,1.25,6.05.74,11.73.27,16.5-4.04.36-.32.62-.75.86-1.03-21.18-1.45-42.27-2.89-63.35-4.34-.08.19-.17.38-.25.57.9.58,1.76,1.23,2.71,1.72,5.39,2.79,10.84,5.5,16.18,8.38.64.35,1.28,1.65,1.14,2.36-1.49,7.56-3.14,15.08-4.84,23.06-.72-.07-2.12-.29-3.53-.32-5.12-.1-10.26.12-15.35-.32-2.33-.2-4.71-1.39-6.77-2.63-1.56-.93-2.68-2.62-3.95-4.01-2.78-3.06-2.83-6.35.34-9.18,2.23-1.99,3.14-4.26,3.47-7.07.53-4.47,1.16-8.94,1.88-13.38.35-2.19-.29-3.24-2.56-3.7-17.14-3.44-34.31-6.75-51.35-10.63-4.44-1.01-8.7-3.5-12.55-6.07-2.19-1.46-3.23-1.77-4.71.34-.58.83-1.3,1.56-2.2,2.62,1.04.66,1.75,1.24,2.56,1.6,2.39,1.06,4.8,2.1,7.25,3.04,7.91,3.03,8.29,3.19,6.31,11.46-1.16,4.83-3.49,9.39-5.35,14.04-2.37,5.92-2.37,5.85-8.38,3.91-3.29-1.06-6.65-1.88-9.99-2.74-4.78-1.24-8.45-4.17-11.48-7.85-.65-.79-.6-2.74-.1-3.79,2.56-5.38,5.52-10.58,8.05-15.98,1.19-2.53,1.63-5.41,2.6-8.06.93-2.55.15-3.87-2.41-4.61-10.11-2.95-19.5-7.55-28.76-12.52-5.88-3.16-12.01-5.93-18.23-8.37-3.27-1.29-6.97-1.51-10.47-2.21-.17.34-.35.68-.52,1.03,2.67,3.9,5.33,7.8,8.35,12.21-1.78.16-3,.15-4.17.41-3.44.77-6.86,1.63-10.27,2.49-2.04.51-1.91,1.64-1.12,3.31,1.51,3.21,3.09,6.45,4.05,9.85,1.65,5.82-.53,9.63-6.3,11.38-3.16.96-6.45,1.47-10.03,2.25.19-2.31.34-4.04.54-6.41,2.81,0,5.6-.02,8.38,0,2.36.03,3.48-1.01,3.23-3.45-.1-1.04.01-2.1-.02-3.15-.16-5.85,1.14-5.16-5.5-6.09-4.1-.57-8.15-1.54-12.85-2.45,1.04,4.24,2.06,8.37,3.08,12.5-.24.15-.47.3-.71.45-2.49-1.83-5.14-3.49-7.44-5.53-5.04-4.47-10.61-5.42-16.95-3.46-3.06.94-6.25,1.46-10.24,2.37,3.56-5.13,6.21-9.78,12.72-9.55,3.13.11,6.28-.31,9.42-.31,1.77,0,2.95-.51,2.87-2.39-.24-5.76,2.37-10.08,6.23-14.11,2.21-2.31,3.76-5.29,5.41-8.08.5-.85.86-2.55.39-3.1-3.69-4.35-7.6-8.51-11.45-12.74-.26.16-.51.32-.77.48.39.99.74,1.99,1.18,2.96,3.71,8.25,1.93,14.45-5.61,19.51q-8.34,5.6-16.96.71c-3.55-2.02-7.15-3.97-10.57-6.21-4.83-3.16-5.31-5.66-1.55-9.94,3.79-4.32,8.1-8.18,12.03-12.38,2.5-2.68,4.63-5.7,7.09-8.41,1.47-1.63,1.31-2.64-.28-4.1-12.05-11.05-24.06-22.16-36.02-33.31-8.82-8.22-17.57-16.5-26.32-24.79-2.99-2.84-2.94-5.24.45-9.15,3.1,2.92,6.4,5.65,9.25,8.77,5.93,6.51,11.11,13.79,17.53,19.74,13.83,12.82,28.16,25.12,42.47,37.41,27.34,23.49,57.93,41.81,91.08,55.76,10,4.21,20.6,7.02,30.98,10.34,13.76,4.4,27.44,9.12,41.38,12.87,16.72,4.49,33.85,6.97,51.18,7.77,16.02.74,32.04,1.25,48.06,1.98,2.69.12,5.43.62,8.02,1.35,2.55.72,3.65,2.62,2.68,5.78-1.21-.64-2.26-1.23-3.34-1.76-2.33-1.14-3.8-.45-3.76,2.14.05,3.1.6,6.2.98,9.63-2.88.44-5.75.84-8.6,1.33-3.07.53-5.38,2.21-7.83,4.2-2.89,2.34-6.68,3.61-10.19,5.08-.43.18-2.13-1.2-2.22-1.99-.3-2.46-.11-4.97-.11-7.64-1.57.1-2.69.19-3.81.22-1.88.06-4.95-.62-5.43.22-1.89,3.28-3.19,6.97-4.19,10.64-.25.92,1.45,2.34,2.21,3.56,2,3.25,3.97,6.52,5.95,9.78h-.63ZM486.25,993.2c-1.94-2.44-3.67-4.77-5.59-6.92-.53-.59-1.76-1.08-2.46-.89-4.57,1.29-9.08,2.79-13.63,4.22,3.8,8.97,12.25,10.43,21.69,3.59ZM378.93,967.69c3.41,7.39,5.39,8.54,13.16,7.75,4.34-.44,6.89-2.91,8.04-7.77-5.69-2.99-15.12-3.02-21.2.02ZM305.71,919.44c1.72,2.76,3.03,5.15,4.64,7.32.56.75,2.08,1.57,2.77,1.31,3.46-1.29,6.8-2.92,10.34-4.51-1.79-2.78-3.18-5.24-4.89-7.45-.54-.7-2.13-1.3-2.89-1.02-3.3,1.22-6.47,2.79-9.96,4.35ZM280.32,908.48c-3.71-3.8-12.95-7.57-17.02-6.87,2.42,6.63,7.87,9.52,13.67,11.96,1.21-1.83,2.22-3.36,3.35-5.09ZM297.6,927.06c2.85,4.76,11.8,8.33,16.95,6.85-4.98-4.13-9.9-7.41-16.95-6.85ZM294.17,889.01c-2.75-4.56-8.82-5.06-11.4-1.27-.99,1.45-.79,2.54,1.09,2.42,3.35-.22,6.68-.72,10.31-1.14Z"/>
  <path class="cls-2" d="M311.03,821.18c4.66,1.59,8.69,2.99,12.73,4.34,29.12,9.73,59,11.76,89.39,8.86,21.54-2.06,42.49-7.2,63.58-11.69,6.41-1.36,13.07-2.05,19.62-2.12,24.43-.24,48.87.25,73.29-.21,17.55-.33,34.36,2.77,50.88,8.27,18.47,6.15,37.44,7.46,56.79,6.48,24.09-1.23,47.41-6.88,70.96-11.27,6.48-1.21,13.05-1.91,19.58-2.79,1.22-.16,2.47-.02,4.08-.02-1.07,4.66-3.01,8.63-6.59,11.24-6.94,5.06-14.06,9.87-21.32,14.45-20.4,12.88-41.4,24.67-63.48,34.49-28.87,12.84-58.87,21.77-90.17,26.33-18.49,2.69-37.06,4.45-55.73,4.21-21.66-.27-43.03-3.59-63.98-8.92-18.05-4.59-36.05-9.59-53.68-15.58-27.52-9.35-54.12-20.98-78.38-37.28-10.12-6.8-19.69-14.34-25.88-25.24-.54-.95-.96-1.98-1.7-3.53Z"/>
  <path class="cls-2" d="M768.76,465.66c-30.52,0-61.03-.07-91.55.07-5.18.02-9.66-1.4-13.9-4.13-5.2-3.35-10.34-6.8-15.62-10-8.72-5.29-18.41-7.34-28.46-8.02-12.54-.85-25.09-1.69-37.63-2.63-5.36-.4-5.37-.52-6.66-5.65-.08-.3-.07-.65-.2-.92-4.2-8.28-2.92-16.42.86-24.38.56-1.17,2.02-2.52,3.22-2.69,13.67-1.95,27.34-4.17,41.09-5.41,41.93-3.76,83.99-3.55,126.03-3.15,36.18.34,72.35,1.05,108.52,1.62,7.35.11,12.3,3.79,15.1,11.57,2.69,7.48,4.92,15.14,7.62,22.62,2.21,6.1,4.77,12.07,7.25,18.07,3.28,7.95,1.82,11.34-6.62,12.53-7.96,1.12-16.06,1.64-24.11,1.69-28.31.19-56.63.08-84.94.08,0-.42,0-.84,0-1.26Z"/>
  <path class="cls-2" d="M331.06,399.84c35.86,0,71.71-.16,107.57.08,13.2.09,26.39,1.3,39.15,5.01,3.97,1.15,7.81,3.01,11.4,5.08,3.36,1.94,5.11,5.19,4.8,9.27-.2,2.71-.24,5.45-.64,8.13-1.64,11.07-6.9,15.74-18.07,16.11-7.64.25-15.32.03-22.93.67-15.58,1.3-29.83,5.96-41.65,16.94-2.37,2.2-6.33,3.41-9.68,3.68-8.76.71-17.59.84-26.39.85-58.3.05-116.6.01-174.9,0-4.76,0-4.73-.02-3.95-4.77,1.99-12.1,6.65-23.33,11.08-34.64,2.94-7.51,5.88-15.02,8.49-22.65.88-2.57,2.07-3.31,4.67-3.31,37.01.08,74.03.05,111.04.05,0-.17,0-.34,0-.51Z"/>
  <path class="cls-2" d="M733.43,259.21c-1.4,0-2.53,0-3.66,0-49.91,0-99.83-.03-149.74.06-2.91,0-4.08-.88-5.09-3.64-3.87-10.69-10.26-19.7-19.64-26.28-12.37-8.69-26.59-8.34-39.6.72-9.82,6.84-17.17,15.95-23.52,25.91-1.54,2.43-3.22,3.3-6.06,3.29-45.51-.08-91.02-.06-136.53-.06-1.13,0-2.27,0-3.86,0,.77-3.74,2.82-6.18,5.47-7.7,6.44-3.68,12.97-7.28,19.71-10.36,17.44-7.96,34.79-16.18,52.61-23.2,12.52-4.93,25.57-8.82,38.7-11.79,14.67-3.32,29.68-5.22,44.58-7.43,5.37-.8,10.86-.86,16.3-.98,22.55-.5,45.08-.26,67.43,3.28,23,3.64,45.77,8.54,67.56,16.83,14.46,5.51,28.38,12.46,42.48,18.89,8.57,3.91,17.08,7.96,25.53,12.14,4.4,2.17,6.02,4.67,7.3,10.32Z"/>
  <path class="cls-2" d="M687.97,485.47c1.79-.1,3.02-.22,4.25-.22,65.23-.01,130.47-.01,195.7,0,4.47,0,4.29.04,4.84,4.45,1.02,8.09,2.79,16.12,3.32,24.24.68,10.24.47,20.54.5,30.81,0,.68-1.19,1.54-2,1.99-.56.31-1.44.07-2.17.07-61.35,0-122.71-.03-184.06.07-2.88,0-3.89-.9-4.61-3.62-4.73-17.81-9.67-35.57-14.54-53.35-.35-1.29-.71-2.58-1.23-4.44Z"/>
  <path class="cls-2" d="M382.48,485.24c-1.42,4.74-2.7,8.89-3.9,13.07-4.02,13.98-8.2,27.91-11.94,41.96-1.71,6.43-1.32,6.54-8.14,6.54-57.24,0-114.47,0-171.71,0-1.43,0-2.86,0-4.62,0,.46-5.27.83-10.04,1.29-14.81,1.16-11.88,2.76-23.74,3.37-35.65.34-6.63,5.57-11.87,12.75-12.08,7.22-.21,14.45-.09,21.68.08,8.17.19,16.33.83,24.5.85,43.92.09,87.85.05,131.77.05,1.44,0,2.87,0,4.94,0Z"/>
  <path class="cls-2" d="M807.47,566.15c28.3,0,56.61,0,84.91,0,4.33,0,4.44.18,4.12,4.42-1.24,16.61-2.52,33.22-3.61,49.84-.19,2.94-1.1,3.91-4.11,3.9-52.94-.08-105.88-.08-158.82,0-2.77,0-3.93-.8-4.82-3.5-3.7-11.23-7.89-22.31-11.56-33.55-1.25-3.83-1.9-7.96-2.14-11.99-.32-5.33,2.04-7.84,7.36-8.8,1.43-.26,2.92-.3,4.38-.3,28.1-.02,56.19-.01,84.29-.01Z"/>
  <path class="cls-2" d="M84.38,480.05c.78-.55,1.33-.75,1.57-1.14,5.04-8.35,13.33-11.71,22.01-14.57,5.17-1.7,10.48-3.21,15.29-5.65,3.3-1.68,5.82-4.86,8.75-7.29,1.16-.97,2.49-1.75,3.22-2.25-.64-2.12-1-4.65-2.12-6.78-1.83-3.47-3.6-7.26-6.36-9.9-13.21-12.57-26.75-24.8-40.18-37.15-10.11-9.3-20.2-18.61-30.35-27.86-1.41-1.28-1.92-2.39-1.09-4.3,2.09-4.8,3.98-9.69,5.84-14.59.68-1.8,1.68-2.2,3.59-1.99,13.43,1.47,26.87,2.8,40.31,4.13,16.46,1.63,32.93,3.25,49.4,4.8,2.91.27,5.93.63,8.77.17,2.46-.4,5.19-1.41,6.98-3.05,2.1-1.94,3.6-2.04,5.99-.17-5.22,12.98-10.47,26.05-15.76,39.21-2.71-.31-4.12-1.17-3.93-4.16.27-4.3-1.06-6.7-5-7.64-6.39-1.53-12.93-2.43-19.44-3.38-.72-.11-2.06,1.01-2.41,1.85-3.82,9.19-7.56,18.41-11.15,27.69-.38.99-.16,2.9.54,3.5,3.96,3.42,7.93,6.89,12.3,9.73,5.99,3.88,8.58,3.3,13.76-1.55.56-.53,2.24-.54,2.9-.08.62.43,1.02,1.98.73,2.75-2.03,5.5-3.83,11.14-6.52,16.32-4.92,9.5-5.42,19.86-6.78,30.08-.4,3.01-.89,6.04-.92,9.06-.04,3.04-1.57,4.56-4.17,5.48-10.06,3.56-20.12,7.12-30.17,10.73-2.85,1.02-5.73,2.05-8.45,3.37-4.73,2.29-8.16,9.25-7.04,14.3.16.73,1.55,1.56,2.47,1.68,6.53.89,13.09,1.62,19.64,2.38,2.91.34,5.83.64,8.75.92,4.53.44,7.92-1.1,10.02-5.4.42-.87,2.07-1.56,3.13-1.54.57.01,1.66,1.78,1.57,2.66-1.29,12.08-2.73,24.13-4.15,36.2-.06.5-.19,1-.28,1.46-3.02.72-4.65-.2-5.16-3.28-.7-4.27-4.03-5.7-7.72-6.22-8.09-1.14-16.2-2.1-24.31-3.07-15.18-1.81-30.36-3.58-45.54-5.36-2.81-.33-5.62-.61-8.44-.89-4.58-.46-8.38.66-10.29,5.31-.85,2.06-2.53,1.83-3.92,1.29-.61-.24-1.09-1.87-.98-2.79,1.99-16.74,3.72-33.53,6.33-50.18.95-6.06,3.37-12.14,6.3-17.58,5.03-9.34,16.43-13.25,27.54-11.12,12.88,2.48,19.87,10.72,23.59,22.59.32,1.03.82,2.01,1.33,3.25ZM52.47,476.82c-8.22.4-15.17,2.8-18.16,10.87-1.78,4.8-2.09,10.17-2.83,15.32-.09.6,1.18,1.82,2,2.03,2.01.51,4.13.62,6.21.86,11.12,1.33,22.24,2.64,33.35,4.01,2.12.26,3.17-.49,3.29-2.63.22-4.07.83-8.16.65-12.21-.31-7.11-3.82-12.51-10.55-14.98-4.45-1.63-9.29-2.22-13.96-3.27ZM75.37,370.07c-.16.34-.33.69-.49,1.03,11.73,10.38,23.45,20.76,35.65,31.55,3.83-9.58,7.34-18.36,11.08-27.72-15.79-1.66-31.02-3.26-46.24-4.87Z"/>
  <path class="cls-2" d="M269,624.87c-22.43,0-44.86.01-67.29-.01-2.4,0-4.81-.13-7.21-.34-4.01-.34-6.29-2.67-6.85-6.57-.56-3.94-.78-7.92-1.36-11.85-1.18-7.97-2.32-15.95-3.79-23.87-1.98-10.59.89-14.5,11.66-15.57,22.8-2.27,45.66-1.11,68.49-1.1,27.67.02,55.34.37,83.02.58,2.83.02,5.66.08,8.49-.03,2.06-.08,2.75.75,2.72,2.78-.18,9.62-2.06,18.88-5.07,28.01-2.71,8.22-5,16.59-7.19,24.97-.65,2.5-2.1,2.38-3.91,2.38-23.9-.01-47.8,0-71.7,0,0,.21,0,.42,0,.63Z"/>
  <path class="cls-2" d="M849.01,377.1h-233.43c-.63-7.58-.56-15-2.03-22.1-1.45-6.98-4.46-13.63-6.95-20.91,2.72,0,4.97,0,7.22,0,54.51,0,109.03,0,163.54,0,14.68,0,29.35-.06,44.03.04,1.07,0,2.6.8,3.14,1.69,7.5,12.46,14.87,25,22.27,37.51.63,1.07,1.26,2.14,2.21,3.77Z"/>
  <path class="cls-2" d="M816.35,643.58c21.07,0,42.14,0,63.21,0,4.18,0,4.25.06,3.95,4.25-.87,12.2-5.22,23.43-9.57,34.67-3.51,9.08-7.08,18.14-10.37,27.29-.86,2.4-1.94,3.17-4.46,3.17-38.68-.08-77.37-.09-116.05.01-3.1,0-3.84-1.03-3.39-3.84,1.07-6.72,1.83-13.49,3.05-20.18,1.55-8.51.07-16.68-2.17-24.8-1.06-3.83-2.45-7.57-3.42-11.42-1.12-4.42.27-6.83,4.83-7.78,4.08-.84,8.29-1.42,12.45-1.46,18.86-.18,37.72-.13,56.58-.16,1.78,0,3.56,0,5.35,0,0,.08,0,.16,0,.24Z"/>
  <path class="cls-2" d="M233.24,376.26c2.47-5.38,4.72-10.88,7.47-16.11,4.17-7.93,9.39-15.14,16.12-21.15,3.66-3.26,7.75-4.97,12.82-4.97,61.98.09,123.96.06,185.94.06,4.38,0,4.48.03,3.86,4.4-1.73,12.13-4.41,24.14-3.94,36.5.07,1.83-.87,2.41-2.51,2.35-.94-.03-1.89,0-2.83,0-70.58,0-141.16,0-211.74,0-1.43,0-2.86,0-4.29,0-.3-.37-.6-.73-.9-1.1Z"/>
  <path class="cls-2" d="M273.96,643.58c17.61,0,35.22,0,52.84,0,4.24,0,4.64.2,4.26,4.48-.75,8.22-1.12,16.58-2.93,24.59-2.79,12.33-1.08,24.14,2.01,35.99,1.12,4.29,1.18,4.27-3.36,4.27-34.07,0-68.14-.04-102.21.07-2.92,0-4.67-.76-5.75-3.54-5-12.76-10.13-25.47-15.17-38.21-2.16-5.45-4.37-10.89-6.28-16.43-2.05-5.93-.25-9.21,5.98-10.06,7.14-.98,14.37-1.67,21.57-1.78,16.35-.26,32.7-.08,49.05-.08,0,.24,0,.47,0,.71Z"/>
  <path class="cls-2" d="M781.86,919.73c.45-2.29.77-3.92,1.09-5.56-1.82.02-3.71-.26-5.46.12-5.33,1.16-5.4,1.42-4.33,6.76.97,4.82,2.81,8.63,8.45,9.5,3.51.54,5.79,3.14,7.64,7.02-7.82-.93-15.62-.39-21.32-6.25-1.82-1.87-2.78-5.22-2.93-7.96-.52-9.15,4.93-16.23,14.74-20.02,2.64-1.02,5.31-1.97,7.9-3.1,1.54-.67,3.27-1.5,2.05-3.74-1.27-2.33-3.77-3.18-5.67-1.95-5.63,3.64-11.25,7.31-16.87,10.97-7.29,4.75-14.43,9.73-21.91,14.17-3.83,2.28-8.25,3.55-12.37,5.35-1.19.52-2.27,1.29-3.4,1.95.7.83,1.26,1.85,2.12,2.45,1.3.91,2.64,2.18,4.45.6,3.46-3.03,7.45-4.94,12.06-5.64,2.18-.33,3.77-.18,5.19,1.74,3.12,4.2,6.72,8.07,9.56,12.44,3.12,4.79,1.78,8.55-3.36,11.03-2.05.99-4.24,1.7-7.19,2.86.71-2.67,1.05-4.68,1.78-6.54,2.04-5.17-.74-9.62-2-14.28-.13-.48-1.69-1.05-2.33-.82-4.03,1.4-8.21,2.62-11.9,4.68-4,2.23-4.9,5.35-3.29,9.72,1.44,3.92,3.45,7.62,5.15,11.45.83,1.86,1.53,3.77,2.57,6.36-6.3-1.25-10.76-3.82-14.07-8.26-3.56-4.76-4.99-10.31-5.62-16.12-.54-4.95-.69-5.26-5.3-3.63-8.17,2.9-16.2,6.22-24.27,9.39-.43.17-.77.58-1.21.91,3.25,2.17,6.21,2.28,9.26-.24,2.9-2.39,5.4-2.07,8.23-.11,4.42,3.07,7.83,6.91,9.86,11.94,1.83,4.53,3.71,9.03,5.67,13.81-2.5.35-4.56.57-6.6.93-3.64.63-7.18,1.4-9.62,4.68-.6.81-2,1.46-3.02,1.43-4.89-.12-9.85-.06-14.63-.92-4.18-.75-5.25-3.81-3.3-7.68,2.81-5.54,7.63-9.06,12.76-12.21.33-.2.64-.42,1.78-1.16-2.49-.85-4.3-1.47-6.1-2.08-.15.26-.29.51-.44.77.57.6,1.14,1.2,1.78,1.87-.31.06-.61.22-.83.14-2.44-.86-5.1-1.4-7.26-2.73-6.4-3.93-12.27-4.56-19.9-1.94-12.7,4.37-26.13,6.62-39.25,9.76-6.11,1.46-12.33,2.59-17.46,6.64-.98.77-2.09,1.36-3.59,2.32,3.23,2.43,5.36,2.41,7.94,1.43,3.86-1.48,7.86-2.65,11.88-3.62.99-.24,2.72.53,3.37,1.39,1.82,2.42,3.46,5.02,4.79,7.74,2.38,4.85-.07,9.28-1.5,14.64-1.47-2.84-2.51-4.96-3.64-7.04-2.64-4.86-7.06-7.64-11.89-9.84-.58-.27-2.02.11-2.31.62-1.53,2.73-3.19,5.48-4.08,8.44-1.16,3.85.35,6.23,4.29,7.4,2.7.8,5.52,1.17,8.29,1.71,1.12.21,2.25.34,4.11.61-4.15,4.48-7.78,8.61-13.58,9.69-4.68.87-7.84-1.54-10.15-5.31-3.7-6.03-4.64-12.9-6.2-19.66-2.17-9.47-4.84-18.84-7.76-28.11-.97-3.09-3.53-5.65-5.1-8.59-1-1.87-1.52-3.99-2.28-6.1,6.42-.84,15.19,5.02,17.45,11.56,1.12,3.25,1.95,6.66,2.34,10.07.31,2.72,1.34,3.06,3.64,2.49,14.03-3.43,28.19-6.38,42.08-10.29,20.05-5.64,39.9-12,59.86-17.96,2.04-.61,2.58-1.31,2.09-3.52-.95-4.38-2.88-8.28-6.12-11.11-2.69-2.35-6.24-3.73-9.4-5.54,3.6-5.32,8.43-6.24,13.62-2.49,4.09,2.95,7.2,6.78,9,11.47,1.09,2.85,2.58,3.11,5.27,2.31,15.05-4.47,28.51-12.09,41.39-20.82,24.91-16.9,47.04-37.11,68.58-58,10.84-10.51,21.68-21.02,32.55-31.5,1.02-.99,2.24-1.78,3.7-2.92,1.74,4.98-2.74,6.89-4.31,10.48,3.05.54,5.88.95,8.67,1.55,5.66,1.22,10.7,3.71,14.66,8.02,5.86,6.39,4.73,12.98-2.92,16.95-1.9.98-4.03,1.51-6.56,2.42.32-1.45.46-2.35.72-3.22.79-2.61,1.64-5.2,2.43-7.8,2.27-7.5,1.07-10.17-5.87-13.59-1.87-.92-3.3-.93-3.85,1.31-1.06,4.34-2.36,8.68-2.86,13.09-.65,5.84-3.19,10.49-7.73,15.22.44-6.05-4.72-5.71-7.52-7.91-1.36-1.07-2.37-.16-2.39,1.52-.03,3.78-.18,7.56.1,11.32.07.91,1.46,2.2,2.48,2.48,4.96,1.37,10,2.38,15.12.54.95-.34,2.03-.34,3.64-.59,0,1.63.22,3.09-.09,4.41-.17.73-1.26,1.83-1.88,1.8-7.19-.37-14.46-.4-21.52-1.6-6.17-1.05-8.59-6.02-5.74-11.6,2.92-5.74,6.86-10.96,10.46-16.34,2.18-3.27,4.55-6.4,6.84-9.6-.27-.31-.54-.62-.81-.93-1.25.69-2.71,1.17-3.73,2.12-3.9,3.64-7.88,7.23-11.44,11.19-8.89,9.9-18.86,18.46-30.15,25.5-.84.52-1.79,2.27-1.5,2.91.84,1.83,4.41,2.69,5.52,1.67.38-.35.81-.74,1.01-1.2,2.06-4.91,5.83-5.27,10.68-5.14,5.45.14,9.46.46,11.11,6.88.69,2.67,3.88,4.77,6.08,6.96,4.08,4.06,4.19,4.07.42,8.18-5.07,5.53-10.58,10.51-18.02,12.68-1.48.43-3.09.64-4.64.61-4.8-.07-7.57-3.38-6.75-8.12,1.14-6.65,4-12.13,10.71-14.79.74-.29,1.39-.82,2.73-1.64-1.93-1.39-3.38-2.67-5.06-3.49-.51-.25-1.94.54-2.44,1.22-2.71,3.74-5.26,7.59-8.27,12-1.99-1.7-4.56-3.87-7.08-6.09-.86-.76-1.58-1.68-2.41-2.48-1.44-1.39-3.08-1.61-4.41-.05-3.64,4.28-7.15,8.68-11.12,13.52,1.47.39,2.2.66,2.95.78,5.61.88,10.79,2.73,14.9,6.81,4.04,4.01,6.16,8.73,4.5,14.52-1.69,5.88-6.26,8.52-12.63,10.72.64-3.5,1.14-6.28,1.65-9.06.83-4.52,1.68-9.03,2.49-13.55.45-2.51-.77-3.4-3.17-3.3-2.62.1-5.24.05-7.86.01-1.85-.03-2.69.77-2.52,2.67.24,2.71.32,5.44.59,8.15.35,3.53-.88,6.17-4.11,7.75-2.79,1.37-5.61,2.69-8.67,4.15ZM828.83,897.51c7.99-2.38,13.67-10.94,12.3-18.2-10.26,4.28-12.75,5.66-12.3,18.2ZM696.63,975.32c.28.13.55.26.83.39,4.87-5.23,9.74-10.47,14.73-15.83-4.22.92-8.7,1.71-13.03,2.95-1.06.31-2.28,2.04-2.41,3.23-.34,3.05-.11,6.17-.11,9.26Z"/>
  <path class="cls-2" d="M802.22,314.39c-1.59.07-2.62.16-3.65.16-61.45,0-122.89-.02-184.34.07-2.88,0-4.38-1.12-6.11-3.27-4.99-6.19-10.43-12.01-15.57-18.09-3.4-4.02-5.98-8.51-7.09-14.18,1.74-.12,3.15-.31,4.57-.31,40.79-.02,81.58-.03,122.37,0,12.15,0,24.35-.48,36.45.37,16.37,1.15,31.89,5.27,43.63,18.02,4.44,4.83,7.58,10.44,9.74,17.24Z"/>
  <path class="cls-2" d="M276.98,314.56c6.73-11.23,14.91-19.92,24.47-27.46,5.74-4.52,12.4-6.17,19.29-6.73,16.07-1.3,32.18-3,48.27-3.04,37.01-.09,74.02.72,111.03,1.17,1.44.02,2.88.22,4.91.38-1.08,1.91-1.9,3.42-2.76,4.9-4.06,6.98-8.18,13.87-14.11,19.56-2.46,2.36-4.36,5.37-6.15,8.31-1.38,2.27-3.02,2.96-5.62,2.95-23.39-.1-46.77-.06-70.16-.06-34.71,0-69.42,0-104.13,0-1.44,0-2.87,0-5.05,0Z"/>
  <path class="cls-2" d="M180.62,341.39c-2.89-1.32-3.86-2.72-2.64-5.61,1.71-4.05-.64-7.11-3.56-9.57-5.21-4.38-10.55-8.61-15.87-12.86-14.58-11.63-29.17-23.25-43.78-34.85-1.31-1.04-2.73-1.95-4.15-2.83-2.65-1.65-5.47-1.81-7.98.03-2.45,1.8-4.17,1.34-6-1.32,2.34-2.98,4.72-6.11,7.21-9.15,8.81-10.79,17.49-21.7,26.56-32.27,5.16-6.01,11.62-10.59,19.04-13.58,11.81-4.75,23.37-3.93,34.58,1.94,12.97,6.79,23.83,15.98,31.43,28.63,8.24,13.72,7.88,27.89,1.39,42.12-5.19,11.39-13.46,20.68-21.09,30.39-4.98,6.33-10.05,12.59-15.12,18.93ZM151.28,235.81c-3.7.99-7.51,1.67-11.07,3.04-6.61,2.53-10.97,7.81-15.2,13.23-1.65,2.12-1.29,3.24.68,4.8,21.34,16.91,42.59,33.94,63.92,50.85,4.83,3.83,3.38,4.08,7.58-.78,12.37-14.3,12.69-28.06.87-42.44-7.45-9.06-16.39-16.49-26.64-22.22-6.17-3.45-12.74-5.86-20.15-6.49Z"/>
  <path class="cls-2" d="M633.78,113.83c.26-1.04.64-2.06.75-3.11,1.78-17.19,3.53-34.38,5.27-51.57.24-2.4.37-4.8.56-7.21.34-4.28-.95-7.6-5.21-9.38-2.8-1.17-1.44-3.16-.87-5.2,9.04,1.05,17.96,2.07,26.86,3.2.53.07,1.39,1.16,1.3,1.64-.19,1.09-.74,2.91-1.38,3.02-7.52,1.27-8.32,7.19-9.02,12.97-2.26,18.82-4.32,37.66-6.51,56.48-1.14,9.78-2.45,19.53-3.58,29.31-.24,2.1-1.03,2.55-3.07,2.24-4.55-.69-9.14-1.2-13.74-1.54-1.93-.14-3.01-.8-3.78-2.58-8.25-19.26-16.61-38.47-24.84-57.73-3.46-8.09-6.68-16.28-10.03-24.41-.26-.64-.67-1.22-1.47-2.64-.46,1.62-.86,2.49-.95,3.39-1.8,17.6-3.55,35.21-5.33,52.82-.39,3.85-.92,7.69-1.24,11.55-.35,4.24,1.06,7.51,5.17,9.51.9.44,1.37,2.25,1.5,3.48.04.4-1.69,1.48-2.53,1.39-8.33-.88-16.64-1.93-24.95-2.95-.39-.05-.76-.28-1.17-.43-.36-2.57.18-4.34,3.05-4.85,3.65-.64,5.66-3.06,6.18-6.62,1.07-7.35,2.11-14.71,2.99-22.08,2.24-18.61,4.31-37.24,6.62-55.84.67-5.44-.22-9.8-5.73-12.23-.57-.25-.82-1.22-1.21-1.86.61-.3,1.22-.87,1.82-.85,9.3.36,18.61.73,27.9,1.32,1.03.07,2.44,1.35,2.88,2.4,10.51,25.23,20.9,50.5,31.35,75.75.4.97,1.05,1.83,1.58,2.75.28-.04.55-.08.83-.13Z"/>
  <path class="cls-2" d="M532.38,92.45c.1,7.94-1.03,15.65-3.9,23.09-4.57,11.82-13.06,19.54-24.85,23.72-10.48,3.71-21.33,4.7-32.24,2.72-13.45-2.45-22.59-10.73-27.82-23.08-6.82-16.1-8.78-32.93-5.7-50.19,3.34-18.69,17.47-32.18,36.35-35.18,8.35-1.33,16.69-1.8,24.98.21,14.65,3.56,23.16,13.66,28.05,27.22,3.66,10.14,5,20.74,5.13,31.5ZM508.88,99c-.68-5.79-1.44-14.24-2.73-22.61-1.43-9.25-3.76-18.31-9.15-26.19-4.4-6.44-10.32-10.03-18.44-8.88-7.83,1.11-12.83,5.6-15.6,12.9-2.74,7.23-3.25,14.77-2.72,22.31.59,8.44,1.52,16.9,2.95,25.24,1.6,9.33,4.14,18.47,10.58,25.87,9.21,10.57,25.81,7.79,31.35-5.05,2.9-6.73,3.35-13.78,3.76-23.6Z"/>
  <path class="cls-2" d="M1031.59,380.31c.37,12.31-5.56,22.58-15.83,30.28-14.59,10.94-30.98,17.43-49.4,17.9-17.66.46-30.11-8.07-38.43-23.14-4.23-7.67-7.11-15.83-7.83-24.67-1.04-12.98,3.43-23.85,13.29-32.08,14.39-12.02,31.1-18.91,49.9-19.91,19.38-1.03,33.06,8,41.77,25.02,4.29,8.36,6.46,17.14,6.54,26.61ZM953.61,408.06c1.55-.13,3.34-.17,5.09-.45,12.85-2.02,24.85-6.62,36.44-12.33,7.46-3.68,14.48-7.99,20.13-14.26,10.35-11.49,4.1-27.45-7.15-30.59-5.08-1.42-10.85-1.51-16.12-.81-12.89,1.7-24.79,6.76-36.37,12.49-7.46,3.69-14.51,7.99-19.82,14.61-5.32,6.62-5.99,14.31-1.92,21.7,4.26,7.74,11.53,9.37,19.73,9.65Z"/>
  <path class="cls-2" d="M1038.87,532.42c-.17-1.16-.19-1.68-.33-2.17-1.44-5.12-.48-8.45,5.09-10.98,14.49-6.58,10.67-28.33-1.29-35.4-8.28-4.89-17.35-6.1-26.63-5.99-12.72.16-25.27,1.75-37.34,6.09-5.59,2.01-10.79,4.66-14.85,9.12-4.75,5.21-5.67,12.15-2.44,18.39,2.53,4.9,7.08,6.6,12.1,6.36,5.83-.28,11.63-1.3,17.42-2.14,3.38-.49,5.51-2.71,6.13-5.95.52-2.76,2.06-3.34,4.95-2.99.61,4.47,1.31,9.08,1.87,13.7.89,7.28,1.76,14.56,2.45,21.85.11,1.19-.36,3.11-1.19,3.59-1.57.89-3.15.16-4.03-1.73-1.66-3.54-4.84-4.6-8.38-4.28-8.96.82-17.94,1.64-26.85,2.87-7.76,1.07-7.61,1.27-10.22-6.18-.91-2.59-.9-4.55,1.33-6.37,2.27-1.86,2.49-3.67.59-6.37-9-12.75-9.98-39.91,2.67-53.01,6.41-6.64,14.22-10.64,22.93-13.02,13.78-3.76,27.72-5.6,41.9-2.23,18.94,4.49,30.36,16.57,34.8,35.25,2.86,12.06,2.57,24.34,1.23,36.59-.1.9-1.07,2.33-1.8,2.44-6.59.99-13.22,1.74-20.09,2.59Z"/>
  <path class="cls-2" d="M684.61,162.02c-4.49-1.99-9.06-4.01-13.63-6.04-4.6-2.04-9.23-4-13.76-6.18-.77-.37-1.77-1.95-1.54-2.42.49-.99,1.74-2.29,2.64-2.26,5.3.2,9.33-2.31,12.83-5.76,8.97-8.83,17.82-17.77,26.68-26.71,13.59-13.7,27.18-27.4,40.68-41.19,1.91-1.95,3.47-2.37,5.98-1.04,3.88,2.05,7.95,3.79,12.04,5.39,2.47.96,3.31,2.27,2.92,4.94-1.68,11.5-3.2,23.03-4.75,34.55-2.21,16.4-4.4,32.8-6.57,49.2-.52,3.95-1.04,7.89-1.43,11.85-.35,3.61.49,6.95,3.26,9.46,1.64,1.49,1.51,3.07.3,4.34-.51.54-2.28.37-3.22-.05-11.3-5.01-22.56-10.12-33.82-15.21-.75-.34-1.46-.76-2.22-1.15.5-2.81,1.68-3.99,4.74-3.42,3.36.63,6.18-1.11,7.31-4.62,1.43-4.46,2.6-9.06,3.29-13.69,1.11-7.41.93-7.5-6.02-10.69-7.23-3.33-14.54-6.5-21.77-9.83-1.79-.83-3.12-.76-4.37.85-3.65,4.69-7.75,9.09-10.91,14.09-2.79,4.41-1.84,7.24,1.98,10.87q1.61,1.52-.64,4.72ZM701.96,123.83c9.35,4.18,18.03,8.06,27.22,12.17,2.29-15.83,4.47-30.94,6.66-46.05l-.97-.54c-10.82,11.31-21.63,22.63-32.91,34.43Z"/>
  <path class="cls-2" d="M945.18,658.47c1.64-14.07,3.26-27.99,4.89-41.95,2.89-.71,4.32,0,4.87,3.06.72,3.95,2.73,6,6.64,5.88,6.67-.22,13.31-1.15,19.95-1.93.64-.08,1.59-1.14,1.68-1.84,1.31-10.18,2.54-20.37,3.64-30.58.09-.88-.65-2.39-1.41-2.74-5.03-2.31-10.05-4.8-15.31-6.43-6.22-1.93-8.68-.46-12.05,5.16-.44.74-2.11,1.18-3.07,1-.57-.11-1.3-1.74-1.21-2.62.79-7.6,1.75-15.19,2.66-22.78.2-1.66.24-3.37.65-4.98.21-.84,1.15-2.22,1.57-2.15,1.07.17,2.7.83,2.92,1.62,1.64,5.96,6.14,9.16,11.12,11.76,24.36,12.67,48.77,25.23,73.17,37.83,3.63,1.88,7.36,3.59,10.85,5.69,1.07.65,2.21,2.39,2.13,3.55-.36,5.43-1.22,10.82-1.73,16.24-.24,2.52-2.19,2.26-3.69,2.53-8.87,1.57-17.76,3-26.64,4.52-20.75,3.54-41.5,7.1-62.24,10.67-2.17.37-4.51.48-6.41,1.43-2.62,1.32-5.45,2.9-7.16,5.15-1.65,2.16-3.01,2.83-5.8,1.91ZM995.18,592.69c-1.18,10.11-2.29,19.6-3.47,29.67,15.77-2.55,30.82-4.99,45.87-7.43l.12-1.16c-13.82-6.85-27.63-13.7-42.53-21.08Z"/>
  <path class="cls-2" d="M57.56,663.99c-5.05.6-9.81,1.17-14.56,1.74-2.7.33-5.44.49-8.09,1.07-2.79.61-4.04-.17-4.34-3.09-.98-9.37-2.12-18.73-3.23-28.09-2.05-17.37-4.12-34.73-6.18-52.09-.07-.62-.08-1.26-.12-1.88-.48-6.71-.48-6.67,6.13-7.38,5.52-.6,11.04-1.2,16.53-1.98,2.79-.4,3.7.81,3.99,3.34.69,6.1.74,6.08-4.79,8.65-1.33.62-2.64,1.29-3.91,2.02-4.73,2.69-7.37,6.4-7.18,12.22.32,10.11.1,9.91,9.9,8.68,15.48-1.94,31-3.56,46.5-5.33,9.46-1.08,18.93-2.1,28.37-3.35,5.7-.76,7.8-2.86,8.84-8.55.36-1.97,1.51-2.57,3-2.3.71.13,1.63,1.41,1.74,2.26,1.53,12.05,2.95,24.12,4.38,36.19.05.42.02.84.07,1.26.19,1.53-.11,2.94-1.93,2.81-.96-.07-2.4-.84-2.69-1.63-1.83-4.89-5.29-6.79-10.31-6.24-11.76,1.31-23.52,2.59-35.27,3.93-14.04,1.6-28.1,3.1-42.11,4.94-8.06,1.06-7.21-.81-6.08,7.95,1.09,8.46,4.91,12.13,13.2,13.67q7.25,1.34,8,8.83c.06.62.08,1.23.16,2.38Z"/>
  <path class="cls-2" d="M254.72,145.62c-4.42-7.85-8.7-15.47-13.18-23.43,26.95-15.2,53.63-30.26,80.56-45.45,4.43,7.84,8.7,15.39,13.24,23.44-2.68,1.52-5.21,3.1-7.89,4.35-.59.27-1.88-.49-2.59-1.07-2.02-1.66-3.82-3.59-5.88-5.2-4.59-3.6-9.52-4.64-14.89-1.61-9.79,5.53-8.52,2.77-3.66,11.59,11.03,20,22.38,39.82,33.62,59.7,1.49,2.64,3.05,5.26,4.7,7.81,2.23,3.45,5.41,4.95,9.45,3.78,2.76-.8,4.19.07,4.65,3.28-3.92,2.22-7.99,4.53-12.06,6.83-7.48,4.22-14.93,8.49-22.47,12.6-.82.45-2.47.42-3.15-.12-1.33-1.07-1.04-2.41.2-3.76,4.11-4.44,4.59-6.33,1.77-11.51-8.53-15.63-17.28-31.14-25.98-46.68-4.66-8.32-9.43-16.57-14.04-24.92-1.09-1.98-2.07-2.39-4.16-1.23-11.91,6.59-13.64,10.38-10.12,23.72.63,2.38.18,3.68-2.07,4.65-1.99.86-3.84,2.04-6.05,3.24Z"/>
  <path class="cls-2" d="M926.39,285.37c5.8-.92,10.94-1.68,16.07-2.55,7.33-1.24,14.68-2.38,21.94-3.92,2.59-.55,5.08-1.93,7.38-3.32,2.29-1.39,3.68-3.76,2.78-6.43-.96-2.85.41-3.76,2.94-4.67,5.88,8.2,11.76,16.41,17.64,24.6-1.88,2.18-3.49,1.97-5.97,1.33-4.36-1.13-9.11-1.89-13.55-1.4-15.82,1.73-31.52,4.56-47.36,5.94-8.27.72-14.22,4.87-20.35,9.38-3.54,2.61-7.16,5.13-10.62,7.85-4.41,3.46-5.16,6.08-3.59,11.52.72,2.49.57,2.72-2.94,4.31-8.17-11.42-16.38-22.89-24.56-34.31,1.92-2.38,3.53-2.92,5.89-.82,3.18,2.83,6.59,2.78,10.66.03,6.16-4.17,12.12-8.64,18.29-12.78,2.88-1.93,4.95-4.3,6.6-7.34,8.12-14.91,16.45-29.7,24.55-44.62,2.38-4.39,4.82-8.84,3.66-14.31-.19-.91,1.53-2.22,2.68-3.76,8.38,11.69,16.29,22.73,24.19,33.74-1.7,2.08-3.09,3.19-5.58,1.26-2.1-1.63-4.71-1.33-6.65.54-1.8,1.72-3.55,3.62-4.81,5.75-6.27,10.54-12.37,21.17-18.52,31.78-.25.43-.34.94-.77,2.19Z"/>
  <path class="cls-2" d="M838.87,216.43c-6.6,8.38-12.86,16.34-19.32,24.54-20.49-14.42-40.75-28.68-60.98-42.91,1.13-2.68,2.5-3.75,5.27-2.97,4.89,1.37,7.91-1.61,10.47-5.18,4.16-5.79,8.29-11.6,12.38-17.43,10.47-14.93,20.89-29.89,31.37-44.82,2.96-4.22,4.21-8.31.64-12.96-.61-.79.49-2.9.95-5.14,11.76,8.26,22.61,15.89,33.48,23.53-.7,2.97-2.02,4.37-5.1,3.24-3.44-1.25-6.34.1-8.36,2.75-5.02,6.58-9.88,13.28-14.65,20.04-11.01,15.58-21.94,31.21-32.9,46.83-2.48,3.53-2.46,3.52.99,5.92,2.92,2.03,5.8,4.15,8.72,6.18,7.21,5,12.41,5.08,19.64.1,2.58-1.78,4.98-3.84,7.34-5.91,1.31-1.15,2.38-1.41,3.83-.27,1.88,1.48,3.89,2.8,6.23,4.46Z"/>
  <path class="cls-2" d="M184.59,171.1c10.49-8.83,20.73-17.44,30.92-26.02,2.51,1.57,3.28,3.19,1.63,5.8-2.68,4.24-.56,7.89,2.09,11.19,4.13,5.15,8.43,10.17,12.68,15.23,12.08,14.36,24.18,28.7,36.26,43.06,3.35,3.99,7.09,6.4,12.64,4.24.98-.38,2.67,1.05,4.03,1.64.15.46.3.93.45,1.39-.97.6-2.02,1.11-2.89,1.83-8.85,7.4-17.65,14.85-26.53,22.21-.7.58-2.63.98-2.76.75-.65-1.11-1.61-2.93-1.14-3.66,3.14-4.96,1.36-8.92-1.94-12.83-16.62-19.72-33.2-39.47-49.81-59.2-2.92-3.47-6.44-5.07-10.85-3.01-2.61,1.22-3.2-.99-4.79-2.62Z"/>
  <path class="cls-2" d="M392.46,51.64c1.46,2.38,1.75,3.98-.53,5.72-3.15,2.41-3.88,5.84-2.65,9.61,3.47,10.64,6.91,21.29,10.46,31.91,4.07,12.21,8.23,24.39,12.38,36.57.77,2.28,1.67,4.51,2.48,6.78,1.55,4.37,4.32,7.11,9.25,7.04,2.78-.04,2.62,2.06,3.03,4.13-7.43,2.54-14.73,5.06-22.04,7.54-4.46,1.51-8.92,3.03-13.43,4.38-.98.29-2.67.27-3.18-.33-1-1.19-1.36-2.8.48-4,4.13-2.7,4.46-6.71,3.12-10.86-3.88-12.05-7.94-24.05-11.98-36.05-3.97-11.8-7.99-23.59-12-35.38-.44-1.29-.95-2.55-1.42-3.83-1.51-4.07-4.33-6.38-8.76-6.3-2.04.04-3.08-1.05-2.94-2.77.07-.83,1.33-1.93,2.28-2.26,10.57-3.68,21.19-7.24,31.79-10.83,1.17-.4,2.37-.71,3.68-1.09Z"/>
  <path class="cls-2" d="M392.12,686.59c1.32-12.33,5.35-23.56,13.52-33.13,5.76-6.75,13.11-7.14,20.96-5.29,13.3,3.14,18.97,11.84,16.37,25.41-2.92,15.22-10.75,27.51-22.72,37.27-2.02,1.65-3.9,1.88-6.35.99-5.58-2.02-10.81-4.55-15.02-8.85-4.44-4.53-7.05-9.84-6.76-16.4Z"/>
  <path class="cls-2" d="M625.46,668.25c-.16-5.39.8-10.49,3.96-14.96,5.18-7.32,14.37-9.28,23.36-5.04,5.13,2.42,9.36,5.93,12.6,10.62,5.05,7.31,8.08,15.37,8.96,24.21,1.14,11.51-4.62,21.04-15.91,26.43-8.38,4-11.44,3.72-18.06-2.83-2.85-2.82-5.52-6.19-7.12-9.82-4-9.11-7.31-18.51-7.79-28.61Z"/>
  <path class="cls-2" d="M844.71,736.18c-3.76,6.02-7.48,11.68-10.9,17.52-4.54,7.76-8.93,15.61-13.18,23.53-1.72,3.2-4.4,1.52-6.66,1.74-.69.07-2.06-1.13-2.17-1.89-2.1-13.85-10.81-22.74-22.07-29.71-5.94-3.68-11.99-7.2-18.67-11.2h73.66Z"/>
  <path class="cls-2" d="M299.88,736.3c-3.39,4.86-8.28,6.89-13.3,8.7-8.69,3.13-14.91,8.93-17.92,17.64-1.44,4.16-3.77,6.58-7.93,7.49-1.33.29-2.59.94-3.92,1.09-.71.08-1.9-.38-2.19-.95-4.97-9.66-9.85-19.36-14.7-29.08-.69-1.39-1.07-2.93-1.76-4.88h61.72Z"/>
  <path class="cls-2" d="M174.01,859.64c0-2.06-.15-3.94.06-5.79.1-.91.63-2.05,1.35-2.57,6.28-4.67,12.86-8.98,18.93-13.9,6.07-4.92,11.66-10.42,17.83-16,1,1.57,2.8,3.32,3.22,5.35.49,2.33,1.63,3.25,3.51,4.21,4.1,2.08,8.03,4.51,12.12,6.62,1.85.96,2.17,2.14,1.7,4.04-1.32,5.38-2.57,10.78-3.67,16.21-.36,1.77-1.07,2.5-2.88,2.49-6.81-.06-13.61.07-20.42-.11-.96-.03-2.44-1.21-2.72-2.15-1.3-4.29-2.25-8.68-3.33-13.04-.22-.88-.43-1.77-.73-3.02-6.08,2.85-10.58,7.05-14.97,11.54-2.33,2.39-5.51,3.94-8.35,5.82-.38.25-.96.18-1.66.28ZM202.65,837.68c1.09,3.22,1.68,5.32,2.5,7.33,4.02,9.88,10.73,10.13,18.41,5.55,1.8-1.08,2.99-4.03,3.35-6.29.14-.91-2.57-3-4.23-3.34-6.3-1.3-12.7-2.11-20.02-3.25Z"/>
  <path class="cls-2" d="M349.83,963.38c2.82-2.32,5.34-4.33,7.8-6.42,1.76-1.49,3.55-2.95,5.14-4.61,3.24-3.39,3.91-6.39,2.3-9.31-1.95-3.54-6.81-5.78-10.76-4.9-4.15.92-7.12,3.58-9.3,7.02-1.67,2.63-2.92,5.54-4.25,8.38-.96,2.06-6.08,3.62-7.64,2.07-.52-.52-.68-1.8-.46-2.59.91-3.31,1.97-6.58,3.09-9.83,1.52-4.42,3.32-8.76,4.64-13.24.53-1.82,1.07-2.49,3.04-2.65,3.54-.28,5.95.47,7.22,4.21.86,2.54,3.1,3.56,5.93,3.87,3.71.4,7.4,1.26,10.98,2.33.99.29,2.2,1.98,2.22,3.06.11,4.49-.11,9-.36,13.49-.61,10.67-8.59,14.46-19.59,9.13Z"/>
  <path class="cls-2" d="M251.22,882.32c1.56-2.72,2.67-4.82,3.95-6.82,1.35-2.12,1.93-4.34.35-6.43-1.73-2.29-4.25-1.72-6.29-.64-6.08,3.21-12.04,6.66-18.02,10.06-1.7.97-3.32,2.07-5.82,3.63.28-2.18.32-3.57.66-4.88,1.87-7.29,6.81-11.99,13.09-15.67,7.01-4.11,6.79-3.86,13.77-.24,7.96,4.13,9.64,11,9.49,18.92-.01.7-1.24,1.92-1.98,1.98-2.79.24-5.61.1-9.19.1Z"/>
  <path class="cls-2" d="M445,964.73c-2.31,1.06-4.74,1.91-6.9,3.22-3.64,2.2-7.34,4.43-10.56,7.18-1.34,1.15-2.42,3.81-2.1,5.49,1.16,6.11-2.7,8.65-7.25,11.63-.57-10.92.06-21.18,4.06-31.09,7.56.9,15.08,1.81,22.6,2.71.05.29.11.58.16.87Z"/>
  <path class="cls-2" d="M660.94,960.8c-1.03,3.65-1.61,6.39-2.58,8.98-2,5.32-2.57,10.46.23,15.74,1.04,1.96,1.38,4.3,2.07,6.55-5.64.24-11.92-3.77-13.1-9.18-1.16-5.35-1.24-10.96-1.52-16.47-.05-.93,1.12-2.55,2.02-2.79,3.95-1.1,8.01-1.81,12.88-2.84Z"/>
  <path class="cls-2" d="M647.31,618.31c-3.77,1.6-8.12,3.52-12.53,5.26-1.81.72-2.77.07-3.66-2-2.4-5.6-2.22-10.98.33-16.33.43-.9,1.63-1.91,2.56-2.01,2.59-.28,5.25-.28,7.84,0,.86.1,2.04,1.28,2.3,2.19,1.12,3.86,1.94,7.8,3.16,12.88Z"/>
  <path class="cls-2" d="M447.98,969.12c6.61,1.51,7.83,2.73,7.44,8.84-.49,7.61-4.18,13.71-10.07,18.41-2.65,2.11-4.99,1.66-6.66-1.04-2.02-3.25-1.9-5.74.73-7.34,5.87-3.56,7.33-9.6,8.19-15.85.14-.99.25-1.99.37-3.02Z"/>
  <path class="cls-2" d="M421.87,613.16c.14-6.09,1.7-8.09,7.5-9.44.2-.05.44-.2.6-.15,4.05,1.35,7.01,4.1,9.1,7.69,1.62,2.77.45,5.26-1.56,7.4-.71.76-1.47,1.5-2.28,2.15-4.46,3.6-6.41,3.73-11.04.45-.83-.58-1.43-1.8-1.67-2.83-.41-1.72-.45-3.52-.64-5.29Z"/>
  <path class="cls-2" d="M537.78,1003.62c3.79-2.46,6.76-5.07,10.21-6.47,4.71-1.91,6.6-5.13,6.73-9.86.02-.73-.18-1.58.12-2.17.45-.86,1.26-1.54,1.91-2.29.47.76,1.4,1.56,1.34,2.29-.29,3.95-.38,8.01-1.36,11.81-2.28,8.84-9.66,11.7-18.96,6.69Z"/>
  <path class="cls-2" d="M663.68,957.07c2.73.52,5.9,1.07,9.05,1.74,2.94.63,4.24,2.55,3.71,5.51-.48,2.66-.95,5.35-1.84,7.88-.33.94-1.8,1.96-2.84,2.07-5.11.52-4.9.27-5.38-4.84-.38-4.12-1.74-8.14-2.7-12.36Z"/>
  <path class="cls-1" d="M486.25,993.2c-9.43,6.84-17.89,5.38-21.69-3.59,4.55-1.43,9.06-2.93,13.63-4.22.7-.2,1.94.3,2.46.89,1.92,2.15,3.65,4.48,5.59,6.92Z"/>
  <path class="cls-1" d="M378.93,967.69c6.09-3.04,15.51-3.01,21.2-.02-1.15,4.86-3.7,7.33-8.04,7.77-7.77.79-9.75-.35-13.16-7.75Z"/>
  <path class="cls-1" d="M305.71,919.44c3.49-1.56,6.66-3.13,9.96-4.35.76-.28,2.35.31,2.89,1.02,1.71,2.21,3.11,4.67,4.89,7.45-3.54,1.59-6.87,3.22-10.34,4.51-.69.26-2.21-.56-2.77-1.31-1.61-2.17-2.92-4.55-4.64-7.32Z"/>
  <path class="cls-1" d="M280.32,908.48c-1.14,1.72-2.15,3.26-3.35,5.09-5.8-2.43-11.25-5.32-13.67-11.96,4.07-.7,13.31,3.07,17.02,6.87Z"/>
  <path class="cls-1" d="M297.6,927.06c7.05-.56,11.97,2.72,16.95,6.85-5.15,1.48-14.09-2.09-16.95-6.85Z"/>
  <path class="cls-1" d="M294.17,889.01c-3.64.42-6.97.93-10.31,1.14-1.88.12-2.08-.97-1.09-2.42,2.58-3.79,8.65-3.28,11.4,1.27Z"/>
  <path class="cls-1" d="M52.47,476.82c4.67,1.05,9.5,1.64,13.96,3.27,6.73,2.47,10.25,7.86,10.55,14.98.18,4.05-.43,8.14-.65,12.21-.12,2.14-1.17,2.89-3.29,2.63-11.11-1.37-22.23-2.68-33.35-4.01-2.08-.25-4.2-.35-6.21-.86-.82-.21-2.09-1.43-2-2.03.74-5.15,1.05-10.51,2.83-15.32,2.99-8.07,9.94-10.47,18.16-10.87Z"/>
  <path class="cls-1" d="M75.37,370.07c15.22,1.6,30.45,3.2,46.24,4.87-3.74,9.36-7.25,18.14-11.08,27.72-12.19-10.79-23.92-21.17-35.65-31.55.16-.34.33-.69.49-1.03Z"/>
  <path class="cls-1" d="M828.83,897.51c-.45-12.54,2.04-13.91,12.3-18.2,1.37,7.26-4.31,15.81-12.3,18.2Z"/>
  <path class="cls-1" d="M696.63,975.32c0-3.09-.23-6.21.11-9.26.13-1.19,1.35-2.92,2.41-3.23,4.34-1.25,8.81-2.04,13.03-2.95-4.99,5.36-9.86,10.6-14.73,15.83-.28-.13-.55-.26-.83-.39Z"/>
  <path class="cls-1" d="M151.28,235.81c7.42.63,13.98,3.04,20.15,6.49,10.25,5.73,19.18,13.15,26.64,22.22,11.82,14.38,11.51,28.14-.87,42.44-4.2,4.85-2.75,4.61-7.58.78-21.33-16.92-42.59-33.94-63.92-50.85-1.97-1.56-2.34-2.68-.68-4.8,4.23-5.42,8.59-10.7,15.2-13.23,3.55-1.36,7.37-2.05,11.07-3.04Z"/>
  <path class="cls-1" d="M508.88,99c-.42,9.82-.86,16.87-3.76,23.6-5.54,12.84-22.14,15.62-31.35,5.05-6.44-7.4-8.99-16.54-10.58-25.87-1.43-8.34-2.35-16.8-2.95-25.24-.53-7.54-.02-15.08,2.72-22.31,2.76-7.29,7.77-11.78,15.6-12.9,8.12-1.16,14.04,2.44,18.44,8.88,5.39,7.88,7.72,16.94,9.15,26.19,1.29,8.37,2.05,16.82,2.73,22.61Z"/>
  <path class="cls-1" d="M953.61,408.06c-8.2-.28-15.47-1.9-19.73-9.65-4.07-7.39-3.39-15.08,1.92-21.7,5.31-6.62,12.37-10.92,19.82-14.61,11.58-5.73,23.48-10.79,36.37-12.49,5.27-.7,11.04-.61,16.12.81,11.25,3.14,17.5,19.1,7.15,30.59-5.65,6.27-12.67,10.59-20.13,14.26-11.6,5.72-23.59,10.31-36.44,12.33-1.75.28-3.54.32-5.09.45Z"/>
  <path class="cls-1" d="M701.96,123.83c11.28-11.8,22.09-23.11,32.91-34.43l.97.54c-2.18,15.11-4.37,30.22-6.66,46.05-9.19-4.11-17.86-7.99-27.22-12.17Z"/>
  <path class="cls-1" d="M995.18,592.69c14.89,7.38,28.71,14.23,42.53,21.08l-.12,1.16c-15.05,2.44-30.1,4.88-45.87,7.43,1.18-10.07,2.29-19.57,3.47-29.67Z"/>
  <path class="cls-1" d="M202.65,837.68c7.32,1.14,13.72,1.95,20.02,3.25,1.66.34,4.38,2.43,4.23,3.34-.35,2.26-1.54,5.21-3.35,6.29-7.69,4.58-14.39,4.33-18.41-5.55-.82-2.01-1.41-4.11-2.5-7.33Z"/>
</svg>