<?xml version="1.0" encoding="UTF-8"?>
<svg id="Layer_1" data-name="Layer 1" xmlns="http://www.w3.org/2000/svg" width="1080" height="1080" viewBox="0 0 1080 1080">
  <defs>
    <style>
      .cls-1 {
        fill: none;
      }

      .cls-1, .cls-2 {
        stroke-width: 0px;
      }

      .cls-2 {
        fill: #1a6f65;
      }
    </style>
  </defs>
  <path class="cls-2" d="M437.07,545.15c-8.21-6.61-16.19-12.93-24.04-19.41-3.26-2.69-6.32-5.63-9.3-8.63-6.73-6.78-7.79-16.13-2.92-24.42,3-5.1,5.55-5.27,9.11-.63,15.12,19.74,34.24,34.56,56.45,45.46,4.81,2.36,10.1,3.74,15.17,5.58,1.46.53,2.92,1.07,5.39,1.97-1.83,1.04-2.68,1.79-3.66,2.05-22.02,5.75-40.71,17.59-57.48,32.41-17.82,15.74-34.91,32.3-52.43,48.39-5.36,4.92-10.69,10.06-16.73,14.04-18.68,12.3-38.18,13.8-57.71,2.01-23.79-14.35-46.9-29.63-65.98-50.23-17.23-18.6-22.88-48.49-12.85-70.53,3.5-7.69,8.54-14.24,15.7-18.99,11.72-7.77,26.95-4.13,36.79,6.52.67.73.67,2.06.99,3.12-1.18.22-2.41.76-3.54.6-3.73-.52-7.42-1.82-11.14-1.86-15.79-.15-24.56,12.22-27.04,25.1-2.2,11.41.96,21.78,7.12,31.19,10.49,16.03,24.91,28.22,40.62,38.73,8.06,5.39,16.85,10.02,25.87,13.59,19.19,7.6,37.91,5.91,54.03-7.51,12.3-10.24,23.7-21.62,35.02-32.97,12.8-12.83,25.07-26.17,41.6-34.46.35-.18.57-.63.98-1.11Z"/>
  <path class="cls-2" d="M323.04,306.27c-6.33,7.92-12.23,15.5-18.36,22.89-3.16,3.81-6.63,7.38-10.14,10.89-6.85,6.84-17.21,7.6-25.2,2-3.89-2.73-4.05-4.99-.32-7.82,17.37-13.17,31.27-29.38,41.68-48.43,4.02-7.36,6.7-15.45,9.98-23.22.7-1.65,1.31-3.34,2.29-5.86.97,1.72,1.64,2.5,1.87,3.38,5.98,23.58,19.28,43.05,35.13,60.83,15.14,16.98,31.07,33.25,46.59,49.89,3.88,4.16,7.9,8.26,11.22,12.84,13.69,18.89,16.94,39.03,4.71,59.73-14.27,24.15-29.41,47.91-50.76,66.57-19.59,17.12-42.38,23.18-67.57,14.28-6.38-2.25-12.44-6.59-17.47-11.23-12.47-11.48-11.59-30.7,1.3-41.79.96-.83,2.55-.94,3.85-1.38.2,1.15.86,2.47.53,3.44-9.21,26.81,14.54,40.21,32.71,38.61,12.41-1.09,22.59-6.85,31.49-14.9,14.02-12.7,26.59-26.81,35.46-43.61,4.25-8.05,7.66-16.75,9.97-25.55,3.97-15.12.92-29.73-8.91-41.72-10.51-12.82-22.5-24.42-33.83-36.57-9.24-9.91-18.67-19.66-27.6-29.84-3.39-3.86-5.64-8.73-8.59-13.43Z"/>
  <path class="cls-2" d="M34.08,418.88c1.56-.88,2.03-1.28,2.56-1.42,25.99-6.61,46.96-21.85,66.43-39.3,15.53-13.92,30.36-28.63,45.62-42.85,4.9-4.56,9.83-9.27,15.39-12.92,18.65-12.23,38.16-14.11,57.72-2.33,24.04,14.48,47.78,29.55,66.51,50.89,15.17,17.27,20.83,37.57,16.03,60.23-2.43,11.48-8.51,21.02-18.07,28.1-11.75,8.7-27.7,5.22-37.82-5.89-.65-.72-.63-2.06-.91-3.11,1.2-.19,2.43-.66,3.58-.51,3.88.51,7.72,1.78,11.58,1.81,18.73.13,28.42-19.35,27.08-34.7-.94-10.76-5.48-20.05-12.3-28.02-16.21-18.94-35.01-34.72-58.22-44.59-21.44-9.11-41.69-7.39-59.96,7.72-7.07,5.85-13.71,12.24-20.33,18.6-12.94,12.42-25.52,25.22-38.69,37.38-4.74,4.37-10.75,7.36-16.66,11.3,1.17.9,2.29,1.69,3.35,2.57,9.9,8.17,20.05,16.05,29.59,24.61,7.89,7.08,8.74,17.1,3.2,25.73-2.8,4.37-5.14,4.41-8.33.4-19.35-24.32-42.94-42.7-73.09-51.83-1.17-.36-2.27-.97-4.27-1.85Z"/>
  <path class="cls-2" d="M197.94,658.55c1.33-1.77,2.05-2.83,2.87-3.8,8.41-10.07,16.55-20.38,25.36-30.09,6.84-7.54,16.47-8.21,25.03-2.82,4.63,2.92,4.69,5.21.32,8.56-20.47,15.66-35.8,35.44-46.75,58.65-1.91,4.06-3.02,8.5-4.52,12.76-.56,1.59-1.17,3.15-2.14,5.75-1-1.89-1.69-2.77-1.95-3.77-5.35-20.17-15.56-37.83-29.17-53.32-17.14-19.49-35.3-38.09-52.66-57.4-6.29-7-12.68-14.34-17.04-22.57-8.32-15.73-8.86-32.26.4-48.07,14.71-25.11,30.23-49.87,52.59-68.96,20.32-17.35,43.77-22.7,69.43-12.57,7.28,2.88,13.37,7.74,18.17,14.04,9.61,12.63,5.67,27.86-4.98,38.22-.85.82-2.57.74-3.89,1.08-.08-1.19-.51-2.49-.17-3.54,6.25-19.71-4.91-36.34-25.61-38.24-11.48-1.05-21.88,1.97-30.87,8.81-22.38,17.02-39.82,38.09-50.27,64.39-7.84,19.72-5.88,38.57,7.74,55.18,8.12,9.9,17.14,19.11,26.22,28.16,15.16,15.12,31.78,28.92,41.9,49.56Z"/>
  <path class="cls-2" d="M585.67,512c-3.44,3.03-6.2,5.6-9.11,7.98-18.31,14.95-43.41,5.83-53.31-5.37-4.13-4.67-6.2-10.29-6.16-16.46.17-24.93.37-49.87.84-74.79.2-10.93,1.13-21.84,1.56-32.77.09-2.29-.25-4.7-.87-6.91-1.51-5.39-6.16-7.61-11.75-5.78-3.04.99-5.98,2.64-9.08,3.02-1.87.23-3.97-1.41-5.97-2.21,1.27-1.53,2.25-3.9,3.85-4.45,9.35-3.22,19.07-4.73,28.9-3.32,10.69,1.53,16.03,7.31,16.58,18.74.51,10.61-.1,21.28-.29,31.92-.41,23.76-1.11,47.53-1.13,71.29,0,5.69,1.48,11.64,3.49,17.01,3.42,9.14,11.89,12.66,20.28,7.68,12.53-7.43,22.3-17.11,22.15-33.57-.29-32.39.06-64.8-.08-97.19-.02-4.78,1.52-7.67,5.93-9.46,4.18-1.7,8.11-4.03,12.29-5.74,4.58-1.87,5.82-.91,5.83,4.01.02,9.19-.01,18.39,0,27.58.09,42.62.18,85.24.28,127.85.02,6.12.46,12.26.11,18.36-.63,10.96-5.64,17.22-16.23,20.21-11.7,3.31-23.7,3.42-35.63,1.65-6.36-.94-11.86-4.15-15.65-9.59-1.72-2.47-2.96-5.29-.05-7.85,2.34-2.05,5.96-1.26,8.47,1.72.56.67,1.03,1.42,1.52,2.14,4.91,7.23,10.86,9.72,19.11,7.99,8.06-1.69,13.42-6.6,13.92-15.25.73-12.45.19-24.98.19-38.47Z"/>
  <path class="cls-2" d="M827.48,518.41c-5.78,2.47-11.09,5.21-16.7,7.01-8.33,2.68-16.93,2.84-25.52.91-11.13-2.5-18.63-9.25-23.01-19.62-4.54-10.76-6.47-22.13-7.06-33.66-1.14-22.28-2.26-44.61,2.22-66.7,1.75-8.63,4.8-16.79,10.86-23.56,8.11-9.05,18.84-12.4,30.27-12.59,10.12-.17,20.45.68,30.38,2.65,11.93,2.37,19.44,10.16,21.08,22.72.6,4.61,1.27,9.23,1.6,13.86.25,3.53-1.42,6.21-4.79,7.58-3.38,1.37-6.73,2.86-10.22,3.88-5.62,1.65-7.43.26-7.64-5.77-.16-4.66.1-9.34-.02-14-.06-2.61-.21-5.29-.84-7.8-2.17-8.55-7.42-13.95-16.4-15.49-16.15-2.77-27.03,3.69-29.93,19.74-2.27,12.56-3.31,25.47-3.47,38.25-.22,17.32.65,34.67,1.59,51.98.45,8.27,3.64,15.9,8.78,22.53,4.97,6.41,10.81,8.25,18.62,6.02,11.52-3.28,20.03-13.74,20.15-25.72.1-9.32-.47-18.65-1-27.97-.24-4.31,1.49-6.45,5.62-7.34,4.12-.9,8.13-2.32,12.23-3.36,5.55-1.4,6.21-.9,6.25,4.66.14,24.65.25,49.31.38,73.96.03,6.7.45,13.41.06,20.08-.54,9-5.19,15.45-13.89,18.31-12.91,4.24-26.26,4.73-39.31,1.58-4.96-1.2-9.39-5.46-13.51-8.98-2.2-1.88-3.04-5.36-.01-7.69,2.95-2.26,5.81-1.06,8.18,1.39.8.83,1.42,1.85,2.08,2.81,4.96,7.18,11.36,9.6,19.69,7.44,7.76-2.01,12.76-7.26,13.16-15.5.5-10.45.12-20.93.12-31.62Z"/>
  <path class="cls-2" d="M943.21,503.72c-3.46,3.99-5.65,7.34-8.6,9.77-11.9,9.8-25.74,14.16-41.1,13.13-10.37-.7-17.5-6.56-21.21-15.93-5.31-13.41-4.79-27.28-.48-40.77,3.03-9.49,10.63-15.59,19.7-18.69,11.42-3.9,23.24-6.68,34.99-9.52,13.48-3.26,16.55-3.18,16.8-19.02.17-10.75-.27-21.56-1.27-32.27-.74-8-4.82-11.17-12.91-11.38-3.6-.09-7.36.18-10.82,1.12-9.24,2.5-13.11,8.22-12.66,17.79.06,1.31.08,2.63.12,3.94.39,12.71-5.31,18.69-18.24,19.43-3.67.21-5.45-1.78-5.42-4.82.21-22.84,5.74-39.22,30.29-44.41,11.32-2.39,22.91-3.06,34.28.34,11.74,3.52,17.84,11.28,17.89,23.42.13,32.53-.02,65.07.1,97.61.02,5.96.23,12,1.27,17.84,1.4,7.81,6.65,9.77,13.56,5.87,1.75-.99,3.71-2.01,5.63-2.13,1.61-.1,4.61.98,4.68,1.75.17,1.84-.49,4.9-1.76,5.52-4,1.94-8.36,3.57-12.74,4.22-5.58.83-11.37,1.22-16.96.68-10.13-.99-14.67-6.33-15.14-16.44-.09-1.88-.01-3.77-.01-7.05ZM941.46,447.01c-12.21,3.66-25.27,4.35-35.91,11.77-3.63,2.53-7.08,7.26-7.88,11.49-1.59,8.48-1.99,17.35-1.56,26,.41,8.13,3.64,15.72,12.41,18.4,9.21,2.82,16.09-2.05,22.01-8.4,6.68-7.17,10.89-15.5,10.91-25.53.03-11.02,0-22.03,0-33.73Z"/>
  <path class="cls-2" d="M632.94,450.98c-.03-18.26.53-36.52,7.03-53.89,1.77-4.74,4.05-9.42,6.87-13.61,5.86-8.7,15.01-12.04,24.92-12.54,9.59-.48,19.27-.26,28.84.5,12.73,1.02,21.14,8.34,25.86,20.02,4.54,11.22,6.37,23.03,7.21,35,1.39,19.81,2.39,39.69-2.21,59.21-1.81,7.7-4.72,15.37-8.47,22.34-6.42,11.93-17.23,18.05-30.69,18.87-7.71.47-15.47.24-23.2-.01-11.41-.38-19.5-6.33-24.99-15.98-7.7-13.53-10.12-28.48-11.12-43.72-.35-5.37-.06-10.79-.06-16.18ZM655.57,444.12c.31.05.63.1.94.15.5,10.77.41,21.62,1.69,32.3,1.2,10.05,2.51,20.46,6.16,29.78,6.4,16.34,24.03,17.6,33.85,2.95,2.93-4.38,4.89-9.64,6.27-14.78,7.3-27.03,6.97-54.52,4.1-82.07-.74-7.06-1.79-14.22-3.88-20.97-2.61-8.44-8.99-12.95-18.06-13.35-14.69-.65-23.2,4.76-25.78,19.21-2.75,15.41-3.6,31.17-5.28,46.77Z"/>
  <path class="cls-2" d="M880.85,671.04c0-2.8,0-4.35,0-5.9,0-20.86,0-41.72,0-62.59,0-1.45-.28-3.1.31-4.3.53-1.07,2.03-2.15,3.18-2.24.83-.07,2.22,1.31,2.6,2.33.49,1.29.26,2.87.26,4.33.01,24.22.06,48.43-.08,72.65-.01,2.21-1.25,4.42-1.91,6.63-2.07-1.05-4.57-1.66-6.16-3.21-23.5-22.94-46.87-46-70.28-69.02-.61-.6-1.28-1.12-2.63-2.29-.13,2.15-.3,3.63-.3,5.11-.02,21.01,0,42.02-.02,63.02,0,1.31.3,2.81-.23,3.88-.54,1.11-1.91,2.47-2.94,2.5-1.03.02-2.46-1.29-3.03-2.37-.55-1.05-.28-2.56-.28-3.87-.01-24.51-.06-49.02.09-73.53.01-2.05,1.36-4.09,2.08-6.13,1.84.88,4.09,1.34,5.47,2.69,23.48,22.95,46.86,46.01,70.26,69.04.82.8,1.69,1.55,3.58,3.28Z"/>
  <path class="cls-2" d="M739.85,595.4c5.32-.32,6.63,2.26,7.94,5,11.45,23.94,22.95,47.87,34.43,71.8.63,1.31,1.3,2.61,1.95,3.92,1.03,2.08,1.89,4.34-.8,5.66-2.6,1.28-4.02-.55-5.05-2.71-2.84-5.92-5.7-11.82-8.55-17.74-.76-1.58-1.26-3.37-2.36-4.67-.97-1.14-2.59-2.43-3.94-2.44-14.6-.17-29.21-.2-43.81.03-1.52.02-3.63,1.67-4.4,3.12-3.72,7.1-7.09,14.38-10.55,21.62-1.03,2.15-2.33,4.1-4.97,2.79-2.64-1.31-1.83-3.57-.82-5.67,12.32-25.63,24.59-51.28,37.05-76.85.93-1.92,3.19-3.19,3.89-3.86ZM763.3,647.92c-7.28-15-14.27-29.41-21.81-44.95-7.55,15.6-14.54,30.01-21.77,44.95h43.59Z"/>
  <path class="cls-2" d="M528.07,679.25c-.87.91-1.78,2.61-2.71,2.63-1.28.02-3.19-.91-3.78-2-3.09-5.78-6.28-11.58-8.59-17.69-2.37-6.27-5.78-8.76-12.85-8.3-11.78.76-23.64.42-35.46.1-4.21-.11-6.2,1.35-7.79,5.1-2.84,6.7-6.26,13.16-9.43,19.72-.99,2.05-2.17,4.27-4.88,3.03-2.97-1.35-1.92-3.78-.87-5.98,12.12-25.23,24.24-50.46,36.33-75.7,1.25-2.62,2.59-4.86,5.98-4.93,3.57-.07,5.06,2.18,6.4,4.97,12.01,25.12,24.07,50.22,36.1,75.33.5,1.04.9,2.13,1.56,3.72ZM462.35,647.98h43.65c-7.27-14.97-14.3-29.46-21.84-44.98-7.59,15.65-14.55,30.01-21.81,44.98Z"/>
  <path class="cls-2" d="M909.23,639.17c.87,15.36,7.76,27.16,21.89,33.66,14.06,6.47,27.59,4.57,39.85-5.12.57-.45,1.04-1.25,1.66-1.38,1.77-.37,4.26-1.31,5.25-.51,2.23,1.79.85,4.04-1.06,5.44-3.52,2.58-6.95,5.43-10.84,7.32-19.5,9.51-43.53,2.96-55.51-14.88-12.14-18.06-9.25-42.74,6.68-57.03,16.51-14.8,40.83-15.42,57.81-1.47.23.19.47.35.67.56,1.73,1.82,4.9,3.49,2.48,6.41-2.48,3-4.66.26-6.62-1.36-12.36-10.2-26.11-12.31-40.5-5.59-14.07,6.56-20.96,18.39-21.77,33.94Z"/>
  <path class="cls-2" d="M244.65,376.48c2.31.27,4.67.32,6.9.9,1.09.28,2.52,1.44,2.7,2.4.16.91-.9,2.32-1.79,3.1-3.36,2.99-7.27,5.47-10.25,8.78-9.84,10.93-12.28,23.8-9.05,37.95.49,2.13,1.03,4.27,1.2,6.43.09,1.18-.19,2.93-.97,3.47-.7.49-2.48-.02-3.48-.61-13.49-7.92-19.8-24.13-15.41-39.34,4.4-15.23,14.43-22.84,30.16-23.07Z"/>
  <path class="cls-2" d="M365.46,466.4c-.15,2.35.05,4.33-.49,6.09-.46,1.48-1.53,3.17-2.81,3.84-.61.32-2.54-1.33-3.55-2.39-3.39-3.57-6.27-7.71-10-10.86-10.76-9.1-23.34-10.45-36.7-7.59-2.28.49-4.56,1.08-6.87,1.24-2.78.2-4.01-1.35-2.46-3.81,6.52-10.4,18.22-19.17,33.88-17.32,15.63,1.85,25.78,10.65,28.35,24.3.43,2.28.47,4.63.65,6.51Z"/>
  <path class="cls-2" d="M155.61,497.18c.15-2.03.04-4.14.54-6.08.32-1.24,1.38-2.88,2.43-3.17.93-.26,2.59.85,3.44,1.8,2.42,2.71,4.3,5.93,6.89,8.45,11.18,10.87,24.59,13.87,39.63,10.64,2-.43,3.99-1.04,6.01-1.19,1.33-.1,2.7.49,4.05.77-.28,1.34-.22,2.9-.9,3.99-8.28,13.33-24.06,19.29-39.19,14.93-15.22-4.38-22.79-14.39-22.89-30.14Z"/>
  <path class="cls-2" d="M275.6,587.57c-1.08-.07-3.07.13-4.83-.42-1.5-.46-2.74-1.78-4.1-2.71.88-1.22,1.6-2.62,2.67-3.63,3.58-3.38,7.73-6.26,10.87-9.99,8.81-10.45,10.65-22.66,7.84-35.77-.46-2.14-1.11-4.26-1.29-6.42-.11-1.32.53-2.7.83-4.05,1.33.32,2.85.32,3.95,1.01,13.42,8.36,19.27,23.79,14.94,39.09-4.26,15.06-14.51,22.85-30.89,22.88Z"/>
  <path class="cls-2" d="M1003.81,639.14v36.02c1.73.1,3.26.26,4.8.26,9.35.02,18.7-.12,28.04.15,1.49.04,2.92,1.93,4.38,2.96-1.47,1.02-2.92,2.89-4.4,2.92-11.53.25-23.08.1-34.62.16-3.27.02-4.79-1.29-4.78-4.69.06-25.25.05-50.49,0-75.74,0-3.25,1.18-4.88,4.6-4.86,11.54.06,23.08.01,34.62.03,2.31,0,4.96.32,4.36,3.32-.24,1.18-2.85,2.64-4.42,2.69-9.49.25-18.99.23-28.48.07-3.14-.05-4.48.77-4.39,4.15.2,7.44.2,14.89,0,22.32-.09,3.36,1.17,4.3,4.35,4.17,5.25-.21,10.51-.06,15.77-.05,2.14,0,4.7.15,4.11,2.98-.27,1.28-2.72,2.9-4.25,2.98-6.39.33-12.81.14-19.7.14Z"/>
  <path class="cls-2" d="M614.77,675.43c2.34,0,4.05,0,5.77,0,9.04,0,18.09-.14,27.12.15,1.46.05,2.86,1.98,4.29,3.04-1.35.99-2.68,2.82-4.05,2.84-11.81.23-23.63.13-35.44.13-2.85,0-4.26-1.35-4.26-4.29.03-25.79-.04-51.58.16-77.37.01-1.37,2.16-2.72,3.32-4.08,1.03,1.66,2.93,3.32,2.95,4.99.21,20.11.14,40.22.14,60.32,0,4.51,0,9.01,0,14.27Z"/>
  <path class="cls-2" d="M544.77,638.41c0-11.82,0-23.64,0-35.46,0-1.31-.37-2.86.19-3.88.71-1.3,2.2-2.17,3.35-3.23.93,1.11,2.37,2.1,2.67,3.36.46,1.94.14,4.06.14,6.1,0,21.74.08,43.49-.08,65.23-.03,3.72.79,5.14,4.81,4.99,8.46-.32,16.94-.1,25.41-.1.88,0,1.75.01,2.63,0,2.32-.03,4.75.15,4.72,3.17-.03,3.13-2.69,2.98-4.87,2.99-9.06.05-18.11.05-27.17.02-13.06-.04-11.78,1.28-11.81-11.67-.02-10.51,0-21.01,0-31.52Z"/>
  <path class="cls-2" d="M678.15,638.82c0,12.39,0,24.77,0,37.16,0,1.16.32,2.53-.18,3.44-.6,1.1-1.89,2.49-2.92,2.51-1,.03-2.47-1.31-2.95-2.4-.55-1.24-.28-2.86-.28-4.31-.01-24.19,0-48.38,0-72.57,0-1.31-.33-2.83.22-3.87.63-1.2,2.1-2.78,3.14-2.73,1.02.04,2.5,1.78,2.82,3.02.48,1.92.16,4.05.16,6.09,0,11.22,0,22.44,0,33.66Z"/>
  <path class="cls-1" d="M941.46,447.01c0,11.69.02,22.71,0,33.73-.03,10.04-4.23,18.37-10.91,25.53-5.92,6.35-12.8,11.22-22.01,8.4-8.77-2.68-12-10.27-12.41-18.4-.43-8.64-.03-17.52,1.56-26,.79-4.24,4.25-8.96,7.88-11.49,10.64-7.42,23.7-8.11,35.91-11.77Z"/>
  <path class="cls-1" d="M655.57,444.12c1.68-15.61,2.53-31.36,5.28-46.77,2.58-14.45,11.09-19.86,25.78-19.21,9.07.4,15.45,4.91,18.06,13.35,2.09,6.75,3.14,13.91,3.88,20.97,2.87,27.55,3.2,55.04-4.1,82.07-1.39,5.13-3.34,10.4-6.27,14.78-9.82,14.65-27.46,13.39-33.85-2.95-3.65-9.32-4.96-19.72-6.16-29.78-1.28-10.68-1.18-21.53-1.69-32.3-.31-.05-.63-.1-.94-.15Z"/>
  <path class="cls-1" d="M763.3,647.92h-43.59c7.23-14.93,14.22-29.35,21.77-44.95,7.54,15.53,14.53,29.95,21.81,44.95Z"/>
  <path class="cls-1" d="M462.35,647.98c7.26-14.98,14.23-29.34,21.81-44.98,7.54,15.53,14.57,30.01,21.84,44.98h-43.65Z"/>
</svg>