<?xml version="1.0" encoding="UTF-8"?>
<svg id="Layer_1" xmlns="http://www.w3.org/2000/svg" width="1080" height="1080" viewBox="0 0 1080 1080">
  <defs>
    <style>
      .cls-1 {
        fill: none;
        stroke: #fff;
        stroke-linecap: round;
        stroke-linejoin: round;
        stroke-width: 15px;
      }
    </style>
  </defs>
  <path class="cls-1" d="M713.03,144.12h92.81c6.29.63,36.97,4.34,58.86,31.11,16.2,19.82,18.59,41.28,19.08,49.26v314.16h-69.62l-1.84-206.45H146.85l-3.69,444.51,436.54-.27v74.68H135.06c-2.75.58-26.92,5.27-45.81-11.54-12.95-11.52-15.75-26.33-16.44-30.91V202.68c.88-7.25,3.72-21.58,14.63-34.7,22.25-26.76,57.89-24.2,61.73-23.86h78.7"/>
  <path class="cls-1" d="M295.5,68.66v138.5c-1.02,3.57-3.57,10.54-10.02,15.91-12.52,10.43-34.13,10.16-45.38-1.77-5.68-6.03-7.2-13.42-7.66-17.68V68.66c-.69-17.86,13.61-32.85,31-33.14,17.78-.3,32.76,14.88,32.06,33.14Z"/>
  <path class="cls-1" d="M711.93,76.89v131.46c-1.02,3.39-3.57,10.01-10.02,15.1-12.52,9.9-34.13,9.65-45.38-1.68-5.68-5.72-7.2-12.73-7.66-16.78V76.89c-2.16-19.34,12.92-35.4,29.47-36.35,17.75-1.02,35.7,15.45,33.59,36.35Z"/>
  <rect class="cls-1" x="207.62" y="395.18" width="129.77" height="133.37"/>
  <rect class="cls-1" x="413.41" y="395.18" width="129.77" height="133.37"/>
  <rect class="cls-1" x="615.52" y="395.18" width="129.77" height="133.37"/>
  <rect class="cls-1" x="409.57" y="588.6" width="129.77" height="133.37"/>
  <rect class="cls-1" x="207.62" y="588.6" width="129.77" height="133.37"/>
  <circle class="cls-1" cx="839.56" cy="792.32" r="203.72"/>
  <path class="cls-1" d="M818.19,667.05v125.27c-2.52,9.03,3.22,17.55,9.62,23.25,5.88,5.24,9.65,6.32,11.76,6.31h101.97c14.27-5.12,23.21-19,21.87-33.24-1.16-12.24-9.75-22.9-21.87-27.12h-69.98v-94.48c-3-12.15-13.86-20.8-26.24-20.99-12.7-.2-24.03,8.53-27.12,20.99Z"/>
</svg>