<?xml version="1.0" encoding="UTF-8"?>
<svg id="Layer_1" xmlns="http://www.w3.org/2000/svg" width="1080" height="1080" viewBox="0 0 1080 1080">
  <defs>
    <style>
      .cls-1 {
        fill: #f6ece1;
      }

      .cls-2 {
        fill: #1a6f65;
      }
    </style>
  </defs>
  <circle class="cls-2" cx="547.29" cy="546.22" r="512.98"/>
  <g>
    <path class="cls-1" d="M502.06,543.83c0-27.8-.03-55.6.04-83.4,0-3.42.32-6.9.99-10.25,1.63-8.12,7.38-13.73,14.58-14.67,6.44-.84,14.68,4.02,17.76,10.98,1.23,2.77,1.99,5.99,2.01,9.01.18,19,.08,38.01.1,57.01,0,1.72.2,3.44.25,5.16.13,4.64,2.81,6.09,7.1,6.09,27.54-.03,55.09.07,82.63.06,7.24,0,9.03-1.86,9.03-9.33,0-19.32-.1-38.64-.08-57.96,0-6.66,1.48-12.9,7.19-17.12,5.19-3.84,11.02-4.67,16.91-1.82,6.8,3.3,10.92,8.78,11.92,16.38.18,1.39.1,2.82.1,4.24-.02,56.07-.03,112.15-.06,168.22,0,7.4-1.62,14.19-8.79,18.01-6.92,3.68-14.18,3.25-20.7-.61-2.62-1.55-4.41-5.1-5.69-8.11-.99-2.33-.79-5.24-.8-7.9-.02-19.48.04-38.95.09-58.43.03-9.64-1.54-11.26-11.06-11.27-25.81,0-51.62-.02-77.44-.01-8.38,0-10.61,2.23-10.61,10.61-.02,19.95.05,39.9-.04,59.84-.04,9.53-4.19,16.32-11.91,17.41-5.21.73-11.02.06-16.05-1.57-5.87-1.9-7.51-7.44-7.5-13.4.04-29.06.02-58.11.02-87.17Z"/>
    <path class="cls-1" d="M368.34,594.76c-12.12,0-24.24-.11-36.36.04-7.51.09-10.65,2.81-13.42,9.56-4.75,11.58-9.76,23.05-14.81,34.5-4.14,9.39-13.92,9.97-23.21,6.77-7.61-2.62-12.08-11.99-9.16-19.8,4.78-12.75,10.08-25.31,15.45-37.83,19.67-45.96,39.37-91.91,59.27-137.77,5.65-13.02,18.64-18.61,30.5-13.01,4.12,1.94,8.34,5.63,10.4,9.61,7.33,14.19,14.15,28.67,20.42,43.36,18.2,42.62,36.12,85.37,53.92,128.16,1.88,4.52,3.07,9.64,3.18,14.52.18,8.05-5.69,13.51-13.6,13.92-12.93.66-16.91-1.89-21.98-13.84-4.47-10.52-9.11-20.96-13.57-31.48-1.94-4.59-5.06-6.71-10.19-6.62-12.28.2-24.56.07-36.84.07,0-.05,0-.09,0-.14ZM368.03,487.7c-9.9,23.43-19.26,45.41-28.45,67.45-1.68,4.02,0,6.02,5.33,6.19,15.39.46,30.79.79,46.18.96,6.09.07,7.54-2.32,5.2-8.09-3.05-7.54-6.23-15.02-9.42-22.5-6.06-14.22-12.18-28.42-18.86-44.01Z"/>
    <path class="cls-1" d="M826.87,649.71c-27.02.03-49.7-5.15-69.41-19.75-22.43-16.62-34.94-39.71-39.57-66.58-6.02-34.97,2.22-67.1,24.51-94.9,13.65-17.02,31.84-27.11,53.62-30.5,6.49-1.01,12.87-3.05,19.38-3.63,13.29-1.2,26.6-.09,39.25,4.03,11.14,3.63,22.02,8.29,32.62,13.34,11.17,5.32,13.73,18.9,5.8,27.21-4.63,4.85-10.76,6.29-16.75,3.25-14.22-7.21-29.23-11.53-45.13-12.23-19.99-.89-39.44.81-55.34,15.01-12.79,11.41-18.91,26.39-21.89,42.76-2.66,14.65-.61,28.98,3.78,43.14,7.26,23.39,23.8,36.12,46.92,41.48,23.23,5.39,45.14,1.22,66.41-8.79,4.35-2.05,9.75-3.55,14.37-2.98,11.36,1.39,16.09,16.27,8.2,25.42-3.08,3.57-7.33,6.39-11.52,8.7-18.04,9.97-37.23,15.8-55.25,15.03Z"/>
    <path class="cls-1" d="M234.26,538.86c0,25.45.07,50.9-.05,76.35-.03,6.11-.49,12.23-1.12,18.31-.85,8.08-6.33,12.9-14.52,13.25-12.36.53-16.95-2.71-19.62-14.66-1.15-5.15-1.92-10.5-1.94-15.76-.14-49.8-.14-99.6,0-149.4.01-5.27.75-10.63,1.92-15.78,2.27-10.01,10.39-16.76,18.29-15.86,9.48,1.08,17.01,10.05,17.03,20.6.06,27.65.02,55.3.02,82.95Z"/>
  </g>
</svg>