<?xml version="1.0" encoding="UTF-8"?>
<svg id="Layer_1" xmlns="http://www.w3.org/2000/svg" width="1080" height="1080" viewBox="0 0 1080 1080">
  <defs>
    <style>
      .cls-1 {
        fill: #f6ece1;
      }

      .cls-2 {
        fill: #1a6f65;
      }
    </style>
  </defs>
  <path class="cls-2" d="M229.08,362.78c-4.94-13.19-10.66-23.75-25.74-38.79-20.02-20.58-53.05-34.04-67.61-34.04h-.26c.52.26.78.26,1.56.53,1.04.26,1.82.53,4.68,1.58,19.76,7.13,38.75,22.96,51.49,41.43,15.86,23.22,18.46,42.49,18.72,64.65.26,22.96-6.24,47.24-17.68,64.65-17.42,26.65-46.03,41.7-78.01,41.17-12.48-.26-30.68-2.64-44.73-13.46-15.08-11.35-24.7-24.81-28.34-39.85-3.38-13.46-3.38-27.71,0-38,3.9-11.61,11.44-20.32,21.84-25.33,10.92-5.01,26-5.28,36.93-.53,21.84,9.5,19.76,29.56,17.16,35.63-2.34,6.07-8.32,12.14-16.38,12.14-4.94,0-9.62-1.85-12.48-5.01-3.64-3.96-5.2-8.44-5.72-11.08-.26-.53-.26-1.32-.52-1.58l-.26-.79-.78,1.06c0,.26-2.34,3.69-3.12,6.6-1.04,3.96-1.04,7.92-.26,11.61,1.82,6.86,6.76,12.14,14.56,15.57,11.18,4.75,24.44,1.85,32.76-2.9,7.54-4.49,13.52-11.08,16.9-18.74,4.16-9.5,5.2-21.38,3.12-33.25-2.34-12.67-14.56-25.6-24.44-31.4-15.6-8.97-26.78-10.03-43.17-8.71-13.78,1.06-25.74,6.6-37.71,17.15-9.62,8.71-17.68,23.22-19.76,36.42-3.12,19.26-1.82,32.72,4.42,49.88,13,35.1,40.05,51.72,48.11,55.95,12.74,6.6,30.42,12.93,51.23,12.93,11.44,0,23.66-1.85,36.93-6.6,25.74-9.24,43.43-24.01,58.25-47.76,7.8-12.4,13.26-29.82,15.08-53.31,2.34-21.37-1.3-43.01-6.76-57.79Z"/>
  <path class="cls-2" d="M282.65,289.68h-2.86v238.82h43.17v-238.82h-40.31Z"/>
  <path class="cls-2" d="M368.72,289.68h-2.86v238.82h43.17v-238.82h-40.31Z"/>
  <path class="cls-2" d="M630.58,289.68h-40.57v152.53l-103.5-151.21-.78-1.32h-33.54v238.82h43.17v-152.27l103.24,150.95.78,1.32h33.81v-238.82h-2.6Z"/>
  <g>
    <path class="cls-2" d="M664.21,493.74c0,11.35.03,22.3-.02,33.25-.01,2.78.98,6.23-4.02,6.01-4.63-.21-3.2-3.54-3.22-5.86-.11-14.58-.13-29.16.03-43.74.02-2-1.62-5.1,2.21-5.83,2.86-.55,4.35,1.1,5.83,3.27,8.19,12.02,16.5,23.96,26.21,38.02,0-13.04-.12-23.88.08-34.71.05-2.63-2.1-6.93,3.86-6.67,5.11.21,3.58,3.83,3.6,6.41.12,14.31.12,28.62,0,42.93-.02,2.12,1.4,5.14-2.18,6.05-3.25.82-4.87-1.29-6.47-3.65-6.64-9.85-13.29-19.68-20.11-29.4-1.43-2.04-2.11-4.92-5.8-6.06Z"/>
    <path class="cls-2" d="M827.29,435.15c-16.31,9.9-31.23,5.25-34.71-10.52-1.73-7.85,1.39-15.93,8.14-20.58,6.81-4.69,13.92-5.6,21.34-1.29,2.19,1.27,5.04,5.94,6.16-.96.07-.42,2.4-.7,3.67-.66,2.27.06,2.29,1.87,2.27,3.51-.09,12.16.14,24.34-.44,36.47-.36,7.5-5.31,12.46-12.25,14.66-8.06,2.56-16.13,2.37-22.99-3.54-1.36-1.17-4.31-2.66-2.05-5.08,1.81-1.93,3.87-3.01,6.76-.15,5.16,5.12,11.54,5.25,17.92,2,5.71-2.91,6.57-7.97,6.17-13.86Z"/>
    <path class="cls-2" d="M900.61,405.64c.95-2.59,1-6.13,5.35-5.15,3.66.83,2.53,3.67,2.56,5.86.1,9.72.09,19.43,0,29.15-.01,1.7.83,4.24-1.92,4.56-1.83.21-4.74,1.34-5.11-2.04-.39-3.61-1.65-2-3.43-1.02-11.06,6.11-20.93,4.59-27.32-4.05-6.12-8.28-5.22-20.45,2.03-27.4,8.12-7.78,17.57-7.8,27.83.09Z"/>
    <path class="cls-2" d="M1011.43,424c3.45,10.27,12.81,13.65,21.86,7.98,2.74-1.72,5.12-3.65,7.33-.4,2.53,3.71-1.68,4.94-3.61,6.34-7.21,5.22-18.93,4.65-25.78-.86-7.21-5.8-9.67-16.12-5.92-24.9,3.37-7.88,12.43-13.06,21.04-12.04,9.11,1.09,15.52,7.77,17.52,17.57,1.06,5.18-.59,6.61-5.69,6.41-8.84-.35-17.7-.1-26.74-.1Z"/>
    <path class="cls-2" d="M927.39,349.05c-13.36.24-21.76-6.05-24.05-16.43-2.07-9.4,2.48-18.8,11.11-22.93,8.98-4.29,19.01-2.07,24.63,5.76,1.53,2.13,2.59,4.73,3.34,7.27,2.49,8.42,1.94,9.05-6.97,9.07-6.77.02-13.54-.04-20.3.04-1.48.02-3.48-.72-4.18,1.31-.59,1.72.68,2.99,1.73,4.25,4.76,5.72,13.27,6.88,20.44,1.73,3.23-2.32,5.47-2.3,7.26.39,1.87,2.81-1.59,3.93-3.13,5.24-3.37,2.86-7.47,4.23-9.89,4.31Z"/>
    <path class="cls-2" d="M752.79,424c5.32,10.8,14.01,13.63,23,7.71,3.14-2.07,5.47-2.58,7.35.23,1.94,2.91-1.58,4.05-3.19,5.34-7.22,5.77-19.13,5.61-26.39-.11-7.14-5.63-9.77-16.19-6.2-24.86,3.3-8.02,13.03-13.42,21.76-12.1,8.83,1.33,15.35,8.32,16.7,17.31.71,4.69-.02,6.89-5.58,6.6-8.84-.47-17.72-.13-27.46-.13Z"/>
    <path class="cls-2" d="M873.55,513.02c-.13-11.25,8.98-20.59,20.36-20.86,11.54-.27,21.41,9.2,21.57,20.69.15,11.06-10.15,21.2-21.44,21.11-11.2-.09-20.35-9.44-20.49-20.93Z"/>
    <path class="cls-2" d="M1034.62,328.01c.03,11.03-9.33,20.55-20.55,20.92-11.07.36-21.14-9.63-21.26-21.1-.12-11.03,9.32-20.48,20.6-20.62,11.69-.14,21.17,9.16,21.2,20.81Z"/>
    <path class="cls-2" d="M744.51,513.42c0,5.13-.04,10.25.01,15.38.02,2.41-1.23,5.52-3.24,3.94-5.48-4.31-9.3.74-13.83,1.3-9.98,1.23-17.67-4.87-18.21-14.97-.37-7-.11-14.03-.13-21.04,0-2.16-.28-4.23,3.09-4.35,3.68-.13,3.79,1.91,3.76,4.58-.07,6.21-.02,12.41,0,18.62.02,6.33,2.86,10.68,9.48,10.7,6.34.02,10.97-3.24,11.46-10.07.45-6.18.31-12.4.35-18.6.02-2.82-.23-5.43,4.03-5.21,3.96.2,3.18,2.88,3.21,5.16.07,4.86.02,9.71.02,14.57Z"/>
    <path class="cls-2" d="M923.8,512.56c0-5.12.18-10.25-.06-15.35-.17-3.62,3.09-5,4.31-3.52,4.05,4.87,6.8.5,9.92-.59,9.35-3.27,18.44,1.63,20.27,11.33,1.56,8.27.52,16.67.76,25,.08,2.89-1.49,3.61-4.08,3.55-2.62-.06-3.08-1.55-3.07-3.69.02-6.47-.1-12.93.01-19.4.11-6.47-2.94-10.46-9.34-10.85-6.16-.37-10.29,3-11.51,9.11-.57,2.86.33,6.11-.57,8.8-1.75,5.24,4.65,15.18-3.45,15.11-7.22-.07-1.31-10.17-3.14-15.49-.41-1.21-.06-2.67-.06-4.02Z"/>
    <path class="cls-2" d="M866.94,328.75c0,5.13-.2,10.27.06,15.39.19,3.76-3.39,4.78-4.33,3.43-3.9-5.57-6.95-.55-10.05.31-11.26,3.13-19.85-2.01-20.87-13.48-.65-7.23-.17-14.57-.29-21.85-.04-2.55.65-4.05,3.59-4.05,2.96,0,3.64,1.54,3.63,4.07-.04,6.48.04,12.96.02,19.44-.02,6.07,2.9,10.02,8.93,10.43,6.03.41,10.37-2.44,11.7-8.81,1.4-6.69.42-13.46.72-20.18.11-2.37-.47-4.92,3.43-4.95,3.9-.03,3.46,2.47,3.46,4.89,0,5.13,0,10.26,0,15.39Z"/>
    <path class="cls-2" d="M675.1,327.2c0-5.14.1-10.28-.03-15.41-.11-4.28,4.05-5.02,5.12-3.39,3.17,4.83,5.45,1.41,8.18.21,9.42-4.12,18.95.49,21.33,10.57,1.95,8.25.49,16.7.87,25.05.1,2.27-.73,3.43-3.21,3.53-2.82.11-3.87-1-3.83-3.76.1-5.95.03-11.9,0-17.84-.03-6.56-1.73-11.96-9.58-12.45-7.08-.44-11.3,3.93-11.77,12.46-.31,5.66-.15,11.35-.1,17.03.03,2.69-.15,4.76-3.81,4.59-3.25-.15-3.2-2.11-3.19-4.36.02-5.41,0-10.82,0-16.22Z"/>
    <path class="cls-2" d="M675.1,420.24c0-5.13.17-10.28-.05-15.4-.15-3.52,2.68-5.15,4.29-3.6,4.1,3.94,6.85.6,10.12-.6,8.93-3.27,17.76,1.25,20.12,10.58,2.15,8.5.58,17.22.99,25.83.12,2.54-1.27,3.18-3.54,3.19-2.33.01-3.49-.83-3.47-3.26.04-6.21.02-12.43-.03-18.64-.05-6.64-2.04-11.86-9.87-12.15-6.81-.25-10.92,3.91-11.43,11.94-.36,5.65-.08,11.34-.17,17.02-.04,2.27.75,4.99-3.22,5.12-4.45.15-3.72-2.82-3.73-5.43-.03-4.86,0-9.73,0-14.59Z"/>
    <path class="cls-2" d="M731.36,307.3c6.53-.27,10.37,1.4,13.49,4.74,1.06,1.14,2.75,2.45.94,3.97-1.24,1.04-2.69,2.91-4.84,1.16-1.44-1.17-2.87-2.79-4.55-3.16-3.69-.83-8.14-1.56-9.76,3.06-1.68,4.78,2.59,5.67,5.9,6.78,2.82.95,5.7,1.72,8.47,2.78,4.45,1.71,7,4.96,7.19,9.79.2,5.23-2.61,8.66-7.06,10.82-7.08,3.42-16.5,1.67-20.92-3.67-1.4-1.69-3.14-3.34-.42-5.29,1.78-1.28,3.57-2.56,5.39.13,1.26,1.86,3.15,2.94,5.44,3.11,3.76.29,8.34,1.26,9.78-3.3,1.6-5.1-3.13-5.95-6.65-7.17-1.53-.53-3.11-.89-4.63-1.43-5.99-2.14-11.26-5.28-9.91-12.67,1.36-7.43,7.46-9.21,12.14-9.65Z"/>
    <path class="cls-2" d="M974.4,330.74c0-3.51-.03-7.02,0-10.53.03-2.72.5-5.61-3.83-5.27-2.12.17-2.67-1.35-2.62-3.19.04-1.63-.08-3.71,2.13-3.59,4.5.25,4.11-2.81,4.73-5.72,1.41-6.63,6.03-9.93,12.54-10.88,1.86-.27,3.94-.88,4.45,1.89.45,2.46-.11,4.05-3.12,4.42-1.76.21-3.62,1.2-5.02,2.35-1.71,1.4-2.61,3.64-2.1,5.83.58,2.48,2.97,1.73,4.74,1.88,2.58.21,5.73-.65,5.63,3.73-.11,4.5-3.5,3.45-5.89,3.29-4.2-.28-4.95,1.74-4.86,5.34.19,7.55.06,15.12.05,22.68,0,2.41.43,4.85-3.48,4.84-4-.01-3.33-2.59-3.36-4.92-.04-4.05-.01-8.1-.01-12.15Z"/>
    <path class="cls-2" d="M735.94,440.51c-7.03-.02-11.02-3.31-11.55-10.06-.37-4.82-.1-9.69-.27-14.53-.13-3.9,1.79-9.14-5.57-8.64-1.42.1-1.81-1.7-1.85-3.12-.06-1.86.56-3.31,2.66-3.11,4.14.38,5.26-1.78,4.77-5.33-.48-3.48,1.5-5.1,4.46-5.42,4.47-.49,2.76,3.21,2.71,5.07-.11,4,.89,6.11,5.41,5.69,2.11-.2,5.11-1.1,5.17,2.99.05,3.77-2.45,3.76-4.9,3.44-4.95-.65-5.87,1.85-5.62,6.08.29,4.83.1,9.69.08,14.54,0,3.32.84,5.79,4.84,6,2.37.13,5.89-1.14,5.55,3.48-.34,4.62-4,2.19-5.9,2.92Z"/>
    <path class="cls-2" d="M771.39,533.44c-8.52-.36-12.06-3.77-12.57-12.07-.25-4.04.11-8.11-.17-12.14-.28-3.97,2.37-9.87-5.68-9.43-1.53.08-1.76-1.73-1.8-3.13-.04-1.81.39-3.36,2.59-3.14,4.06.4,5.4-1.61,4.94-5.26-.44-3.54,1.79-5.08,4.63-5.34,4.65-.43,2.42,3.49,2.37,5.15-.13,4.27,1.36,5.88,5.62,5.46,2.28-.22,5.11-.71,4.94,3.28-.13,3.15-2.19,3.53-4.43,3.16-5.46-.89-6.4,1.88-6.02,6.47.31,3.76.25,7.57.02,11.33-.31,5.13.28,9.31,6.9,9.15,2.82-.07,3.95,1.48,3.43,4.12-.59,3.06-3.1,2.35-4.77,2.41Z"/>
    <path class="cls-2" d="M812.96,297.55c-.01,5.87-.62,12.32,8.65,10.62,1.87-.34,2.29,1.79,2.3,3.52.02,3.01-1.92,3.72-4.29,3.3-5.98-1.05-6.62,2.26-6.27,6.93.26,3.48.18,7,.02,10.49-.25,5.34.07,9.98,7.46,9.13,2.27-.26,3.42.91,3.48,3.31.08,2.69-1.63,2.86-3.63,3.16-8.3,1.25-13.68-2.96-14-11.3-.2-5.11-.18-10.23-.02-15.34.11-3.77.23-7.15-5.21-6.4-1.98.28-2.89-.95-2.87-2.91.03-1.89-.23-4.18,2.57-4,4.45.28,5.55-1.88,5.3-5.85-.27-4.3,3.13-4.24,6.5-4.67Z"/>
    <path class="cls-2" d="M962.09,401.93c5.07-2.11,7.49-.62,9.09,3.87,3.05,8.59,6.57,17.02,10.41,26.83,3.83-9.58,7.36-17.84,10.4-26.29,1.37-3.79,3.29-6.95,7.32-5.02,3.45,1.65.13,4.73-.67,6.83-3.44,9.05-7.33,17.92-10.92,26.91-1.12,2.81-1.8,5.3-5.88,5.29-3.86,0-4.98-1.92-6.16-4.95-4.39-11.2-9.02-22.3-13.58-33.49Z"/>
    <path class="cls-2" d="M893.13,348.06c-7.21-.26-11.36-3.52-11.5-10.88-.09-4.85,0-9.71-.07-14.57-.06-3.76,1.43-8.58-5.46-7.75-2.15.26-2.37-1.67-2.41-3.38-.04-1.78.38-3.51,2.46-3.35,4.91.39,5.92-2.11,5.48-6.32-.35-3.41,2.55-4,4.84-4.02,3.06-.03,1.96,2.83,1.8,4.3-.48,4.71,1.49,6.32,6.02,5.9,2.36-.22,5-.41,5.04,3.39.05,4.43-3.1,3.8-5.62,3.56-4.38-.41-5.67,1.4-5.4,5.55.31,4.84.08,9.71.08,14.56,0,3.59.76,6.46,5.3,6.43,2.55-.02,5.94-.79,5.56,3.62-.38,4.45-4.04,2.21-6.11,2.92Z"/>
    <path class="cls-2" d="M765.81,297.58c-.27,6.11-.44,12.18,8.69,10.61,1.86-.32,2.13,1.96,2.12,3.65-.03,2.4-1.35,3.59-3.59,3.14-7.84-1.56-7.26,3.48-7.02,8.52.17,3.49.19,7,0,10.49-.27,4.72.75,8.09,6.52,7.51,2.62-.26,4.1.77,4.05,3.6-.06,3.37-2.58,2.78-4.62,2.9-8.12.5-12.27-2.97-12.7-10.94-.25-4.56-.03-9.15-.13-13.72-.09-3.98,1.68-9.17-5.74-8.49-2.14.2-1.98-2.05-2.02-3.64-.05-1.82.52-3.34,2.63-3.17,4.56.38,5.38-2.07,5.22-5.92-.18-4.29,3.22-4.18,6.59-4.54Z"/>
    <path class="cls-2" d="M839.43,482.23c-.7,7.16-.74,13.05,8.44,11.44,2.02-.35,2.38,1.66,2.25,3.42-.18,2.54-1.92,3.23-3.94,2.84-7.05-1.37-7.19,2.87-6.86,7.89.23,3.48.24,7.01,0,10.49-.35,4.99.75,8.55,6.69,8.58,2.34,0,4.39.55,4.11,3.62-.28,3.13-2.68,2.92-4.81,2.95-8.12.14-12.43-3.96-12.71-12.22-.15-4.3.04-8.62-.08-12.92-.11-3.92,1.79-9.2-5.65-8.49-2.24.21-2.08-1.93-2.19-3.52-.14-2.07.9-3.02,2.87-2.81,3.89.41,5.54-1.27,4.99-5.1-.66-4.63,2.69-5.09,6.89-6.19Z"/>
    <path class="cls-2" d="M935.32,440.5c-8.05-.02-11.49-3.15-11.97-11.17-.29-4.83-.1-9.69-.14-14.54-.03-3.64,1.1-8-5.2-7.39-2.2.21-2.38-1.67-2.44-3.36-.07-1.88.53-3.27,2.68-3.01,4.91.58,5.21-2.51,4.95-6.04-.28-3.75,2.42-4.88,5.12-4.73,3.37.18,1.89,3.37,1.82,5.11-.16,3.95.73,6.15,5.31,5.7,2.12-.21,5.17-1.08,5.19,2.98.03,3.71-2.53,3.75-4.98,3.42-5.12-.7-5.74,2.06-5.47,6.15.25,3.75.18,7.54.02,11.31-.22,5.26-.12,10.07,7.33,9.23,2.69-.3,3.16,1.51,3.05,3.58-.21,4.04-3.47,2.24-5.29,2.77Z"/>
    <path class="cls-2" d="M844.51,419.95c0-4.84.19-9.68-.06-14.51-.23-4.41,3.48-6.11,5.25-4.04,3.92,4.57,6.04.14,8.93-.38,1.73-.31,4.22-2.91,5.06.89.43,1.95,1,4.56-2.11,5.19-9.59,1.94-10.06,9.05-9.78,16.72.14,4.02-.07,8.06.05,12.09.09,2.91-.65,4.51-4.03,4.4-3.15-.1-3.35-1.89-3.33-4.24.05-5.37.01-10.75.01-16.12Z"/>
    <path class="cls-2" d="M1042.88,327.23c0-5.12.11-10.25-.04-15.37-.12-4.16,3.73-5.24,5.06-3.52,3.57,4.63,5.77,1.15,8.68-.13,1.75-.77,4.4-2.56,5.45.36.66,1.82,1.61,5.23-1.97,5.97-10.08,2.08-10.27,9.61-10.08,17.49.09,4.04-.04,8.09.01,12.13.03,2.21-.56,3.57-3.13,3.61-2.57.04-4.06-.62-4-3.57.12-5.66.03-11.32.03-16.99Z"/>
    <path class="cls-2" d="M663.87,320.71c0,7.27.02,14.55-.01,21.82-.01,2.58.76,5.52-3.73,5.42-3.84-.09-3.46-2.48-3.46-4.89,0-15.36.02-30.71-.03-46.07,0-2.67.11-4.66,3.77-4.6,3.86.06,3.45,2.48,3.45,4.88,0,7.81,0,15.62,0,23.44Z"/>
    <path class="cls-2" d="M656.67,412.16c0-7.54.02-15.09,0-22.63,0-2.54-.12-4.75,3.64-4.74,3.81,0,3.58,2.29,3.58,4.79-.01,15.36-.02,30.72,0,46.07,0,2.54.15,4.74-3.63,4.72-3.79-.02-3.6-2.26-3.59-4.77.02-7.81,0-15.63,0-23.44Z"/>
    <path class="cls-2" d="M785.02,513.34c0-5.39.08-10.78-.03-16.16-.08-4.32,4.39-4.75,5.19-3.34,2.97,5.19,4.91,1.12,7.51.17,1.85-.67,4.63-3.34,6,.29.91,2.41,1.05,5.13-3.01,6.02-7.07,1.55-9.07,6.78-8.74,13.44.2,4.03.28,8.1-.05,12.11-.22,2.68,2.12,7.17-3.62,7.03-5.08-.12-3.04-4.16-3.21-6.65-.3-4.29-.08-8.61-.08-12.92h.03Z"/>
    <path class="cls-2" d="M948.58,419.99c0-5.12.07-10.24-.02-15.36-.05-2.81,1.24-3.81,3.94-3.72,2.34.08,3.45,1.1,3.45,3.42,0,10.78-.04,21.57.04,32.35.02,2.87-1.34,3.64-3.99,3.65-3.09,0-3.46-1.73-3.43-4.16.07-5.39.02-10.78.02-16.17Z"/>
    <path class="cls-2" d="M817.99,513.92c0,4.83-.05,9.66.02,14.48.04,2.65-.19,4.74-3.74,4.69-3.61-.05-3.64-2.33-3.63-4.87.02-10.19.06-20.38-.02-30.58-.02-3.01,1.04-4.39,4.24-4.26,3.24.13,3.13,2.23,3.13,4.44,0,5.36,0,10.73,0,16.09Z"/>
    <path class="cls-2" d="M785,327.83c0-5.4,0-10.81,0-16.21,0-2.15.62-3.62,3.2-3.66,2.74-.04,3.85,1.08,3.83,3.86-.09,10.81-.06,21.62-.02,32.43,0,2.26-.7,3.44-3.2,3.53-2.79.1-3.91-.93-3.84-3.73.12-5.4.03-10.81.04-16.21Z"/>
    <path class="cls-2" d="M858.47,512.43c0-5.1.08-10.21-.03-15.31-.06-2.8,1.15-3.74,3.86-3.66,2.61.08,3.03,1.52,3.03,3.64-.03,10.74-.03,21.48,0,32.23,0,2.11-.39,3.57-3.01,3.65-2.7.09-3.93-.82-3.88-3.64.11-5.64.03-11.28.03-16.92Z"/>
    <path class="cls-2" d="M818.89,481.69c-.37,2.92-2.1,4.35-4.96,4.07-2.95-.29-4.22-2.19-3.91-5.05.29-2.61,2.1-3.62,4.51-3.66,3.09-.05,4.22,1.86,4.36,4.63Z"/>
    <path class="cls-2" d="M860.95,485.76c-2.49-.27-3.97-1.91-3.72-4.81.27-3.03,2.34-4.04,5.1-3.88,2.7.16,3.83,2.12,3.79,4.39-.04,2.8-1.74,4.42-5.18,4.3Z"/>
    <path class="cls-2" d="M788.18,292.01c2.62.19,4.32,1.27,4.39,3.94.07,2.93-1.61,4.7-4.4,4.69-2.31,0-4.06-1.44-4.28-4.03-.26-3.17,1.79-4.19,4.29-4.6Z"/>
    <path class="cls-2" d="M952.42,384.49c2.84.24,4.46,1.65,4.34,4.61-.1,2.49-1.4,3.99-3.94,4.16-2.91.19-4.59-1.21-4.75-4.13-.17-2.99,1.61-4.31,4.36-4.64Z"/>
    <path class="cls-1" d="M827.34,420.31c.1,7.65-5.89,13.74-13.76,13.97-8.22.24-14.5-5.75-14.58-13.92-.08-7.52,6.07-13.85,13.73-14.14,7.88-.29,14.5,6.1,14.61,14.09Z"/>
    <path class="cls-1" d="M887.52,406.54c7.95.08,14.01,6.57,13.82,14.77-.18,7.63-6.49,13.73-14.12,13.64-7.95-.09-14.01-6.57-13.8-14.78.19-7.66,6.46-13.72,14.1-13.64Z"/>
    <path class="cls-1" d="M1023.84,417.76c-1.88,0-3.79.18-5.65-.05-2.23-.27-5.43,1.38-6.47-1.29-1.08-2.76,1.56-4.89,3.44-6.76,3.1-3.08,7.14-3.99,11.2-3.35,5.08.8,10.21,3.7,9.82,8.96-.37,5.01-5.99,1.48-9.12,2.43-.99.3-2.14.05-3.22.05Z"/>
    <path class="cls-1" d="M936.38,325.02c-7.67,0-14.66-.1-21.64.03-5.14.1-4.54-2.15-2.52-5.32,3.11-4.91,7.9-6.55,13.23-5.92,5.82.69,9.71,4.08,10.94,11.2Z"/>
    <path class="cls-1" d="M765.48,417.76c-1.61,0-3.27.23-4.83-.05-2.43-.44-6.12,1.77-7.04-1.49-.8-2.84,1.88-5.4,4.21-7.26,6.17-4.91,15.89-3.19,19.76,3.3,2.35,3.94,1.81,5.88-3.24,5.54-2.94-.2-5.91-.04-8.87-.04Z"/>
    <path class="cls-1" d="M908.3,513.05c.06,7.89-5.9,13.82-13.84,13.78-7.89-.04-13.96-6.01-14.01-13.79-.05-7.48,6.47-14.01,13.98-13.99,7.65.02,13.82,6.25,13.88,14.01Z"/>
    <path class="cls-1" d="M1013.83,314.07c7.51.08,13.94,6.52,14,14.03.06,7.53-6.24,13.67-14.09,13.72-7.93.05-13.73-5.79-13.72-13.82,0-7.83,6.12-14,13.81-13.92Z"/>
  </g>
</svg>