<?xml version="1.0" encoding="UTF-8"?>
<svg id="Layer_1" xmlns="http://www.w3.org/2000/svg" width="1080" height="1080" viewBox="0 0 1080 1080">
  <defs>
    <style>
      .cls-1 {
        fill: #c63b31;
      }
    </style>
  </defs>
  <path class="cls-1" d="M376,408.58c-8.36-22.34-18.05-40.21-43.58-65.68-33.9-34.85-89.81-57.63-114.47-57.63h-.44c.88.45,1.32.45,2.64.89,1.76.45,3.08.89,7.93,2.68,33.46,12.06,65.6,38.87,87.17,70.15,26.86,39.32,31.26,71.93,31.7,109.46.44,38.87-10.57,79.97-29.94,109.46-29.5,45.13-77.93,70.59-132.08,69.7-21.13-.45-51.95-4.47-75.72-22.79-25.53-19.21-41.82-42-47.99-67.47-5.72-22.79-5.72-46.91,0-64.34,6.6-19.66,19.37-34.4,36.98-42.89,18.49-8.49,44.03-8.93,62.52-.89,36.98,16.08,33.46,50.04,29.06,60.32-3.96,10.28-14.09,20.55-27.74,20.55-8.36,0-16.29-3.13-21.13-8.49-6.16-6.7-8.81-14.3-9.69-18.76-.44-.89-.44-2.23-.88-2.68l-.44-1.34-1.32,1.79c0,.45-3.96,6.26-5.28,11.17-1.76,6.7-1.76,13.4-.44,19.66,3.08,11.62,11.45,20.55,24.65,26.36,18.93,8.04,41.38,3.13,55.47-4.91,12.77-7.6,22.89-18.77,28.62-31.72,7.04-16.08,8.81-36.19,5.28-56.29-3.96-21.45-24.66-43.34-41.38-53.17-26.42-15.19-45.35-16.98-73.08-14.74-23.33,1.79-43.59,11.17-63.84,29.04-16.29,14.74-29.94,39.32-33.46,61.66-5.28,32.62-3.08,55.4,7.48,84.44,22.01,59.42,67.8,87.57,81.45,94.72,21.57,11.17,51.51,21.89,86.73,21.89,19.37,0,40.06-3.13,62.52-11.17,43.58-15.64,73.52-40.66,98.62-80.87,13.21-21,22.45-50.49,25.54-90.25,3.96-36.19-2.2-72.83-11.45-97.84Z"/>
  <path d="M466.7,284.82h-4.84v404.34h73.08v-404.34h-68.24Z"/>
  <path d="M612.42,284.82h-4.84v404.34h73.08v-404.34h-68.24Z"/>
  <path d="M1055.76,284.82h-68.68v258.24l-175.22-256.01-1.32-2.23h-56.79v404.34h73.08v-257.79l174.78,255.56,1.32,2.23h57.23v-404.34h-4.4Z"/>
</svg>