<?xml version="1.0" encoding="UTF-8"?>
<svg id="Layer_1" xmlns="http://www.w3.org/2000/svg" width="100" height="100" viewBox="0 0 100 100">
  <defs>
    <style>
      .cls-1 {
        fill: #1d1d1b;
      }

      .cls-2 {
        opacity: .98;
      }
    </style>
  </defs>
  <g>
    <g id="_x3C_Radial_Repeat_x3E_">
      <circle class="cls-1" cx="5.3" cy="45.6" r="3.79"/>
    </g>
    <g id="_x3C_Radial_Repeat_x3E_-2" data-name="_x3C_Radial_Repeat_x3E_">
      <circle class="cls-1" cx="39.2" cy="8.3" r="3.79"/>
    </g>
    <g id="_x3C_Radial_Repeat_x3E_-3" data-name="_x3C_Radial_Repeat_x3E_">
      <circle class="cls-1" cx="85.56" cy="28.1" r="3.79"/>
    </g>
    <g id="_x3C_Radial_Repeat_x3E_-4" data-name="_x3C_Radial_Repeat_x3E_">
      <circle class="cls-1" cx="82.04" cy="78.39" r="3.79"/>
    </g>
    <g id="_x3C_Radial_Repeat_x3E_-5" data-name="_x3C_Radial_Repeat_x3E_">
      <circle class="cls-1" cx="33.37" cy="91.53" r="3.79"/>
    </g>
  </g>
  <g>
    <g id="_x3C_Radial_Repeat_x3E_-6" data-name="_x3C_Radial_Repeat_x3E_">
      <circle class="cls-1" cx="12.08" cy="74.55" r="3.79"/>
    </g>
    <g id="_x3C_Radial_Repeat_x3E_-7" data-name="_x3C_Radial_Repeat_x3E_">
      <circle class="cls-1" cx="14.08" cy="24.18" r="3.79"/>
    </g>
    <g id="_x3C_Radial_Repeat_x3E_-8" data-name="_x3C_Radial_Repeat_x3E_">
      <circle class="cls-1" cx="62.32" cy="9.56" r="3.79"/>
    </g>
    <g id="_x3C_Radial_Repeat_x3E_-9" data-name="_x3C_Radial_Repeat_x3E_">
      <circle class="cls-1" cx="91.94" cy="50.36" r="3.79"/>
    </g>
    <g id="_x3C_Radial_Repeat_x3E_-10" data-name="_x3C_Radial_Repeat_x3E_">
      <circle class="cls-1" cx="63.1" cy="91.7" r="3.79"/>
    </g>
  </g>
  <g class="cls-2">
    <path class="cls-1" d="M83.31,44.57c-3.11-19.13-21.14-32.12-40.28-29.01-19.13,3.11-32.12,21.14-29.01,40.28,3.11,19.13,21.14,32.12,40.28,29.01,19.13-3.11,32.12-21.14,29.01-40.28ZM53.26,77.73c-1.5.25-2.99.37-4.47.37-13.36,0-25.17-9.7-27.38-23.31-2.45-15.1,7.84-29.39,22.94-31.85,15.09-2.46,29.39,7.83,31.85,22.94,2.46,15.1-7.84,29.39-22.94,31.85Z"/>
    <path class="cls-1" d="M72.06,46.55c-1.88-11.54-11.9-19.78-23.24-19.78-1.25,0-2.52.1-3.79.31-4.28.7-8.04,2.58-11.16,5.17-.2.08-.42.1-.61.19-.58.25-.86.68-.94,1.15-5.24,5.18-8.02,12.7-6.76,20.52,2.08,12.82,14.19,21.52,27.03,19.47,12.82-2.08,21.55-14.21,19.47-27.03ZM51.57,68.11c-9.89,1.61-19.21-5.11-20.82-15-1.33-8.16,3.05-15.85,10.16-19.23,2.74-.41,5.56-.41,8.08.35,3.65,1.1,6.23,3.82,7.97,7.13,1.73,3.29,3.02,7.5,1.99,11.21-1.1,3.96-4.65,7.17-8.78,7.53-4.16.36-8.35-2.32-9.52-6.37-.88-3.07-.1-7.23,2.87-8.88,3.4-1.88,8.72-1.49,10.53,2.45,1.59,3.47-2.44,10.52-6.38,6.9-.76-.69-1.05-1.83-.86-2.84.15.41.35.81.68,1.15.88.91,2.28,1.16,3.49.93,3.1-.6,2.57-4.54.92-6.34-2.08-2.29-5.64-1.13-7.33,1.03-1.8,2.31-1.71,5.57.06,7.86,1.79,2.32,5.05,3.19,7.76,2.11,2.72-1.08,4.59-3.77,5.26-6.54,1.63-6.79-4.65-11.82-11.05-11.23-5.5.51-9.45,4.65-9.72,10.19-.31,6.27,4.1,11.7,10.24,12.86,6.33,1.2,12.44-2.8,14.74-8.65,2.1-5.35.24-11.72-2.68-16.39-1.43-2.3-3.23-4.1-5.3-5.44,6.42,1.95,11.54,7.33,12.68,14.4,1.61,9.89-5.11,19.21-15,20.82ZM49.83,50.63c-2.26-.33-1.03-.43-.16-.49.09.26.16.49.16.49Z"/>
  </g>
</svg>