<?xml version="1.0" encoding="UTF-8"?>
<svg id="Layer_1" xmlns="http://www.w3.org/2000/svg" width="1030.11" height="994.69" viewBox="0 0 1030.11 994.69">
  <defs>
    <style>
      .cls-1 {
        fill: #fff;
      }

      .cls-2 {
        opacity: .98;
      }
    </style>
  </defs>
  <g>
    <g id="_x3C_Radial_Repeat_x3E_">
      <circle class="cls-1" cx="41.44" cy="449.24" r="41.44"/>
    </g>
    <g id="_x3C_Radial_Repeat_x3E_-2">
      <circle class="cls-1" cx="412.07" cy="41.44" r="41.44"/>
    </g>
    <g id="_x3C_Radial_Repeat_x3E_-3">
      <circle class="cls-1" cx="918.92" cy="257.91" r="41.44"/>
    </g>
    <g id="_x3C_Radial_Repeat_x3E_-4">
      <circle class="cls-1" cx="880.44" cy="807.73" r="41.44"/>
    </g>
    <g id="_x3C_Radial_Repeat_x3E_-5">
      <circle class="cls-1" cx="348.33" cy="951.39" r="41.44"/>
    </g>
  </g>
  <g>
    <g id="_x3C_Radial_Repeat_x3E_-6">
      <circle class="cls-1" cx="115.56" cy="765.75" r="41.44"/>
    </g>
    <g id="_x3C_Radial_Repeat_x3E_-7">
      <circle class="cls-1" cx="137.43" cy="215.05" r="41.44" transform="translate(-86.83 336.89) rotate(-85.93)"/>
    </g>
    <g id="_x3C_Radial_Repeat_x3E_-8">
      <circle class="cls-1" cx="664.84" cy="55.21" r="41.44"/>
    </g>
    <g id="_x3C_Radial_Repeat_x3E_-9">
      <circle class="cls-1" cx="988.68" cy="501.28" r="41.44"/>
    </g>
    <g id="_x3C_Radial_Repeat_x3E_-10">
      <circle class="cls-1" cx="673.37" cy="953.25" r="41.44"/>
    </g>
  </g>
  <g class="cls-2">
    <path class="cls-1" d="M894.32,437.98c-34-209.15-231.12-351.17-440.38-317.17-209.15,34-351.17,231.12-317.17,440.38,34,209.15,231.12,351.17,440.38,317.17,209.15-34,351.17-231.12,317.17-440.38ZM565.79,800.52c-16.4,2.73-32.69,4.05-48.87,4.05-146.07,0-275.18-106.05-299.35-254.85-26.79-165.09,85.72-321.32,250.8-348.22,164.98-26.9,321.32,85.61,348.22,250.8,26.9,165.09-85.72,321.32-250.8,348.22Z"/>
    <path class="cls-1" d="M771.33,459.63c-20.55-126.17-130.1-216.26-254.08-216.26-13.67,0-27.55,1.09-41.44,3.39-46.79,7.65-87.9,28.21-122.01,56.52-2.19.87-4.59,1.09-6.67,2.08-6.34,2.73-9.4,7.43-10.28,12.57-57.29,56.63-87.68,138.85-73.91,224.35,22.74,140.16,155.14,235.28,295.52,212.87,140.16-22.74,235.61-155.36,212.87-295.52ZM547.31,695.34c-108.13,17.6-210.02-55.87-227.63-164-14.54-89.21,33.35-173.29,111.08-210.24,29.96-4.48,60.79-4.48,88.34,3.83,39.91,12.03,68.11,41.76,87.14,77.95,18.91,35.97,33.02,82,21.76,122.56-12.03,43.29-50.84,78.39-95.99,82.33-45.48,3.94-91.29-25.36-104.08-69.64-9.62-33.56-1.09-79.05,31.38-97.09,37.17-20.55,95.34-16.29,115.12,26.79,17.38,37.94-26.68,115.02-69.75,75.44-8.31-7.54-11.48-20.01-9.4-31.05,1.64,4.48,3.83,8.86,7.43,12.57,9.62,9.95,24.93,12.68,38.16,10.17,33.89-6.56,28.1-49.64,10.06-69.32-22.74-25.04-61.66-12.35-80.14,11.26-19.68,25.26-18.7,60.9.66,85.93,19.57,25.36,55.21,34.88,84.84,23.07,29.74-11.81,50.18-41.22,57.51-71.5,17.82-74.24-50.84-129.23-120.81-122.78-60.13,5.58-103.32,50.84-106.27,111.41-3.39,68.55,44.83,127.92,111.95,140.6,69.21,13.12,136.01-30.61,161.15-94.57,22.96-58.49,2.62-128.14-29.3-179.19-15.63-25.15-35.31-44.83-57.95-59.48,70.19,21.32,126.17,80.14,138.63,157.44,17.6,108.13-55.87,210.02-164,227.63l.11-.11ZM528.28,504.23c-24.71-3.61-11.26-4.7-1.75-5.36.98,2.84,1.75,5.36,1.75,5.36Z"/>
  </g>
</svg>