<?xml version="1.0" encoding="UTF-8"?>
<svg id="Layer_1" data-name="Layer 1" xmlns="http://www.w3.org/2000/svg" viewBox="0 0 938.98 756.95">
  <defs>
    <style>
      .cls-1 {
        fill: #000;
        stroke-width: 0px;
      }
    </style>
  </defs>
  <path class="cls-1" d="M44.4,256.3c-14.8-17.5-29.42-34.78-44.4-52.5,10.81-9,21.03-17.68,31.42-26.14,48.33-39.35,96.03-79.51,145.38-117.54,20.3-15.65,43.32-28.46,66.55-39.49,54.71-25.97,112.58-5.78,141.25,47.51,15.22,28.29,22.15,59.17,27.86,90.41,13.38,73.2,22.12,147.3,42.5,219.13,8.15,28.71,16.66,57.33,32.48,83.05,17.2,27.96,34.64,30.79,59,8.81,29.51-26.62,52.49-58.7,72.39-92.71,15.81-27.02,29.73-55.24,43.03-83.62,8.3-17.72,9.31-37.34,7.05-56.76-3.02-25.95-23.28-42.85-52.37-44.62-22.18-1.35-43.7,2.1-64.88,8.32-4.25,1.25-8.49,2.55-14.36,4.32,2.5-7.3,4.45-13.43,6.69-19.45,15.52-41.72,36.43-80.19,67.45-112.67,35.16-36.82,78.09-58.94,128.02-67.48,32.99-5.64,66.19-7.21,99.21-.29,48.66,10.21,79.43,39.91,91.95,87.76,14.14,54.04,9.78,107.36-9.08,159.61-19.79,54.84-49.28,104.55-82.46,152.08-59.7,85.52-125.32,166.18-200.98,238.2-42.07,40.05-87.48,75.76-141.63,98.63-23.07,9.74-47.11,15.7-72.23,16.06-33.35.47-59.34-15.01-80.59-39.28-30.05-34.33-50.09-74.26-63.21-117.68-27.64-91.46-54.52-183.14-82.57-274.47-9.46-30.8-21.9-60.66-42.19-86.35-4.38-5.55-9.5-10.71-15.02-15.11-11.56-9.22-23.98-11.33-37.34-3.05-17.06,10.56-34.35,20.74-51.55,31.06-2.22,1.33-4.49,2.58-7.39,4.24Z"/>
</svg>